<?xml version="1.0" encoding="UTF-8" standalone="no"?>
<!DOCTYPE svg PUBLIC "-//W3C//DTD SVG 1.1//EN" "http://www.w3.org/Graphics/SVG/1.1/DTD/svg11.dtd">
<svg width="100%" height="100%" viewBox="0 0 54 27" version="1.1" xmlns="http://www.w3.org/2000/svg" xmlns:xlink="http://www.w3.org/1999/xlink" xml:space="preserve" xmlns:serif="http://www.serif.com/" style="fill-rule:evenodd;clip-rule:evenodd;stroke-linejoin:round;stroke-miterlimit:2;">
    <path d="M14.889,4.311C15.816,3.149 16.448,1.594 16.279,0C14.925,0.067 13.268,0.895 12.306,2.057C11.445,3.051 10.684,4.676 10.88,6.2C12.408,6.333 13.927,5.438 14.889,4.311" style="fill:white;fill-rule:nonzero;"/>
    <path d="M16.263,6.498C14.049,6.364 12.168,7.754 11.112,7.754C10.052,7.754 8.434,6.565 6.683,6.596C4.406,6.63 2.293,7.919 1.135,9.969C-1.244,14.064 0.506,20.146 2.819,23.483C3.942,25.136 5.297,26.954 7.079,26.887C8.764,26.82 9.427,25.8 11.473,25.8C13.522,25.8 14.115,26.887 15.898,26.856C17.751,26.823 18.905,25.203 20.028,23.55C21.316,21.669 21.846,19.852 21.878,19.749C21.844,19.716 18.313,18.36 18.277,14.296C18.244,10.892 21.053,9.274 21.187,9.176C19.6,6.828 17.123,6.565 16.263,6.498" style="fill:white;fill-rule:nonzero;"/>
    <path d="M30.358,3.365L30.358,7.853L33.966,7.853L33.966,10.817L30.358,10.817L30.358,21.375C30.358,23.009 31.077,23.766 32.655,23.766C33.051,23.766 33.699,23.711 33.951,23.677L33.951,26.657C33.519,26.746 32.655,26.819 31.811,26.819C28.077,26.819 26.624,25.382 26.624,21.754L26.624,10.819L23.856,10.819L23.856,7.855L26.624,7.855L26.624,3.367L30.358,3.365Z" style="fill:white;fill-rule:nonzero;"/>
    <path d="M46.601,26.671L42.635,26.671L35.972,7.856L39.914,7.856L44.591,22.976L44.68,22.976L49.356,7.856L53.231,7.856L46.601,26.671Z" style="fill:white;fill-rule:nonzero;"/>
</svg>
