<svg xmlns="http://www.w3.org/2000/svg" xmlns:xlink="http://www.w3.org/1999/xlink" xmlns:serif="http://www.serif.com/" version="1.1" xml:space="preserve" style="fill-rule:evenodd;clip-rule:evenodd;stroke-linejoin:round;stroke-miterlimit:2;" viewBox="0 -102.63 1000 412.99">
    <g id="g52" transform="matrix(1,0,0,1,-2599.99998,200)">
        <path id="path3441" d="M2723.178,-27.46L2677.088,-27.46L2677.088,-93.185L2647.271,-93.185L2647.271,-27.46L2600,-27.46L2600,-197L2647.18,-197L2647.18,-133.73L2676.997,-133.73L2676.997,-197L2723.087,-197L2723.087,-27.46L2723.178,-27.46ZM2934.443,-26.733C2981.623,-26.733 3020.167,-66.005 3020.167,-113.821C3020.167,-162.365 2981.623,-199.909 2934.443,-199.909C2886.626,-199.909 2862.445,-165.183 2856.628,-151.002C2856.628,-172.001 2835.628,-197.091 2811.265,-197.091L2732.541,-197.091L2732.541,-27.46L2805.811,-27.46C2835.628,-27.46 2856.628,-52.914 2856.628,-75.277C2863.264,-61.459 2886.717,-26.733 2934.443,-26.733ZM2799.993,-95.64C2806.811,-95.64 2812.265,-89.004 2812.265,-81.459C2812.265,-73.55 2806.811,-66.914 2799.993,-66.914L2776.539,-66.914L2776.539,-95.64L2799.993,-95.64ZM2799.993,-159.274C2806.811,-159.274 2812.265,-152.638 2812.265,-145.093C2812.265,-137.548 2806.811,-130.911 2799.993,-130.911L2776.539,-130.911L2776.539,-159.274L2799.993,-159.274ZM2830.992,-113.821C2836.446,-114.185 2845.355,-120.457 2848.719,-124.184C2847.446,-119.639 2847.446,-105.276 2848.719,-100.731C2844.992,-106.276 2836.446,-112.821 2830.992,-113.821ZM2891.445,-113.821C2891.445,-137.729 2910.898,-157.001 2934.807,-156.911C2958.806,-156.729 2977.896,-137.184 2977.623,-113.185C2977.26,-89.549 2958.169,-70.55 2934.534,-70.55C2910.717,-70.55 2891.445,-89.822 2891.445,-113.821ZM2934.443,-79.822C2952.806,-79.822 2968.26,-94.913 2968.26,-113.821C2968.26,-132.73 2952.806,-147.638 2934.443,-147.638C2915.535,-147.638 2900.444,-132.73 2900.444,-113.821C2900.444,-94.913 2915.535,-79.822 2934.443,-79.822Z" style="fill:white;fill-rule:nonzero;"/>
        <g id="g888" transform="matrix(0.90906,0,0,0.90906,236.44484,-18.188064)">
            <path id="XMLID_1_" d="M3333.2,-130.7C3332.2,-175.9 3300.2,-199.8 3261,-199.8C3239.5,-199.8 3220.1,-192.6 3206.9,-178.6C3193.7,-192.6 3174.3,-199.8 3152.8,-199.8C3113.6,-199.8 3081.6,-175.8 3080.6,-130.6L3080.6,-27.2C3080.6,-17.7 3088.3,-10.1 3097.7,-10.1L3113.9,-10.1C3115.5,-10.1 3116.8,-11.4 3116.8,-13L3116.8,-130.4C3117.5,-152.7 3133.3,-164.5 3152.8,-164.5C3172.3,-164.5 3188.1,-152.7 3188.8,-130.4L3188.8,-27.3C3188.8,-17.8 3196.5,-10.2 3205.9,-10.2L3222.1,-10.2C3223.7,-10.2 3225,-11.5 3225,-13.1L3225,-130.5C3225.7,-152.8 3241.5,-164.6 3261,-164.6C3280.5,-164.6 3296.3,-152.8 3297,-130.5L3297,-27.4C3297,-17.9 3304.7,-10.3 3314.1,-10.3L3330.3,-10.3C3331.9,-10.3 3333.2,-11.6 3333.2,-13.2L3333.2,-130.6C3333.3,-130.5 3333.2,-130.6 3333.2,-130.7ZM3697.9,-196.9L3670.4,-196.9C3662.8,-196.9 3655.7,-193.1 3651.4,-186.8L3621,-141.8C3617,-135.9 3608.4,-135.9 3604.4,-141.8L3574,-186.8C3569.8,-193.1 3562.6,-196.9 3555,-196.9L3527.5,-196.9C3525.8,-196.9 3524.8,-195 3525.7,-193.6L3579.9,-113.2C3583.8,-107.4 3583.8,-99.8 3579.9,-94L3525.7,-13.6C3524.7,-12.2 3525.8,-10.3 3527.5,-10.3L3555,-10.3C3562.6,-10.3 3569.7,-14.1 3574,-20.4L3604.4,-65.4C3608.4,-71.3 3617,-71.3 3621,-65.4L3651.4,-20.4C3655.6,-14.1 3662.8,-10.3 3670.4,-10.3L3697.9,-10.3C3699.6,-10.3 3700.6,-12.2 3699.7,-13.6L3645.4,-93.9C3641.5,-99.7 3641.5,-107.3 3645.4,-113.1L3699.6,-193.5C3700.6,-194.9 3699.6,-196.9 3697.9,-196.9ZM3513.3,-196.9L3497.1,-196.9C3488.9,-196.9 3482,-191.1 3480.3,-183.4C3465.9,-194.4 3447.8,-200 3428.3,-200C3380.9,-200 3342.4,-167 3342.4,-104.7C3342.4,-42.4 3380.8,-9.4 3428.3,-9.4C3447.7,-9.4 3465.6,-14.9 3480,-25.7C3480.8,-17 3488.1,-10.1 3497.1,-10.1L3513.3,-10.1C3514.9,-10.1 3516.2,-11.4 3516.2,-13L3516.2,-194C3516.1,-195.6 3514.9,-196.9 3513.3,-196.9ZM3428.3,-44.8C3400,-44.8 3377,-65.5 3377,-104.6C3377,-143.7 3400,-164.4 3428.3,-164.4C3456.6,-164.4 3479.6,-143.7 3479.6,-104.6C3479.6,-65.5 3456.6,-44.8 3428.3,-44.8Z" style="fill:url(#_Linear1);fill-rule:nonzero;"/>
            <g id="g3453" transform="matrix(1,0,0,1,0,0.1)">
                <clipPath id="_clip2">
                    <path id="ellipse3466" d="M3333.2,-130.8C3332.2,-176 3300.2,-199.9 3261,-199.9C3239.5,-199.9 3220.1,-192.7 3206.9,-178.7C3193.7,-192.7 3174.3,-199.9 3152.8,-199.9C3113.6,-199.9 3081.6,-175.9 3080.6,-130.7L3080.6,-27.3C3080.6,-17.8 3088.3,-10.2 3097.7,-10.2L3113.9,-10.2C3115.5,-10.2 3116.8,-11.5 3116.8,-13.1L3116.8,-130.5C3117.5,-152.8 3133.3,-164.6 3152.8,-164.6C3172.3,-164.6 3188.1,-152.8 3188.8,-130.5L3188.8,-27.4C3188.8,-17.9 3196.5,-10.3 3205.9,-10.3L3222.1,-10.3C3223.7,-10.3 3225,-11.6 3225,-13.2L3225,-130.6C3225.7,-152.9 3241.5,-164.7 3261,-164.7C3280.5,-164.7 3296.3,-152.9 3297,-130.6L3297,-27.5C3297,-18 3304.7,-10.4 3314.1,-10.4L3330.3,-10.4C3331.9,-10.4 3333.2,-11.7 3333.2,-13.3L3333.2,-130.7C3333.3,-130.6 3333.2,-130.7 3333.2,-130.8ZM3697.9,-197L3670.4,-197C3662.8,-197 3655.7,-193.2 3651.4,-186.9L3621,-141.9C3617,-136 3608.4,-136 3604.4,-141.9L3574,-186.9C3569.8,-193.2 3562.6,-197 3555,-197L3527.5,-197C3525.8,-197 3524.8,-195.1 3525.7,-193.7L3579.9,-113.3C3583.8,-107.5 3583.8,-99.9 3579.9,-94.1L3525.7,-13.7C3524.7,-12.3 3525.8,-10.4 3527.5,-10.4L3555,-10.4C3562.6,-10.4 3569.7,-14.2 3574,-20.5L3604.4,-65.5C3608.4,-71.4 3617,-71.4 3621,-65.5L3651.4,-20.5C3655.6,-14.2 3662.8,-10.4 3670.4,-10.4L3697.9,-10.4C3699.6,-10.4 3700.6,-12.3 3699.7,-13.7L3645.4,-94C3641.5,-99.8 3641.5,-107.4 3645.4,-113.2L3699.6,-193.6C3700.6,-195 3699.6,-197 3697.9,-197ZM3513.3,-197L3497.1,-197C3488.9,-197 3482,-191.2 3480.3,-183.5C3465.9,-194.5 3447.8,-200.1 3428.3,-200.1C3380.9,-200.1 3342.4,-167.1 3342.4,-104.8C3342.4,-42.5 3380.8,-9.5 3428.3,-9.5C3447.7,-9.5 3465.6,-15 3480,-25.8C3480.8,-17.1 3488.1,-10.2 3497.1,-10.2L3513.3,-10.2C3514.9,-10.2 3516.2,-11.5 3516.2,-13.1L3516.2,-194.1C3516.1,-195.7 3514.9,-197 3513.3,-197ZM3428.3,-44.9C3400,-44.9 3377,-65.6 3377,-104.7C3377,-143.8 3400,-164.5 3428.3,-164.5C3456.6,-164.5 3479.6,-143.8 3479.6,-104.7C3479.6,-65.6 3456.6,-44.9 3428.3,-44.9Z"/>
                </clipPath>
                <g clip-path="url(#_clip2)">
                    <ellipse cx="3229.7" cy="-139.8" rx="110.6" ry="144" style="fill:url(#_Radial3);"/>
                </g>
                <clipPath id="_clip4">
                    <path id="ellipse3473" d="M3333.2,-130.8C3332.2,-176 3300.2,-199.9 3261,-199.9C3239.5,-199.9 3220.1,-192.7 3206.9,-178.7C3193.7,-192.7 3174.3,-199.9 3152.8,-199.9C3113.6,-199.9 3081.6,-175.9 3080.6,-130.7L3080.6,-27.3C3080.6,-17.8 3088.3,-10.2 3097.7,-10.2L3113.9,-10.2C3115.5,-10.2 3116.8,-11.5 3116.8,-13.1L3116.8,-130.5C3117.5,-152.8 3133.3,-164.6 3152.8,-164.6C3172.3,-164.6 3188.1,-152.8 3188.8,-130.5L3188.8,-27.4C3188.8,-17.9 3196.5,-10.3 3205.9,-10.3L3222.1,-10.3C3223.7,-10.3 3225,-11.6 3225,-13.2L3225,-130.6C3225.7,-152.9 3241.5,-164.7 3261,-164.7C3280.5,-164.7 3296.3,-152.9 3297,-130.6L3297,-27.5C3297,-18 3304.7,-10.4 3314.1,-10.4L3330.3,-10.4C3331.9,-10.4 3333.2,-11.7 3333.2,-13.3L3333.2,-130.7C3333.3,-130.6 3333.2,-130.7 3333.2,-130.8ZM3697.9,-197L3670.4,-197C3662.8,-197 3655.7,-193.2 3651.4,-186.9L3621,-141.9C3617,-136 3608.4,-136 3604.4,-141.9L3574,-186.9C3569.8,-193.2 3562.6,-197 3555,-197L3527.5,-197C3525.8,-197 3524.8,-195.1 3525.7,-193.7L3579.9,-113.3C3583.8,-107.5 3583.8,-99.9 3579.9,-94.1L3525.7,-13.7C3524.7,-12.3 3525.8,-10.4 3527.5,-10.4L3555,-10.4C3562.6,-10.4 3569.7,-14.2 3574,-20.5L3604.4,-65.5C3608.4,-71.4 3617,-71.4 3621,-65.5L3651.4,-20.5C3655.6,-14.2 3662.8,-10.4 3670.4,-10.4L3697.9,-10.4C3699.6,-10.4 3700.6,-12.3 3699.7,-13.7L3645.4,-94C3641.5,-99.8 3641.5,-107.4 3645.4,-113.2L3699.6,-193.6C3700.6,-195 3699.6,-197 3697.9,-197ZM3513.3,-197L3497.1,-197C3488.9,-197 3482,-191.2 3480.3,-183.5C3465.9,-194.5 3447.8,-200.1 3428.3,-200.1C3380.9,-200.1 3342.4,-167.1 3342.4,-104.8C3342.4,-42.5 3380.8,-9.5 3428.3,-9.5C3447.7,-9.5 3465.6,-15 3480,-25.8C3480.8,-17.1 3488.1,-10.2 3497.1,-10.2L3513.3,-10.2C3514.9,-10.2 3516.2,-11.5 3516.2,-13.1L3516.2,-194.1C3516.1,-195.7 3514.9,-197 3513.3,-197ZM3428.3,-44.9C3400,-44.9 3377,-65.6 3377,-104.7C3377,-143.8 3400,-164.5 3428.3,-164.5C3456.6,-164.5 3479.6,-143.8 3479.6,-104.7C3479.6,-65.6 3456.6,-44.9 3428.3,-44.9Z"/>
                </clipPath>
                <g clip-path="url(#_clip4)">
                    <ellipse cx="3339.9" cy="-19.8" rx="227.6" ry="161.1" style="fill:url(#_Radial5);"/>
                </g>
                <clipPath id="_clip6">
                    <path id="circle3480" d="M3333.2,-130.8C3332.2,-176 3300.2,-199.9 3261,-199.9C3239.5,-199.9 3220.1,-192.7 3206.9,-178.7C3193.7,-192.7 3174.3,-199.9 3152.8,-199.9C3113.6,-199.9 3081.6,-175.9 3080.6,-130.7L3080.6,-27.3C3080.6,-17.8 3088.3,-10.2 3097.7,-10.2L3113.9,-10.2C3115.5,-10.2 3116.8,-11.5 3116.8,-13.1L3116.8,-130.5C3117.5,-152.8 3133.3,-164.6 3152.8,-164.6C3172.3,-164.6 3188.1,-152.8 3188.8,-130.5L3188.8,-27.4C3188.8,-17.9 3196.5,-10.3 3205.9,-10.3L3222.1,-10.3C3223.7,-10.3 3225,-11.6 3225,-13.2L3225,-130.6C3225.7,-152.9 3241.5,-164.7 3261,-164.7C3280.5,-164.7 3296.3,-152.9 3297,-130.6L3297,-27.5C3297,-18 3304.7,-10.4 3314.1,-10.4L3330.3,-10.4C3331.9,-10.4 3333.2,-11.7 3333.2,-13.3L3333.2,-130.7C3333.3,-130.6 3333.2,-130.7 3333.2,-130.8ZM3697.9,-197L3670.4,-197C3662.8,-197 3655.7,-193.2 3651.4,-186.9L3621,-141.9C3617,-136 3608.4,-136 3604.4,-141.9L3574,-186.9C3569.8,-193.2 3562.6,-197 3555,-197L3527.5,-197C3525.8,-197 3524.8,-195.1 3525.7,-193.7L3579.9,-113.3C3583.8,-107.5 3583.8,-99.9 3579.9,-94.1L3525.7,-13.7C3524.7,-12.3 3525.8,-10.4 3527.5,-10.4L3555,-10.4C3562.6,-10.4 3569.7,-14.2 3574,-20.5L3604.4,-65.5C3608.4,-71.4 3617,-71.4 3621,-65.5L3651.4,-20.5C3655.6,-14.2 3662.8,-10.4 3670.4,-10.4L3697.9,-10.4C3699.6,-10.4 3700.6,-12.3 3699.7,-13.7L3645.4,-94C3641.5,-99.8 3641.5,-107.4 3645.4,-113.2L3699.6,-193.6C3700.6,-195 3699.6,-197 3697.9,-197ZM3513.3,-197L3497.1,-197C3488.9,-197 3482,-191.2 3480.3,-183.5C3465.9,-194.5 3447.8,-200.1 3428.3,-200.1C3380.9,-200.1 3342.4,-167.1 3342.4,-104.8C3342.4,-42.5 3380.8,-9.5 3428.3,-9.5C3447.7,-9.5 3465.6,-15 3480,-25.8C3480.8,-17.1 3488.1,-10.2 3497.1,-10.2L3513.3,-10.2C3514.9,-10.2 3516.2,-11.5 3516.2,-13.1L3516.2,-194.1C3516.1,-195.7 3514.9,-197 3513.3,-197ZM3428.3,-44.9C3400,-44.9 3377,-65.6 3377,-104.7C3377,-143.8 3400,-164.5 3428.3,-164.5C3456.6,-164.5 3479.6,-143.8 3479.6,-104.7C3479.6,-65.6 3456.6,-44.9 3428.3,-44.9Z"/>
                </clipPath>
                <g clip-path="url(#_clip6)">
                    <circle cx="3479.6" cy="-189.2" r="123.8" style="fill:url(#_Radial7);"/>
                </g>
            </g>
        </g>
    </g>
    <defs>
        <linearGradient id="_Linear1" x1="0" y1="0" x2="1" y2="0" gradientUnits="userSpaceOnUse" gradientTransform="matrix(619.3621,0,0,619.3621,3080.6379,-104.6449)"><stop offset="0" style="stop-color:rgb(153,30,235);stop-opacity:1"/><stop offset="0.4" style="stop-color:rgb(88,34,180);stop-opacity:1"/><stop offset="0.73" style="stop-color:rgb(88,34,180);stop-opacity:1"/><stop offset="1" style="stop-color:rgb(153,30,235);stop-opacity:1"/></linearGradient>
        <radialGradient id="_Radial3" cx="0" cy="0" r="1" gradientUnits="userSpaceOnUse" gradientTransform="matrix(110.594534,0,0,143.970385,3229.743222,-139.837445)"><stop offset="0" style="stop-color:rgb(123,167,242);stop-opacity:0.5"/><stop offset="1" style="stop-color:rgb(123,167,242);stop-opacity:0"/></radialGradient>
        <radialGradient id="_Radial5" cx="0" cy="0" r="1" gradientUnits="userSpaceOnUse" gradientTransform="matrix(227.5584,0,0,161.134103,3339.8582,-19.829261)"><stop offset="0" style="stop-color:rgb(123,167,242);stop-opacity:1"/><stop offset="0.2" style="stop-color:rgb(123,167,242);stop-opacity:1"/><stop offset="1" style="stop-color:rgb(123,167,242);stop-opacity:0"/></radialGradient>
        <radialGradient id="_Radial7" cx="0" cy="0" r="1" gradientUnits="userSpaceOnUse" gradientTransform="matrix(123.7732,0,0,123.7732,3479.5854,-189.1615)"><stop offset="0" style="stop-color:rgb(123,167,242);stop-opacity:1"/><stop offset="1" style="stop-color:rgb(123,167,242);stop-opacity:0"/></radialGradient>
    </defs>
</svg>