<svg xmlns="http://www.w3.org/2000/svg" xmlns:xlink="http://www.w3.org/1999/xlink" xmlns:serif="http://www.serif.com/" version="1.1" xml:space="preserve" style="fill-rule:evenodd;clip-rule:evenodd;stroke-linejoin:round;stroke-miterlimit:2;" viewBox="81.88 267.18 552.23 165.63">
    <g id="g26" transform="matrix(0.690773,0,0,0.690773,81.752781,267.18316)">
        <path id="path2" d="M444.53,171.29C440.549,165.217 435.177,160.181 428.86,156.6C433.641,153.405 437.662,149.199 440.64,144.28C443.587,139.387 445.063,133.407 445.07,126.34C445.146,120.54 443.966,114.791 441.61,109.49C439.374,104.519 436.096,100.086 432,96.49C427.693,92.779 422.698,89.952 417.3,88.17C411.275,86.168 404.959,85.182 398.61,85.25L324.07,85.25L324.07,236.54L402.93,236.54C409.51,236.623 416.054,235.56 422.27,233.4C427.792,231.494 432.889,228.524 437.27,224.66C441.476,220.875 444.798,216.212 447,211C449.364,205.399 450.543,199.369 450.46,193.29C450.467,184.67 448.49,177.337 444.53,171.29ZM352.16,109.06L396.45,109.06C402.93,109.06 407.973,110.61 411.58,113.71C415.187,116.81 416.987,121.383 416.98,127.43C416.98,133.47 415.18,138.223 411.58,141.69C407.98,145.157 402.937,146.883 396.45,146.87L352.16,146.87L352.16,109.06ZM417.3,207.06C413.92,210.88 408.41,212.79 400.77,212.79L352.16,212.79L352.16,170.64L400.77,170.64C408.263,170.64 413.74,172.763 417.2,177.01C420.671,181.318 422.507,186.719 422.38,192.25C422.38,198.303 420.687,203.22 417.3,207L417.3,207.06Z" style="fill:white;fill-rule:nonzero;"/>
        <path id="path4" d="M268.53,235.24C275.894,232.483 282.62,228.257 288.3,222.82C293.697,217.566 297.929,211.235 300.72,204.24C303.631,196.994 305.101,189.249 305.05,181.44L305.05,85.29L277,85.29L277,181.44C277.071,186.408 276.213,191.347 274.47,196C272.945,200.064 270.557,203.749 267.47,206.8C264.354,209.814 260.636,212.135 256.56,213.61C247.393,216.769 237.427,216.769 228.26,213.61C224.181,212.135 220.459,209.814 217.34,206.8C214.259,203.744 211.872,200.06 210.34,196C208.615,191.333 207.774,186.385 207.86,181.41L207.86,85.29L179.73,85.29L179.73,181.44C179.68,189.248 181.147,196.992 184.05,204.24C186.841,211.235 191.073,217.566 196.47,222.82C202.126,228.239 208.816,232.463 216.14,235.24C233.075,241.292 251.595,241.292 268.53,235.24" style="fill:white;fill-rule:nonzero;"/>
        <path id="path6" d="M80.13,236.54L114.49,170.64C116.49,166.9 118.287,163.37 119.88,160.05C121.473,156.73 122.987,153.453 124.42,150.22C125.86,146.98 127.267,143.667 128.64,140.28C130.013,136.893 131.49,133.33 133.07,129.59L133.93,129.59C133.637,133.59 133.35,137.37 133.07,140.93C132.77,144.46 132.56,147.88 132.42,151.19C132.28,154.5 132.17,157.93 132.09,161.46C132.01,164.99 131.98,168.77 131.98,172.8L131.98,236.54L160.07,236.54L160.07,85.29L128.75,85.29L99.36,142.76C97.36,146.66 95.523,150.263 93.85,153.57C92.19,156.88 90.61,160.13 89.1,163.29C87.59,166.45 86.1,169.7 84.67,173.02C83.24,176.34 81.67,179.86 80.13,183.6C78.543,179.867 77.03,176.333 75.59,173C74.15,169.667 72.673,166.423 71.16,163.27C69.65,160.11 68.06,156.86 66.41,153.55C64.76,150.24 62.92,146.64 60.9,142.74L31.51,85.29L0.19,85.29L0.19,236.54L28.27,236.54L28.27,172.8C28.27,168.8 28.237,165.02 28.17,161.46C28.103,157.9 27.993,154.477 27.84,151.19C27.7,147.857 27.483,144.437 27.19,140.93C26.897,137.423 26.61,133.643 26.33,129.59L27.19,129.59C28.63,133.33 30.07,136.893 31.51,140.28C32.95,143.667 34.393,146.98 35.84,150.22C37.27,153.46 38.79,156.74 40.37,160.05C41.95,163.36 43.76,166.9 45.77,170.64L80.13,236.54Z" style="fill:white;fill-rule:nonzero;"/>
        <rect id="rect8" x="468.61" y="85.29" width="28.09" height="151.25" style="fill:white;"/>
        <g id="g24">
            <circle id="circle10" cx="766.5" cy="118.11" r="33.13" style="fill:white;"/>
            <circle id="circle12" cx="595.89" cy="118.11" r="33.13" style="fill:white;"/>
            <circle id="circle14" cx="681.2" cy="118.11" r="33.13" style="fill:white;"/>
            <circle id="circle16" cx="595.89" cy="33.13" r="33.13" style="fill:white;"/>
            <circle id="circle18" cx="681.2" cy="33.13" r="33.13" style="fill:white;"/>
            <circle id="circle20" cx="595.89" cy="203.1" r="33.13" style="fill:white;"/>
            <circle id="circle22" cx="681.2" cy="203.1" r="33.13" style="fill:white;"/>
        </g>
    </g>
</svg>