<?xml version="1.0" encoding="UTF-8" standalone="no"?>
<!DOCTYPE svg PUBLIC "-//W3C//DTD SVG 1.1//EN" "http://www.w3.org/Graphics/SVG/1.1/DTD/svg11.dtd">
<svg width="100%" height="100%" viewBox="0 0 652 652" version="1.1" xmlns="http://www.w3.org/2000/svg" xmlns:xlink="http://www.w3.org/1999/xlink" xml:space="preserve" xmlns:serif="http://www.serif.com/" style="fill-rule:evenodd;clip-rule:evenodd;stroke-linejoin:round;stroke-miterlimit:2;">
    <path d="M65.5,291.1C44.2,291.1 26.9,308.4 26.9,329.7L26.9,418.9L45.2,418.9L45.2,369.4L51.9,376.5L78.7,366C94.1,360.1 104,346.3 104,329.8C104,308.4 86.7,291.1 65.5,291.1ZM72.3,349.6L45.2,360.2L45.2,329.6C45.2,317.4 54.4,308.4 65.4,308.4C76.4,308.4 85.7,317.4 85.7,329.6C85.7,337.4 82,345.9 72.3,349.6M388.1,291.1C366.8,291.1 349.5,308.3 349.5,329.6C349.5,350.9 366.7,368.2 388,368.2C409.3,368.2 426.6,351 426.6,329.7C426.6,319.4 422.6,309.6 415.3,302.4C408.1,295.2 398.3,291.1 388.1,291.1ZM388.1,350.8C376.4,350.8 367.8,341.5 367.8,329.6C367.8,317.7 376.6,308.4 388.1,308.4C399.8,308.4 408.4,317.7 408.4,329.6C408.4,341.5 399.9,350.8 388.1,350.8ZM471.6,308.5C479.1,308.4 486,312.6 489.4,319.3L503.7,308.3C491.8,290.5 468,285.8 450.2,297.5C432.4,309.2 427.7,333.2 439.4,351C451.1,368.8 475.1,373.5 492.9,361.8C497.1,359 500.8,355.3 503.7,351L489.4,340C486,346.7 479.1,350.9 471.6,350.8C459.9,350.8 451.3,341.5 451.3,329.6C451.3,317.7 460.1,308.5 471.6,308.5ZM315.5,308.5C323,308.4 329.9,312.6 333.3,319.3L347.6,308.3C335.9,290.6 311.9,285.8 294.1,297.5C276.3,309.2 271.6,333.2 283.3,351C295,368.7 319,373.5 336.8,361.8C341,359 344.7,355.3 347.6,351L333.3,340.1C329.9,346.8 323,351 315.5,350.9C303.8,350.9 295.2,341.6 295.2,329.7C295.2,317.8 304.1,308.5 315.5,308.5ZM251.6,300.3C245.4,293.9 237.2,291.1 228.5,291.1C210.6,291.1 192.4,307.3 192.4,329.7C192.4,352.1 210.6,368.2 228.5,368.2C237.1,368.2 245.3,365.4 251.6,359L251.6,366L269.9,366L269.9,293.4L251.6,293.4L251.6,300.3ZM231.4,350.8C219.7,350.8 210.8,341.5 210.8,329.6C210.8,317.7 219.9,308.4 231.4,308.4C243.1,308.4 251.7,317.7 251.7,329.6C251.7,341.5 243,350.8 231.4,350.8ZM554.7,327L546.5,327L578.3,293.4L554.6,293.4L529,321L529,253.8L510.7,253.8L510.7,366L529,366L529,345.3L539.2,334.7L560.7,365.9L582.8,365.9L554.7,327ZM148.6,291.1C127.3,291.5 110.2,309.1 110.6,330.3C111,351.1 127.7,367.8 148.5,368.2C161.1,368.2 173.1,362 180,352.6L165.4,342.4C163.6,345.3 158,350.8 148.6,350.8C140.2,350.9 132.7,345.7 129.8,338L185.5,338C186.1,335.2 186.3,332.4 186.3,329.6C186.4,308.4 169.9,291.1 148.6,291.1ZM129.9,321.3C132.9,313.6 140.3,308.5 148.7,308.5C156.8,308.4 164.2,313.6 166.7,321.2L129.9,321.3Z" style="fill:white;fill-rule:nonzero;"/>
    <path d="M615.9,355.1C613.7,355.1 611.5,355.7 609.7,356.9C607.9,358.1 606.4,359.8 605.6,361.9C604.8,364 604.5,366.1 605,368.3C605.5,370.5 606.5,372.4 608,374C609.5,375.6 611.5,376.5 613.7,377C615.9,377.5 618.1,377.2 620.1,376.4C622.2,375.6 623.9,374.1 625.1,372.3C626.3,370.5 626.9,368.3 626.9,366.1C626.9,363.2 625.7,360.4 623.6,358.2C621.7,356.2 618.9,355.1 615.9,355.1" style="fill:rgb(6,157,224);fill-rule:nonzero;"/>
    <path d="M615.9,324.7C613.7,324.7 611.5,325.3 609.7,326.5C607.9,327.7 606.4,329.4 605.6,331.5C604.8,333.6 604.5,335.7 605,337.9C605.5,340.1 606.5,342 608,343.6C609.5,345.2 611.5,346.1 613.7,346.6C615.9,347.1 618.1,346.8 620.1,346C622.2,345.2 623.9,343.7 625.1,341.9C626.3,340.1 626.9,337.9 626.9,335.7C626.9,332.8 625.7,330 623.6,327.8C621.7,325.9 618.9,324.7 615.9,324.7" style="fill:rgb(110,85,220);fill-rule:nonzero;"/>
    <path d="M615.9,385.3C613.7,385.3 611.5,385.9 609.7,387.1C607.9,388.3 606.4,390 605.6,392.1C604.8,394.2 604.5,396.3 605,398.5C605.5,400.7 606.5,402.6 608,404.2C609.5,405.8 611.5,406.7 613.7,407.2C615.9,407.7 618.1,407.4 620.1,406.6C622.2,405.8 623.9,404.3 625.1,402.5C626.3,400.7 626.9,398.5 626.9,396.3C626.9,394.8 626.7,393.4 626.1,392.1C625.5,390.8 624.8,389.6 623.7,388.5C622.7,387.5 621.4,386.7 620.1,386.1C618.8,385.6 617.3,385.3 615.9,385.3" style="fill:rgb(5,172,63);fill-rule:nonzero;"/>
    <path d="M615.9,294.5C613.7,294.5 611.5,295.1 609.7,296.3C607.9,297.5 606.4,299.2 605.6,301.3C604.8,303.4 604.5,305.5 605,307.7C605.5,309.9 606.5,311.8 608,313.4C609.6,315 611.5,315.9 613.7,316.4C615.9,316.9 618.1,316.6 620.1,315.8C622.2,315 623.9,313.5 625.1,311.7C626.3,309.9 626.9,307.7 626.9,305.5C626.9,304 626.7,302.6 626.1,301.3C625.5,300 624.8,298.8 623.7,297.7C622.7,296.7 621.4,295.9 620.1,295.3C618.7,294.6 617.3,294.5 615.9,294.5" style="fill:rgb(239,21,65);fill-rule:nonzero;"/>
    <path d="M615.9,264.2C613.7,264.2 611.5,264.8 609.7,266C607.9,267.2 606.4,268.9 605.6,271C604.8,273.1 604.5,275.2 605,277.4C605.5,279.6 606.5,281.5 608,283.1C609.5,284.7 611.5,285.6 613.7,286.1C615.9,286.6 618.1,286.3 620.1,285.5C622.2,284.7 623.9,283.2 625.1,281.4C626.3,279.6 626.9,277.4 626.9,275.2C626.9,272.3 625.7,269.5 623.6,267.3C621.7,265.4 618.9,264.2 615.9,264.2" style="fill:rgb(255,113,18);fill-rule:nonzero;"/>
    <path d="M615.9,233.9C613.7,233.9 611.5,234.5 609.7,235.7C607.9,236.9 606.4,238.6 605.6,240.7C604.8,242.8 604.5,244.9 605,247.1C605.5,249.3 606.5,251.2 608,252.8C609.5,254.4 611.5,255.3 613.7,255.8C615.9,256.3 618.1,256 620.1,255.2C622.2,254.4 623.9,252.9 625.1,251.1C626.3,249.3 626.9,247.1 626.9,244.9C626.9,242 625.7,239.2 623.6,237C621.7,235.2 618.9,233.9 615.9,233.9" style="fill:rgb(252,204,18);fill-rule:nonzero;"/>
</svg>
