<?xml version="1.0" encoding="utf-8"?>
<!-- Generator: Adobe Illustrator 16.0.0, SVG Export Plug-In . SVG Version: 6.00 Build 0)  -->
<!DOCTYPE svg PUBLIC "-//W3C//DTD SVG 1.1//EN" "http://www.w3.org/Graphics/SVG/1.1/DTD/svg11.dtd">
<svg version="1.1" id="Layer_1" xmlns="http://www.w3.org/2000/svg" xmlns:xlink="http://www.w3.org/1999/xlink" x="0px" y="0px"
	 width="1000.001px" height="454.735px" viewBox="0 0 1000.001 454.735" enable-background="new 0 0 1000.001 454.735"
	 xml:space="preserve">
<g>
	<path d="M644.585,160.433l-12.641,11.532c-1.611,1.48-4.239,1.48-5.852,0l-14.454-13.192c-1.629-1.48-1.629-3.876,0-5.356
		l12.642-11.546c1.611-1.467,4.23-1.467,5.842,0l14.463,13.206C646.205,156.557,646.205,158.952,644.585,160.433 M594.854,114.907
		l-12.632,11.537c-1.62,1.48-4.248,1.48-5.869,0L561.9,113.247c-1.611-1.48-1.611-3.876,0-5.352l12.632-11.546
		c1.629-1.472,4.248-1.472,5.869,0l14.453,13.201C596.467,111.031,596.467,113.427,594.854,114.907z M545.012,69.373L532.371,80.91
		c-1.621,1.48-4.248,1.48-5.86,0l-14.45-13.196c-1.625-1.468-1.625-3.872,0-5.353l12.628-11.537c1.629-1.48,4.257-1.48,5.869,0
		l14.454,13.197C546.623,65.502,546.623,67.897,545.012,69.373z M391.726,131.862c0,2.09-1.857,3.784-4.144,3.784h-17.87
		c-2.286,0-4.144-1.694-4.144-3.784v-18.667c0-2.09,1.857-3.784,4.144-3.784h17.87c2.286,0,4.144,1.694,4.144,3.784V131.862z
		 M391.726,196.248c0,2.093-1.857,3.783-4.144,3.783h-17.87c-2.286,0-4.144-1.69-4.144-3.783V177.58
		c0-2.089,1.857-3.784,4.144-3.784h17.87c2.286,0,4.144,1.695,4.144,3.784V196.248z M391.726,260.632
		c0,2.094-1.857,3.786-4.144,3.786h-17.87c-2.286,0-4.144-1.692-4.144-3.786v-18.658c0-2.093,1.857-3.779,4.144-3.779h17.87
		c2.286,0,4.144,1.687,4.144,3.779V260.632z M643.175,139.12l0.149-87.595l-95.939,0.062L490.757,0l-7.919,7.336l12.154,11.099
		c1.62,1.48,1.62,3.877,0,5.356L482.36,35.323c-1.621,1.48-4.24,1.48-5.865,0L464.464,24.12c-0.43,0.385-4.42,4.038-8.261,7.538
		c5.519,5.036,21.825,19.929,21.825,19.929c-24.677,0.044-61.977-0.07-86.088,0l-0.215,12.377c0,2.094-1.857,3.789-4.144,3.789
		h-17.87c-2.286,0-4.144-1.695-4.144-3.789V51.587l-11.532,0.018l0.105,270.891l11.427,0.018v-12.65
		c0-2.083,1.857-3.783,4.144-3.783h17.87c2.286,0,4.144,1.7,4.144,3.783v12.65l251.554-0.087l-0.053-119.889l22.154,20.165
		l8.051-7.292l-11.914-11.086c-1.629-1.48-1.629-3.876,0-5.348l12.624-11.546c1.619-1.48,4.248-1.695,5.632-0.224l9.628,9.023
		l2.522,2.146l8.155-7.314C683.032,175.329,660.502,154.958,643.175,139.12z"/>
	<path d="M0,451.704h1.713c2.952,0,5.716-0.973,5.716-6.396v-47.75l-4.191-5.247H0.289V390.7h19.609l35.898,43.133h0.188v-36.457
		c0-3.383-2.291-5.064-6.479-5.064h-1.804V390.7h17.988v1.611h-1.332c-4.284,0-6.088,2.575-6.088,4.801v57.264h-4.003L9.903,400.31
		H9.715v45.438c0,5.072,2.09,5.957,7.429,5.957h0.85v1.611H0V451.704"/>
	<path d="M77.897,451.704h7.713v-59.393h-7.713V390.7h53.221v17.703h-1.712v-1.253c0-8.085-6.382-14.839-17.708-14.839h-11.23
		v27.209h6.565c6.189,0,9.426-3.285,9.426-11.739v-0.98h1.713v28.102h-1.713v-2.041c0-6.315-3.236-11.738-9.426-11.738h-6.565
		v30.581h13.705c15.619,0,17.896-12.089,17.896-17.152v-1.244h1.712v20.008H77.897V451.704"/>
	<path d="M149.712,392.312V390.7h27.51v1.611h-5.711l14.853,41.784h0.188l8.19-23.913l-6.189-17.871h-6.854V390.7h29.513v1.611
		h-7.425l14.476,42.057h0.188l10.845-31.922c1.052-3.021,1.625-5.159,1.625-6.402c0-1.524-0.862-3.732-6.478-3.732h-0.661V390.7
		h17.516v1.611h-0.859c-2.566,0-5.716,1.77-8.189,8.708l-19.225,53.716h-2.286l-14.756-41.627h-0.197l-14.756,41.627h-2.378
		l-22.658-62.424H149.712"/>
	<path d="M285.976,451.704h7.719v-59.393h-7.719V390.7h31.138v1.611h-8.576v59.393h10.955c16.854,0,20.655-7.647,20.655-17.958
		v-1.778h1.713v21.348h-55.885V451.704"/>
	<polyline points="353.694,451.704 361.407,451.704 361.407,392.312 353.694,392.312 353.694,390.7 383.969,390.7 383.969,392.312 
		376.251,392.312 376.251,451.704 383.969,451.704 383.969,453.315 353.694,453.315 353.694,451.704 	"/>
	<path d="M397.494,451.704h1.713c2.951,0,5.716-0.973,5.716-6.396v-47.75l-4.191-5.247h-2.948V390.7h19.609l35.897,43.133h0.188
		v-36.457c0-3.383-2.291-5.064-6.478-5.064h-1.813V390.7h17.997v1.611h-1.331c-4.284,0-6.088,2.575-6.088,4.801v57.264h-4.013
		l-44.355-54.066h-0.188v45.438c0,5.072,2.089,5.957,7.42,5.957h0.858v1.611h-17.993V451.704"/>
	<path d="M475.392,451.704h7.713v-59.393h-7.713V390.7h53.222v17.703h-1.718v-1.253c0-8.085-6.377-14.839-17.703-14.839h-11.23
		v27.209h6.566c6.188,0,9.416-3.285,9.416-11.739v-0.98h1.713v28.102h-1.713v-2.041c0-6.315-3.228-11.738-9.416-11.738h-6.566
		v30.581h13.705c15.614,0,17.909-12.089,17.909-17.152v-1.244h1.699v20.008h-55.884V451.704"/>
	<path d="M634.695,412.144h-1.717c-1.524-9.075-9.619-21.26-20.464-21.26c-9.618,0-15.33,8.453-15.33,31.124
		c0,21.61,4.188,31.115,15.033,31.115c12.28,0,19.429-11.379,20.761-18.571l0.56-3.03h1.438v21.794h-1.438
		c-0.367-1.349-1.523-3.652-3.521-3.652c-3.04,0-7.323,5.072-18.746,5.072c-18.852,0-30.082-15.734-30.082-31.659
		c0-15.838,11.791-33.796,31.325-33.796c6.851,0,13.315,4.538,17.327,4.538c1.989,0,3.04-0.806,3.137-2.663h1.717V412.144"/>
	<polyline points="652.618,451.704 660.327,451.704 660.327,392.312 652.618,392.312 652.618,390.7 682.892,390.7 682.892,392.312 
		675.175,392.312 675.175,451.704 682.892,451.704 682.892,453.315 652.618,453.315 652.618,451.704 	"/>
	<path d="M696.409,451.704h1.726c2.943,0,5.711-0.973,5.711-6.396v-47.75l-4.188-5.247h-2.96V390.7h19.613l35.898,43.133h0.184
		v-36.457c0-3.383-2.296-5.064-6.465-5.064h-1.822V390.7h17.992v1.611h-1.322c-4.301,0-6.105,2.575-6.105,4.801v57.264h-3.995
		l-44.359-54.066h-0.193v45.438c0,5.072,2.103,5.957,7.429,5.957h0.858v1.611h-18.001V451.704"/>
	<path d="M774.311,451.704h7.718v-59.393h-7.718V390.7h53.225v17.703h-1.726v-1.253c0-8.085-6.377-14.839-17.703-14.839h-11.23
		v27.209h6.561c6.194,0,9.436-3.285,9.436-11.739v-0.98h1.707v28.102h-1.707v-2.041c0-6.315-3.241-11.738-9.436-11.738h-6.561
		v30.581h13.718c15.602,0,17.888-12.089,17.888-17.152v-1.244h1.718v20.008h-55.889V451.704"/>
	<path d="M846.404,451.704h0.386c6.377,0,7.332-3.819,7.332-7.647v-51.745h-7.244V390.7h24.369l15.813,42.958h0.201l16.083-42.958
		h22.942v1.611h-7.14v59.393h7.14v1.611H896.1v-1.611h8.19v-57.799h-0.192l-22.181,59.41h-2.575l-22.741-60.479h-0.201v50.422
		c0,7.2,1.997,8.445,7.14,8.445h1.331v1.611h-18.466V451.704"/>
	<path d="M971.522,431.608l-8.27-22.495h-0.201l-8.462,22.495H971.522 M938.594,451.704h1.235c3.618-0.263,5.335-2.4,6.474-5.326
		l22.075-57.098h1.437l25.526,62.424h4.66v1.611h-28.383v-1.611h7.622l-6.947-18.492h-18.474l-4.573,12.535
		c-0.28,0.718-0.666,1.691-0.666,2.672c0,2.934,2.681,3.285,4.572,3.285h2.672v1.611h-17.23V451.704z"/>
</g>
</svg>
