<?xml version="1.0" encoding="UTF-8" standalone="no"?>
<!DOCTYPE svg PUBLIC "-//W3C//DTD SVG 1.1//EN" "http://www.w3.org/Graphics/SVG/1.1/DTD/svg11.dtd">
<svg width="100%" height="100%" viewBox="0 0 1104 904" version="1.1" xmlns="http://www.w3.org/2000/svg" xmlns:xlink="http://www.w3.org/1999/xlink" xml:space="preserve" xmlns:serif="http://www.serif.com/" style="fill-rule:evenodd;clip-rule:evenodd;stroke-linejoin:round;stroke-miterlimit:2;">
    <g transform="matrix(1,0,0,1,-222,35.2)">
        <g>
            <g id="Layer-1" serif:id="Layer 1" transform="matrix(1,0,0,1,148.84239,-15.080317)">
                <path id="circle828" d="M752.2,201.5C608.5,201.5 492,318 492,461.8C492,605.5 608.5,722 752.2,722C852,721.9 942.9,664.8 986.3,574.9L1011.4,574.9L1011.4,656.6L1038.5,656.6L1038.5,574.9L1058.2,574.9L1058.2,547.8L1038.5,547.8L1038.5,512.6L1011.4,512.6L1011.4,547.8L997.5,547.8C1007.3,520.2 1012.3,491.1 1012.4,461.8C1012.4,318 895.9,201.5 752.2,201.5ZM752.2,258.1C864.7,258.1 955.8,349.3 955.8,461.7C955.8,574.2 864.6,665.3 752.2,665.3C639.7,665.3 548.6,574.1 548.6,461.7C548.6,349.3 639.7,258.1 752.2,258.1Z" style="fill:white;fill-rule:nonzero;"/>
                <path id="rect831" d="M312,5C179.4,7 110.3,96.5 110.3,96.5L110.3,175C113,168.6 192.7,89.7 224.4,80.1C249.1,68.2 405.4,14.8 427.6,179.2C451.7,358.2 102,600.1 102,600.1L102,657.6L515.2,657.6L515.2,600.1L195.6,600.1C195.6,600.1 496.4,368.9 483.3,186.9C470,2.6 312,5 312,5Z" style="fill:white;fill-rule:nonzero;"/>
                <path id="path849" d="M171.9,757.5L171.9,783C165.2,775.3 156.7,771.4 146.5,771.4C136.2,771.4 127.9,775.2 121.7,782.7C115.6,790.2 112.5,799 112.5,809C112.5,818.7 115.6,827.3 121.8,834.7C128.1,842 136.3,845.7 146.3,845.7C151,845.7 155.6,844.6 160.1,842.5C164.7,840.4 168.6,837.6 171.9,834.1L171.9,859.4C162.2,863.7 153.5,865.9 145.7,865.9C129.8,865.9 116.3,860.3 105.4,849.1C94.6,837.9 89.2,824.7 89.2,809.3C89.2,799 91.6,789.4 96.3,780.5C101,771.6 107.7,764.5 116.5,759.1C125.4,753.7 135.3,751 146.2,751C155.2,751.1 163.7,753.3 171.9,757.5Z" style="fill:white;fill-rule:nonzero;"/>
                <path id="path851" d="M257.6,772.5L220.4,772.5L220.4,796.5L256.3,796.5L256.3,815L220.4,815L220.4,844.5L257.6,844.5L257.6,863L197.8,863L197.8,754L257.6,754L257.6,772.5Z" style="fill:white;fill-rule:nonzero;"/>
                <path id="path853" d="M285.5,863.1L285.5,751.1L301.7,751.1L362.5,827.3L362.8,827.3L362.8,754L385.3,754L385.3,865.2L369.1,865.2L308.4,789L308.1,789L308.1,863L285.5,863.1Z" style="fill:white;fill-rule:nonzero;"/>
                <path id="path855" d="M455,772.5L455,863L432.5,863L432.5,772.5L409.2,772.5L409.2,754L478.3,754L478.3,772.5L455,772.5Z" style="fill:white;fill-rule:nonzero;"/>
                <path id="path857" d="M501.5,819.3L501.5,754L524,754L524,815C524,818.3 524.1,821.2 524.2,823.7C524.4,826.1 524.9,829 525.7,832.2C526.5,835.4 527.6,838 528.9,840C530.2,842 532.2,843.8 534.9,845.2C537.6,846.6 540.7,847.4 544.4,847.4C548.1,847.4 551.2,846.7 553.9,845.2C556.6,843.8 558.5,842 559.9,840C561.2,838 562.3,835.4 563.1,832.2C563.9,828.9 564.4,826.1 564.5,823.7C564.7,821.2 564.8,818.3 564.8,815L564.8,754L587.3,754L587.3,819.2C587.3,833.5 583.8,844.8 576.9,853.3C570,861.7 559.1,865.9 544.4,865.9C529.7,865.9 518.9,861.7 511.9,853.3C505,844.9 501.5,833.5 501.5,819.3Z" style="fill:white;fill-rule:nonzero;"/>
                <path id="path859" d="M660.7,817.1L693.3,863.1L666,863.1L638,819.1L637.7,819.1L637.7,863.1L615.2,863.1L615.2,754L645.7,754C657.8,754 667.2,756.7 674.1,762.1C680.9,767.4 684.4,775.6 684.4,786.8C684.4,794.1 682.3,800.7 678.1,806.6C673.8,812.5 668,815.9 660.7,817.1ZM637.7,771.4L637.7,804.2L640.6,804.2C647.4,804.2 652.7,803 656.2,800.6C659.9,798.1 661.7,793.7 661.7,787.4C661.7,781.1 659.9,776.9 656.2,774.7C652.6,772.5 647.5,771.4 640.7,771.4L637.7,771.4Z" style="fill:white;fill-rule:nonzero;"/>
                <path id="path861" d="M728.4,813L692.5,754L718.7,754L738.9,791.9L761,754L787.4,754L750.9,813L750.9,863L728.4,863L728.4,813Z" style="fill:white;fill-rule:nonzero;"/>
                <path id="path863" d="M934.2,772.5L899.4,772.5L899.4,796.5L932,796.5L932,815L899.4,815L899.4,863L876.9,863L876.9,754L934.2,754L934.2,772.5Z" style="fill:white;fill-rule:nonzero;"/>
                <path id="path865" d="M1048.6,849.2C1037.9,860.4 1024.2,866 1007.7,866C991.1,866 977.5,860.4 966.6,849.2C955.9,837.9 950.5,824.3 950.5,808.4C950.5,792.8 955.9,779.3 966.7,768C977.5,756.7 991.2,751.1 1007.6,751.1C1024.1,751.1 1037.7,756.7 1048.5,768C1059.3,779.3 1064.7,792.7 1064.7,808.4C1064.9,824.3 1059.5,837.9 1048.6,849.2ZM1031.8,783C1025.4,775.8 1017.3,772.2 1007.7,772.2C998.1,772.2 990,775.8 983.5,783C977.1,790.2 973.8,798.4 973.8,807.6C973.8,816.4 977.2,824.8 983.9,832.9C990.6,841 998.6,845 1007.7,845C1016.8,845 1024.7,841 1031.5,832.9C1038.3,824.8 1041.6,816.4 1041.6,807.6C1041.6,798.4 1038.3,790.2 1031.8,783Z" style="fill:white;fill-rule:nonzero;"/>
                <path id="path867" d="M1100.5,805.4L1069.4,754.1L1096.1,754.1L1114.5,787.9L1131.4,754.1L1158.1,754.1L1126.1,805.4L1161.7,863.1L1135.5,863.1L1112.2,823.2L1090.1,863.1L1063.7,863.1L1100.5,805.4Z" style="fill:white;fill-rule:nonzero;"/>
                <g id="flowRoot889" transform="matrix(1.276938,0,0,1.276938,-554.42575,-491.4674)">
                    <path id="path897" d="M1269,740.7L1290.2,740.7L1290.2,824.8L1290.5,824.8C1294.6,819.1 1301.1,816.2 1309.9,816.2C1327,816.2 1335.6,826.6 1335.6,847.5L1335.6,899.1L1314.4,899.1L1314.4,847.9C1314.4,846.9 1314.2,845.2 1313.8,842.9C1313.4,840.5 1312.8,838.8 1312.1,837.8C1311.4,836.7 1310.2,835.7 1308.6,834.8C1307.1,833.8 1305.2,833.3 1302.9,833.3C1300,833.3 1297.6,834 1295.6,835.4C1293.8,836.8 1292.5,838.9 1291.8,841.7C1291.1,844.4 1290.6,846.7 1290.4,848.7C1290.2,850.6 1290.1,853.1 1290.1,856.3L1290.1,899.3L1269,899.3L1269,740.7Z" style="fill:white;fill-rule:nonzero;"/>
                </g>
            </g>
        </g>
    </g>
</svg>
