<?xml version="1.0" encoding="UTF-8" standalone="no"?>
<!DOCTYPE svg PUBLIC "-//W3C//DTD SVG 1.1//EN" "http://www.w3.org/Graphics/SVG/1.1/DTD/svg11.dtd">
<svg width="100%" height="100%" viewBox="0 0 1000 822" version="1.1" xmlns="http://www.w3.org/2000/svg" xmlns:xlink="http://www.w3.org/1999/xlink" xml:space="preserve" xmlns:serif="http://www.serif.com/" style="fill-rule:evenodd;clip-rule:evenodd;stroke-linejoin:round;stroke-miterlimit:2;">
    <g id="Layer-1" serif:id="Layer 1" transform="matrix(1,0,0,1,0,-231.20127)">
        <g transform="matrix(1,0,0,1,0,231.20127)">
            <rect x="0" y="0" width="1000" height="821.16" style="fill:rgb(235,235,235);"/>
        </g>
        <g id="g10" transform="matrix(5.824702,0,0,-5.824702,-61.120929,1203.6589)">
            <g id="g12" transform="matrix(0.1,0,0,0.1,0,0)">
                <path id="path16" d="M273.59,676.629C275.316,661.063 264.941,642.902 248.504,634.254C237.262,629.063 224.289,625.602 211.313,629.063C189.691,635.98 174.125,656.738 172.395,679.227C174.988,684.414 170.664,693.93 178.449,696.523L273.59,676.629ZM1748.25,734.578C1750.84,712.957 1743.05,692.199 1724.03,680.09C1712.79,674.902 1698.95,670.578 1685.97,674.035C1669.54,680.09 1650.51,695.66 1649.65,713.82L1649.65,718.145C1683.38,721.605 1714.52,730.254 1748.25,734.578ZM1274.28,1368.55L1315.79,1378.07L1315.79,1339.14L1275.14,1327.9L1275.14,1231.03L1237.09,1221.52L1237.09,1397.09L1274.28,1406.61L1274.28,1368.55ZM1016.54,1472.34C957.727,1484.45 908.426,1452.45 870.371,1409.2C844.426,1378.07 834.906,1329.63 851.344,1291.57C864.316,1266.5 889.398,1251.79 914.48,1244.01C977.617,1233.63 1034.7,1265.63 1069.3,1318.39C1090.92,1351.25 1093.52,1404.01 1069.3,1436.88C1055.46,1455.91 1036.43,1466.29 1016.54,1472.34ZM251.102,357.484L335.859,368.727C335.859,368.727 326.348,375.645 309.914,395.539C293.48,416.297 281.371,455.215 301.266,494.137C320.293,533.059 352.297,555.547 398.133,562.465L1480.99,690.469L1670.41,619.547L1670.41,639.438C1671.27,646.359 1679.05,645.496 1683.38,648.957C1705.86,650.684 1745.65,655.875 1747.38,637.711L1747.38,438.785L1821.76,430.137L1821.76,1666.94L1615.91,1666.94L1639.27,1439.47C1639.27,1439.47 1708.46,766.582 1709.32,757.93C1710.19,746.688 1705.86,741.5 1696.35,739.77C1686.84,738.039 1679.05,740.633 1675.59,747.555L1638.4,905.832L1474.07,969.832L1301.96,806.367L1301.96,804.637C1347.79,776.961 1439.48,719.012 1439.48,719.012L1307.14,701.715L1231.9,743.227L1167.9,684.414C1167.9,684.414 1079.68,671.441 1035.57,668.848C1073.62,706.902 1116.87,746.688 1156.65,783.879C1096.97,819.34 1036.43,852.203 976.754,886.801C949.941,882.477 921.398,879.883 896.316,873.828C926.59,872.098 952.535,860.855 977.617,847.883C1014.81,826.258 1052,789.07 1045.08,741.5C1039.89,710.363 1017.4,679.227 987.996,662.793C892.855,651.551 797.719,635.117 701.715,629.063C676.633,638.574 648.09,656.738 637.711,684.414C621.277,731.984 647.227,776.094 681.824,808.094C658.469,815.879 633.387,822.797 610.035,831.445L610.035,773.5L479.434,751.016L479.434,702.578L599.656,721.605L599.656,663.66L479.434,646.359L479.434,602.25L396.406,591.871L396.406,776.094L369.594,786.473L370.457,822.797L1476.67,1015.67L1627.16,955.129L1579.59,1161.84C1544.99,1180 1518.18,1191.25 1480.99,1206.82L1406.61,1090.92L1406.61,1026.91L1349.53,1015.67L1349.53,1084L1316.66,1121.19C1295.04,1126.38 1261.31,1141.95 1241.41,1146.27C1255.25,1141.08 1276.01,1123.79 1280.33,1105.62C1284.66,1083.14 1273.41,1062.38 1255.25,1050.27C1274.28,1037.3 1314.07,1010.48 1314.07,1010.48L1246.61,999.238L1192.11,1036.43L1192.11,987.996L1138.49,979.348L1138.49,1096.11L1094.38,1114.27C1094.38,1114.27 1096.11,1041.62 1094.38,1007.89C1090.92,987.996 1084,974.156 1071.89,967.238L999.242,954.262C983.672,955.129 975.023,970.695 970.699,991.453C966.375,1022.59 968.969,1063.24 968.105,1084L943.887,1090.92L943.887,1049.4L906.695,1041.62L906.695,937.832L862.586,930.047L862.586,1032.97L823.664,1024.32L824.531,1053.73L801.18,1061.51L800.313,918.801L752.742,910.152L694.793,968.102L694.793,898.91L650.684,891.992L651.551,1016.54L619.547,1027.78L619.547,994.914L564.195,981.941L564.195,955.129L615.223,965.508L615.223,938.695L565.063,927.453L565.926,902.371L621.277,912.75L621.277,886.801L520.082,867.773L520.082,965.508C506.246,969.832 499.328,975.023 462.137,981.078C479.434,976.75 489.813,972.43 495.867,954.262C484.625,946.48 475.973,942.156 464.73,934.371C458.676,942.156 449.164,943.887 438.785,943.02C430.137,938.695 424.078,932.641 419.758,923.992C415.43,914.48 417.16,901.504 420.621,891.992C424.945,881.613 436.191,876.426 447.434,876.426C459.543,878.152 467.324,891.992 472.516,900.641C484.625,896.316 495.004,891.129 506.246,885.938C500.191,872.098 492.41,865.18 482.027,860.855C460.406,855.668 430.137,850.477 407.648,847.02C392.078,855.668 381.703,872.965 377.375,889.395C373.051,915.344 376.512,943.887 398.133,962.047C387.754,967.238 380.836,969.832 369.594,974.156L369.594,1005.29L1234.49,1198.16C1315.79,1216.33 1479.26,1253.52 1479.26,1253.52L1565.75,1215.46L1532.02,1359.04C1532.02,1359.04 1473.21,1384.12 1447.26,1395.36C1461.96,1387.58 1456.77,1310.61 1457.64,1271.68L1419.58,1262.17L1419.58,1357.31C1419.58,1357.31 1422.18,1365.09 1412.66,1369.42C1402.29,1373.74 1393.64,1363.36 1388.45,1356.44L1388.45,1255.25L1349.53,1246.6L1349.53,1430.82C1276.01,1462.82 1202.49,1495.69 1128.11,1526.83C1154.06,1503.48 1173.95,1474.93 1182.6,1442.93C1206.82,1338.28 1152.33,1244.01 1066.7,1183.46L904.102,1145.41C856.531,1146.27 810.691,1164.44 778.691,1203.36C738.906,1252.66 733.719,1335.68 758.797,1394.5C741.5,1403.15 723.336,1414.39 706.902,1420.45C779.555,1304.55 642.902,1224.98 583.223,1139.35C631.66,1151.46 730.254,1172.22 730.254,1172.22L729.391,1105.62L403.32,1032.97L403.32,1071.89L535.656,1221.52C566.789,1257.85 602.25,1290.71 626.469,1330.5C629.063,1342.61 628.195,1356.44 616.09,1364.23C604.844,1373.74 585.816,1372.01 571.113,1370.28C542.57,1361.63 512.301,1336.55 511.434,1304.55L405.055,1280.33C415.43,1354.71 475.109,1435.15 548.625,1458.5C631.66,1493.1 724.199,1423.91 765.719,1407.47L788.203,1445.53C847.02,1527.69 934.371,1579.59 1038.16,1566.61C1096.97,1558.83 1259.57,1480.13 1350.39,1442.07L1350.39,1515.59L1388.45,1522.5L1506.07,1468.88L1461.96,1666.94L427.543,1666.94L282.238,890.262L251.102,724.199L245.047,713.82C240.723,709.496 232.938,707.77 226.883,710.363C220.832,712.957 213.91,719.875 214.777,727.66L250.238,1669.54L105.797,1669.54L104.934,334.996L177.586,346.238L177.586,584.953C176.719,599.656 200.938,601.383 213.91,602.25C226.883,603.113 250.238,601.383 251.102,584.953L251.102,357.484ZM1388.45,1512.99L1388.45,1386.71C1388.45,1386.71 1386.72,1390.18 1399.69,1402.28C1413.53,1413.53 1417.85,1412.66 1429.1,1413.53L1529.43,1369.42L1507.8,1459.37L1388.45,1512.99ZM1480.13,652.414L601.387,558.141L1670.41,446.566L1670.41,582.359L1480.13,652.414ZM1331.36,1170.49L1377.2,1120.32L1394.5,1147.14L1331.36,1170.49ZM1047.67,1085.73L1013.08,1096.97C1013.08,1096.97 1012.21,1008.75 1013.95,1000.97C1016.54,993.188 1024.32,987.996 1032.97,989.727C1040.76,992.32 1045.95,1000.1 1047.67,1007.02L1047.67,1085.73ZM1206.82,1105.62C1196.44,1104.76 1190.38,1103.89 1190.38,1103.89L1190.38,1070.16C1190.38,1070.16 1204.22,1071.03 1215.46,1075.35C1226.71,1079.68 1226.71,1088.32 1225.84,1093.51C1225.84,1097.84 1222.38,1107.35 1206.82,1105.62ZM692.199,1038.16L758.797,964.645L758.797,1019.13L692.199,1038.16ZM1122.92,914.48L1229.3,849.609L1285.52,899.777L1122.92,914.48ZM827.988,805.5C786.477,797.719 735.445,779.555 725.066,731.984C725.066,719.875 732.848,710.363 742.367,704.309C792.531,676.629 863.449,684.414 909.293,716.418C925.723,729.391 941.293,747.555 936.965,769.176C914.48,807.23 868.641,804.637 827.988,805.5ZM523.543,542.57C476.84,545.164 404.188,545.164 366.133,520.082C335.859,498.461 317.699,469.918 326.348,431.863C332.402,409.375 354.891,387.754 375.648,376.508C392.945,367.859 411.973,361.805 431,354.891C317.699,339.32 219.098,322.02 104.934,308.184L104.934,260.613L1821.76,259.75L1821.76,399L523.543,542.57"/>
            </g>
            <g id="g101" serif:id="g10">
                <g id="g121" serif:id="g12" transform="matrix(0.1,0,0,0.1,0,0)">
                    <path id="path161" serif:id="path16" d="M273.59,676.629C275.316,661.063 264.941,642.902 248.504,634.254C237.262,629.063 224.289,625.602 211.313,629.063C189.691,635.98 174.125,656.738 172.395,679.227C174.988,684.414 170.664,693.93 178.449,696.523L273.59,676.629ZM1748.25,734.578C1750.84,712.957 1743.05,692.199 1724.03,680.09C1712.79,674.902 1698.95,670.578 1685.97,674.035C1669.54,680.09 1650.51,695.66 1649.65,713.82L1649.65,718.145C1683.38,721.605 1714.52,730.254 1748.25,734.578ZM1274.28,1368.55L1315.79,1378.07L1315.79,1339.14L1275.14,1327.9L1275.14,1231.03L1237.09,1221.52L1237.09,1397.09L1274.28,1406.61L1274.28,1368.55ZM1016.54,1472.34C957.727,1484.45 908.426,1452.45 870.371,1409.2C844.426,1378.07 834.906,1329.63 851.344,1291.57C864.316,1266.5 889.398,1251.79 914.48,1244.01C977.617,1233.63 1034.7,1265.63 1069.3,1318.39C1090.92,1351.25 1093.52,1404.01 1069.3,1436.88C1055.46,1455.91 1036.43,1466.29 1016.54,1472.34ZM251.102,357.484L335.859,368.727C335.859,368.727 326.348,375.645 309.914,395.539C293.48,416.297 281.371,455.215 301.266,494.137C320.293,533.059 352.297,555.547 398.133,562.465L1480.99,690.469L1670.41,619.547L1670.41,639.438C1671.27,646.359 1679.05,645.496 1683.38,648.957C1705.86,650.684 1745.65,655.875 1747.38,637.711L1747.38,438.785L1821.76,430.137L1821.76,1666.94L1615.91,1666.94L1639.27,1439.47C1639.27,1439.47 1708.46,766.582 1709.32,757.93C1710.19,746.688 1705.86,741.5 1696.35,739.77C1686.84,738.039 1679.05,740.633 1675.59,747.555L1638.4,905.832L1474.07,969.832L1301.96,806.367L1301.96,804.637C1347.79,776.961 1439.48,719.012 1439.48,719.012L1307.14,701.715L1231.9,743.227L1167.9,684.414C1167.9,684.414 1079.68,671.441 1035.57,668.848C1073.62,706.902 1116.87,746.688 1156.65,783.879C1096.97,819.34 1036.43,852.203 976.754,886.801C949.941,882.477 921.398,879.883 896.316,873.828C926.59,872.098 952.535,860.855 977.617,847.883C1014.81,826.258 1052,789.07 1045.08,741.5C1039.89,710.363 1017.4,679.227 987.996,662.793C892.855,651.551 797.719,635.117 701.715,629.063C676.633,638.574 648.09,656.738 637.711,684.414C621.277,731.984 647.227,776.094 681.824,808.094C658.469,815.879 633.387,822.797 610.035,831.445L610.035,773.5L479.434,751.016L479.434,702.578L599.656,721.605L599.656,663.66L479.434,646.359L479.434,602.25L396.406,591.871L396.406,776.094L369.594,786.473L370.457,822.797L1476.67,1015.67L1627.16,955.129L1579.59,1161.84C1544.99,1180 1518.18,1191.25 1480.99,1206.82L1406.61,1090.92L1406.61,1026.91L1349.53,1015.67L1349.53,1084L1316.66,1121.19C1295.04,1126.38 1261.31,1141.95 1241.41,1146.27C1255.25,1141.08 1276.01,1123.79 1280.33,1105.62C1284.66,1083.14 1273.41,1062.38 1255.25,1050.27C1274.28,1037.3 1314.07,1010.48 1314.07,1010.48L1246.61,999.238L1192.11,1036.43L1192.11,987.996L1138.49,979.348L1138.49,1096.11L1094.38,1114.27C1094.38,1114.27 1096.11,1041.62 1094.38,1007.89C1090.92,987.996 1084,974.156 1071.89,967.238L999.242,954.262C983.672,955.129 975.023,970.695 970.699,991.453C966.375,1022.59 968.969,1063.24 968.105,1084L943.887,1090.92L943.887,1049.4L906.695,1041.62L906.695,937.832L862.586,930.047L862.586,1032.97L823.664,1024.32L824.531,1053.73L801.18,1061.51L800.313,918.801L752.742,910.152L694.793,968.102L694.793,898.91L650.684,891.992L651.551,1016.54L619.547,1027.78L619.547,994.914L564.195,981.941L564.195,955.129L615.223,965.508L615.223,938.695L565.063,927.453L565.926,902.371L621.277,912.75L621.277,886.801L520.082,867.773L520.082,965.508C506.246,969.832 499.328,975.023 462.137,981.078C479.434,976.75 489.813,972.43 495.867,954.262C484.625,946.48 475.973,942.156 464.73,934.371C458.676,942.156 449.164,943.887 438.785,943.02C430.137,938.695 424.078,932.641 419.758,923.992C415.43,914.48 417.16,901.504 420.621,891.992C424.945,881.613 436.191,876.426 447.434,876.426C459.543,878.152 467.324,891.992 472.516,900.641C484.625,896.316 495.004,891.129 506.246,885.938C500.191,872.098 492.41,865.18 482.027,860.855C460.406,855.668 430.137,850.477 407.648,847.02C392.078,855.668 381.703,872.965 377.375,889.395C373.051,915.344 376.512,943.887 398.133,962.047C387.754,967.238 380.836,969.832 369.594,974.156L369.594,1005.29L1234.49,1198.16C1315.79,1216.33 1479.26,1253.52 1479.26,1253.52L1565.75,1215.46L1532.02,1359.04C1532.02,1359.04 1473.21,1384.12 1447.26,1395.36C1461.96,1387.58 1456.77,1310.61 1457.64,1271.68L1419.58,1262.17L1419.58,1357.31C1419.58,1357.31 1422.18,1365.09 1412.66,1369.42C1402.29,1373.74 1393.64,1363.36 1388.45,1356.44L1388.45,1255.25L1349.53,1246.6L1349.53,1430.82C1276.01,1462.82 1202.49,1495.69 1128.11,1526.83C1154.06,1503.48 1173.95,1474.93 1182.6,1442.93C1206.82,1338.28 1152.33,1244.01 1066.7,1183.46L904.102,1145.41C856.531,1146.27 810.691,1164.44 778.691,1203.36C738.906,1252.66 733.719,1335.68 758.797,1394.5C741.5,1403.15 723.336,1414.39 706.902,1420.45C779.555,1304.55 642.902,1224.98 583.223,1139.35C631.66,1151.46 730.254,1172.22 730.254,1172.22L729.391,1105.62L403.32,1032.97L403.32,1071.89L535.656,1221.52C566.789,1257.85 602.25,1290.71 626.469,1330.5C629.063,1342.61 628.195,1356.44 616.09,1364.23C604.844,1373.74 585.816,1372.01 571.113,1370.28C542.57,1361.63 512.301,1336.55 511.434,1304.55L405.055,1280.33C415.43,1354.71 475.109,1435.15 548.625,1458.5C631.66,1493.1 724.199,1423.91 765.719,1407.47L788.203,1445.53C847.02,1527.69 934.371,1579.59 1038.16,1566.61C1096.97,1558.83 1259.57,1480.13 1350.39,1442.07L1350.39,1515.59L1388.45,1522.5L1506.07,1468.88L1461.96,1666.94L427.543,1666.94L282.238,890.262L251.102,724.199L245.047,713.82C240.723,709.496 232.938,707.77 226.883,710.363C220.832,712.957 213.91,719.875 214.777,727.66L250.238,1669.54L105.797,1669.54L104.934,334.996L177.586,346.238L177.586,584.953C176.719,599.656 200.938,601.383 213.91,602.25C226.883,603.113 250.238,601.383 251.102,584.953L251.102,357.484ZM1388.45,1512.99L1388.45,1386.71C1388.45,1386.71 1386.72,1390.18 1399.69,1402.28C1413.53,1413.53 1417.85,1412.66 1429.1,1413.53L1529.43,1369.42L1507.8,1459.37L1388.45,1512.99ZM1480.13,652.414L601.387,558.141L1670.41,446.566L1670.41,582.359L1480.13,652.414ZM1331.36,1170.49L1377.2,1120.32L1394.5,1147.14L1331.36,1170.49ZM1047.67,1085.73L1013.08,1096.97C1013.08,1096.97 1012.21,1008.75 1013.95,1000.97C1016.54,993.188 1024.32,987.996 1032.97,989.727C1040.76,992.32 1045.95,1000.1 1047.67,1007.02L1047.67,1085.73ZM1206.82,1105.62C1196.44,1104.76 1190.38,1103.89 1190.38,1103.89L1190.38,1070.16C1190.38,1070.16 1204.22,1071.03 1215.46,1075.35C1226.71,1079.68 1226.71,1088.32 1225.84,1093.51C1225.84,1097.84 1222.38,1107.35 1206.82,1105.62ZM692.199,1038.16L758.797,964.645L758.797,1019.13L692.199,1038.16ZM1122.92,914.48L1229.3,849.609L1285.52,899.777L1122.92,914.48ZM827.988,805.5C786.477,797.719 735.445,779.555 725.066,731.984C725.066,719.875 732.848,710.363 742.367,704.309C792.531,676.629 863.449,684.414 909.293,716.418C925.723,729.391 941.293,747.555 936.965,769.176C914.48,807.23 868.641,804.637 827.988,805.5ZM523.543,542.57C476.84,545.164 404.188,545.164 366.133,520.082C335.859,498.461 317.699,469.918 326.348,431.863C332.402,409.375 354.891,387.754 375.648,376.508C392.945,367.859 411.973,361.805 431,354.891C317.699,339.32 219.098,322.02 104.934,308.184L104.934,260.613L1821.76,259.75L1821.76,399L523.543,542.57"/>
                </g>
            </g>
        </g>
    </g>
</svg>
