<svg xmlns="http://www.w3.org/2000/svg" xmlns:xlink="http://www.w3.org/1999/xlink" xmlns:serif="http://www.serif.com/" version="1.1" xml:space="preserve" style="fill-rule:evenodd;clip-rule:evenodd;stroke-linejoin:round;stroke-miterlimit:2;" viewBox="0 0 379.7 155.8">
    <path d="M325.2,113.5L272,113.5L325.2,54.4L325.2,113.5ZM368.7,113.5L368.7,0L262.8,117.6L181.5,117.6C178,117.6 175.2,114.8 175.2,111.3C175.2,108.9 176.5,106.9 178.4,105.8C178.5,105.8 178.5,105.7 178.6,105.7C186.8,101.5 194.7,99.3 199.2,98L200.6,97.6C203.3,96.8 206.7,96.1 210.2,95.3C211.4,95 212.7,94.7 214,94.5C235.5,89.6 264.6,81.2 264.6,46.9C264.6,39.3 262.7,31.6 258.3,24.7C251.3,13.7 238.1,4.8 216.5,2.2C212.3,1.7 207.7,1.4 202.8,1.4C169.3,1.4 146.7,19 145.9,45.4L145.9,46.8C145.9,61.4 157.7,73.2 172.3,73.2C186.9,73.2 198.7,61.3 198.7,46.8C198.7,32.2 186.9,20.4 172.3,20.4C171.5,20.4 170.7,20.4 169.9,20.5L169.8,20.5C164.4,21 159.4,23.2 155.5,26.4C158.5,21.7 162.6,17.7 167.6,14.4C167.7,14.4 167.7,14.3 167.8,14.3C176.8,8.5 188.8,5.3 202.9,5.3C204.4,5.3 205.9,5.3 207.3,5.4L208.2,5.4C211.3,5.8 213.7,8.4 213.7,11.6L213.7,84.8C213.7,88.2 211.3,91.1 208.2,91.9C208,91.9 207.9,92 207.7,92C204.7,92.6 202,93.3 199.6,94L198.3,94.4C191.8,96.2 178.3,100 166.4,109.1C162.2,112.3 158.6,115.8 155.5,119.7C147.7,129.6 143.8,141.7 143.8,155.8L228.7,155.8L263,117.7L325.3,117.7L325.3,155.8L368.8,155.8L368.8,117.7L379.7,117.7L379.7,113.6L368.7,113.6M22,118.3L48.8,61L75.5,118.3L22,118.3ZM57.7,32.2C52.3,43.5 41.1,44.7 41.1,44.7L46.5,56.2L46.5,56.3L0,155.7L4.5,155.7L20.1,122.4L77.4,122.4L92.9,155.7L140.9,155.7L70.6,4.7L57.7,32.2" style="fill:white;fill-rule:nonzero;"/>
</svg>