<?xml version="1.0" encoding="UTF-8" standalone="no"?>
<!DOCTYPE svg PUBLIC "-//W3C//DTD SVG 1.1//EN" "http://www.w3.org/Graphics/SVG/1.1/DTD/svg11.dtd">
<svg width="100%" height="100%" viewBox="0 0 1001 286" version="1.1" xmlns="http://www.w3.org/2000/svg" xmlns:xlink="http://www.w3.org/1999/xlink" xml:space="preserve" xmlns:serif="http://www.serif.com/" style="fill-rule:evenodd;clip-rule:evenodd;stroke-linejoin:round;stroke-miterlimit:2;">
    <g>
        <path d="M39.015,121.131L37.682,120.078L38.932,118.88C45.778,112.396 45.778,109.049 45.717,101.015L45.717,83.811C45.717,71.109 41.235,67.66 24.847,67.66L0,67.66C1.942,72.389 2.221,74.785 2.221,79.969L2.221,167.931C2.221,173.116 1.942,175.511 0.022,180.261L24.847,180.261C41.431,180.261 45.717,176.915 45.717,164.089L45.717,137.302C45.737,129.826 45.757,126.418 39.015,121.131M31.042,160.992C31.042,165.019 30.516,168.944 24.279,168.944L16.916,168.944L16.916,126.48L24.279,126.48C30.516,126.48 31.042,130.404 31.042,134.452L31.042,160.992ZM31.042,107.066C31.042,111.114 30.516,115.039 24.279,115.039L16.916,115.039L16.916,79.412L24.279,79.412C30.516,79.412 31.042,83.336 31.042,87.385L31.042,107.066Z" style="fill:white;fill-rule:nonzero;"/>
        <path d="M122.103,169.087L122.103,79.969C122.103,74.764 122.382,72.347 124.405,67.66L105.187,67.66C107.149,72.369 107.428,74.785 107.428,79.969L107.428,167.951C107.428,173.115 107.149,175.49 105.208,180.261L141.154,180.261L141.154,167.497C136.909,168.881 133.059,169.087 123.558,169.087" style="fill:white;fill-rule:nonzero;"/>
        <path d="M240.166,79.99C240.166,74.806 240.424,72.39 242.365,67.66L223.251,67.66C225.193,72.389 225.471,74.806 225.471,79.99L225.471,161.446C225.471,168.737 221.62,170.306 218.408,170.306C214.091,170.306 211.324,166.816 211.324,161.446L211.324,79.99C211.324,74.785 211.634,72.37 213.647,67.66L194.44,67.66C196.371,72.389 196.639,74.806 196.639,79.99L196.639,163.057C196.639,170.844 198.735,174.086 202.815,177.825C206.098,180.406 212.015,181.997 218.491,181.997C225.007,181.997 230.82,180.427 234.032,177.783C238.648,173.715 240.166,170.121 240.166,163.057" style="fill:white;fill-rule:nonzero;"/>
        <path d="M376.457,68.548L352.344,68.548L338.073,143.064L323.264,67.64L300.236,67.64C301.992,72.058 302.251,74.433 302.251,79.577L302.251,167.931C302.251,173.053 301.992,175.408 300.236,179.827L316.48,179.827C314.746,175.511 314.343,173.012 314.343,167.931L314.343,82.613L332.931,179.828L343.278,179.828L362.052,81.519L362.052,167.931C362.052,172.991 361.608,175.491 359.894,179.827L376.117,179.827C374.383,175.407 374.114,173.053 374.114,167.931L374.114,80.919C374.112,74.62 374.681,72.885 376.457,68.548" style="fill:white;fill-rule:nonzero;"/>
        <path d="M694.805,70.138C691.593,67.474 685.821,65.884 679.408,65.884C672.985,65.884 667.213,67.475 663.991,70.138C659.593,74 657.992,77.718 657.992,84.43L657.992,163.077C657.992,170.698 660.036,173.962 664.063,177.576C667.233,180.116 672.985,181.685 679.408,181.685C685.821,181.685 691.594,180.116 694.827,177.513C699.298,173.61 700.672,170.202 700.672,163.076L700.672,84.43C700.671,77.326 699.225,73.855 694.805,70.138M686.946,161.446C686.946,169.894 681.565,170.802 679.243,170.802C674.678,170.802 671.858,167.229 671.858,161.446L671.858,86.207C671.858,81.89 673.81,76.851 679.243,76.851C684.127,76.851 686.946,80.279 686.946,86.207L686.946,161.446Z" style="fill:white;fill-rule:nonzero;"/>
        <path d="M790.914,79.577L790.914,161.383C790.914,169.108 786.835,170.698 783.407,170.698C777.851,170.698 775.858,165.679 775.858,161.383L775.858,79.577C775.858,74.393 776.137,72.018 777.954,67.64L759.976,67.64C761.731,72.058 761.989,74.413 761.989,79.577L761.989,162.994C761.989,170.615 764.034,173.858 768.03,177.493C771.272,180.033 777.046,181.561 783.5,181.561C789.923,181.561 795.655,180.013 798.804,177.43C803.4,173.424 804.793,170.036 804.793,162.993L804.793,79.577C804.793,74.413 805.041,72.058 806.797,67.64L788.932,67.64C790.667,72.059 790.914,74.414 790.914,79.577" style="fill:white;fill-rule:nonzero;"/>
        <path d="M895.079,121.359L889.574,114.543C888.666,113.387 887.87,112.396 887.148,111.487C883.151,106.592 881.137,104.134 881.137,98.641L881.137,83.583C881.137,79.557 883.276,76.954 886.62,76.954C889.915,76.954 892.496,79.867 892.496,83.583L892.517,87.074C892.558,92.569 892.558,94.695 891.628,98.495L905.931,98.495C904.97,94.655 905.022,91.886 905.022,88.396L905.043,85.566C905.043,80.672 905.064,76.459 902.946,72.802C900.179,68.135 895.357,65.864 888.22,65.864C886.888,65.864 885.65,65.925 884.524,66.028C878.204,66.566 867.433,70.779 867.433,83.005L867.433,100.437C867.433,110.061 869.787,112.871 876.737,121.151L876.996,121.462C877.843,122.495 878.793,123.568 879.763,124.745L885.205,131.643C891.102,138.666 892.518,140.339 892.518,147.381L892.518,164.193C892.518,168.22 890.318,170.864 886.91,170.864C883.575,170.864 881.158,168.055 881.158,164.193L881.137,160.456C881.116,154.797 881.096,151.719 881.984,147.526L867.734,147.526C868.683,151.864 868.663,155.705 868.643,159.484L868.601,163.222C868.518,168.716 868.405,173.9 874.631,178.257C877.461,180.405 881.902,181.665 886.826,181.665C889.605,181.665 892.331,181.272 894.272,180.529C897.866,179.269 906.22,175.386 906.22,167.002L906.22,144.86C906.22,134.761 905.228,133.584 898.847,125.922C897.578,124.415 896.411,122.99 895.079,121.359" style="fill:white;fill-rule:nonzero;"/>
        <path d="M1000.131,67.64L966.61,67.64C968.367,72.058 968.615,74.433 968.615,79.577L968.615,167.931C968.615,173.053 968.367,175.408 966.61,179.827L1000.131,179.827L1000.131,167.828C995.816,169.336 994.039,169.356 986.211,169.5L982.494,169.521L982.494,78.255L987.48,78.255C994.224,78.255 996.114,78.379 1000.13,79.803" style="fill:white;fill-rule:nonzero;"/>
        <path d="M987.749,126.976C988.812,126.769 993.615,124.146 994.647,123.465C996.104,122.494 997.672,121.523 999.532,121.648L999.532,108.491C998.623,109.091 997.756,109.937 996.868,110.763C995.216,112.333 989.742,115.886 987.749,116.298" style="fill:white;fill-rule:nonzero;"/>
        <path d="M238.359,249.532L238.359,248.748C238.38,245.836 238.38,243.544 236.346,241.436C234.311,239.371 231.037,239.082 228.074,239.082L220.246,239.103C220.969,240.9 221.052,241.87 221.052,243.915L221.052,279.583C221.052,281.628 220.969,282.598 220.246,284.395L227.505,284.395C226.761,282.62 226.658,281.628 226.658,279.583L226.658,268.203L227.443,268.203C227.629,268.203 227.908,268.203 228.269,268.224C228.734,268.245 229.282,268.265 229.89,268.265C232.111,268.265 233.742,267.914 234.806,267.234C238.421,264.899 238.379,261.781 238.359,257.795M232.752,260.478C232.752,262.13 232.514,263.886 229.83,263.886L226.659,263.886L226.659,243.501L229.83,243.501C232.535,243.501 232.752,245.277 232.752,246.908L232.752,260.478Z" style="fill:white;fill-rule:nonzero;"/>
        <path d="M296.136,278.549L296.136,267.273C296.157,264.96 296.157,263.824 294.319,261.285L293.937,260.808L294.36,260.333C295.713,258.805 296.136,257.771 296.136,256.1L296.157,247.942C296.157,244.926 296.209,243.109 294.319,241.127C292.315,239.021 288.567,239.062 286.16,239.082L285.355,239.103L278.033,239.103C278.756,240.9 278.859,241.87 278.859,243.935L278.859,279.582C278.859,281.627 278.756,282.597 278.033,284.394L285.292,284.394C284.569,282.619 284.466,281.627 284.466,279.582L284.466,262.605L285.23,262.605C289.537,262.605 290.559,263.018 290.559,267.045L290.559,284.414L296.982,284.414C296.269,282.286 296.249,281.439 296.208,279.85C296.209,279.479 296.157,279.045 296.136,278.549M290.56,255.068C290.56,258.31 288.319,258.31 285.231,258.31L284.467,258.31L284.467,243.315L286.491,243.315C287.514,243.315 290.56,243.315 290.56,246.537L290.56,255.068Z" style="fill:white;fill-rule:nonzero;"/>
        <path d="M351.146,240.052C349.885,238.999 347.531,238.337 344.929,238.337C342.326,238.337 340.003,238.999 338.712,240.052C336.936,241.621 336.285,243.109 336.285,245.835L336.285,277.599C336.285,280.677 337.101,281.979 338.733,283.444C340.004,284.477 342.326,285.138 344.929,285.138C347.531,285.138 349.885,284.477 351.146,283.444C352.943,281.854 353.521,280.471 353.521,277.599L353.521,245.835C353.521,242.985 352.922,241.56 351.146,240.052M347.976,276.938C347.976,280.326 345.797,280.74 344.868,280.74C343.031,280.74 341.883,279.273 341.883,276.938L341.883,246.579C341.883,244.823 342.669,242.758 344.868,242.758C346.861,242.758 347.976,244.142 347.976,246.579L347.976,276.938Z" style="fill:white;fill-rule:nonzero;"/>
        <path d="M401.984,239.103L393,239.103C393.691,240.9 393.826,241.89 393.826,243.915L393.826,279.604C393.826,281.627 393.691,282.597 393,284.394L399.34,284.394C403.511,284.394 406.361,284.23 408.5,282.04C410.234,280.368 411.103,277.745 411.103,274.234L411.103,247.549C411.103,240.754 409.326,239.103 401.984,239.103M405.495,276.691C405.495,278.343 405.268,280.099 402.583,280.099L399.403,280.099L399.403,243.501L402.583,243.501C405.269,243.501 405.495,245.277 405.495,246.908L405.495,276.691Z" style="fill:white;fill-rule:nonzero;"/>
        <path d="M463.407,244.059L463.407,276.96C463.407,279.912 461.858,280.553 460.546,280.553C458.811,280.553 457.675,279.128 457.675,276.96L457.675,244.059C457.675,241.994 457.799,241.002 458.625,239.103L450.859,239.103C451.664,241.023 451.747,241.994 451.747,244.059L451.747,277.621C451.747,280.761 452.574,282.082 454.247,283.59C455.579,284.644 457.964,285.263 460.587,285.263C463.211,285.263 465.554,284.644 466.845,283.59C468.735,281.917 469.323,280.491 469.323,277.621L469.323,244.059C469.323,241.994 469.426,241.023 470.212,239.103L462.487,239.103C463.292,241.023 463.407,241.994 463.407,244.059" style="fill:white;fill-rule:nonzero;"/>
        <path d="M520.822,267.459C521.225,269.338 521.225,271.259 521.205,274.791L521.205,276.937C521.205,279.437 520.172,280.717 518.116,280.717C516.279,280.717 515.111,279.272 515.111,276.937L515.111,246.578C515.111,244.244 516.299,242.778 518.116,242.778C520.079,242.778 521.205,244.14 521.205,246.578L521.205,248.953C521.205,250.523 521.059,252.341 520.78,253.766L527.1,253.766C526.718,252.196 526.718,251.08 526.748,249.656L526.769,245.836C526.769,243.006 526.169,241.602 524.312,240.031C523.061,238.978 520.759,238.359 518.157,238.359C515.555,238.359 513.252,238.978 511.94,240.073C510.35,241.458 509.503,242.737 509.503,245.836L509.503,277.6C509.503,280.699 510.35,281.98 511.981,283.445C513.23,284.478 515.554,285.139 518.157,285.139C520.76,285.139 523.061,284.478 524.332,283.425C525.923,282.04 526.77,280.74 526.77,277.6L526.749,272.933C526.719,270.724 526.719,269.112 527.101,267.46" style="fill:white;fill-rule:nonzero;"/>
        <path d="M563.471,243.873C564.721,243.336 566.011,243.336 568.356,243.336L569.099,243.336L569.099,279.583C569.099,281.628 568.996,282.598 568.294,284.395L575.502,284.395C574.831,282.598 574.706,281.628 574.706,279.583L574.706,243.336L575.46,243.336C577.814,243.336 579.085,243.336 580.345,243.873L580.345,239.103L563.471,239.103" style="fill:white;fill-rule:nonzero;"/>
        <path d="M625.751,239.103L618.491,239.103C619.214,240.9 619.297,241.89 619.297,243.915L619.297,279.604C619.297,281.627 619.214,282.597 618.512,284.394L625.772,284.394C625.028,282.619 624.925,281.627 624.925,279.604L624.925,243.915C624.925,241.87 625.027,240.877 625.751,239.103" style="fill:white;fill-rule:nonzero;"/>
        <path d="M680.141,240.052C678.829,238.999 676.496,238.337 673.914,238.337C671.322,238.337 668.988,238.999 667.677,240.052C665.901,241.621 665.25,243.109 665.25,245.835L665.25,277.599C665.25,280.677 666.076,281.979 667.697,283.444C668.988,284.477 671.322,285.138 673.914,285.138C676.496,285.138 678.829,284.477 680.141,283.444C681.938,281.854 682.486,280.471 682.486,277.599L682.486,245.835C682.485,242.985 681.917,241.56 680.141,240.052M676.96,276.938C676.96,280.326 674.781,280.74 673.831,280.74C672.014,280.74 670.878,279.273 670.878,276.938L670.878,246.579C670.878,244.823 671.652,242.758 673.831,242.758C675.824,242.758 676.96,244.142 676.96,246.579L676.96,276.938Z" style="fill:white;fill-rule:nonzero;"/>
        <path d="M743.154,243.915C743.154,241.85 743.258,240.9 743.959,239.103L737.423,239.103C738.135,240.877 738.27,241.807 738.27,243.915L738.27,273.325L728.873,239.103L722.409,239.103C723.121,240.9 723.204,241.849 723.204,243.915L723.204,279.604C723.204,281.668 723.121,282.619 722.409,284.394L728.986,284.394C728.284,282.66 728.098,281.648 728.098,279.604L728.098,250.11L737.95,284.457L743.96,284.416C743.259,282.619 743.155,281.669 743.155,279.604" style="fill:white;fill-rule:nonzero;"/>
        <path d="M796.181,262.626C795.675,262.006 795.21,261.448 794.673,260.787L792.453,258.02C792.102,257.544 791.74,257.152 791.462,256.801C789.83,254.818 789.056,253.848 789.056,251.596L789.056,245.525C789.056,243.892 789.923,242.819 791.255,242.819C792.587,242.819 793.62,244.017 793.62,245.525L793.62,246.929C793.641,249.139 793.641,250.027 793.259,251.554L799.03,251.554C798.68,250.027 798.68,248.87 798.68,247.486L798.68,246.309C798.701,244.368 798.701,242.654 797.833,241.188C796.728,239.266 794.785,238.358 791.905,238.358C791.357,238.358 790.831,238.379 790.427,238.42C787.846,238.648 783.509,240.361 783.509,245.277L783.509,252.298C783.509,256.223 784.438,257.359 787.257,260.703L787.381,260.828C787.722,261.241 788.072,261.653 788.476,262.15L790.675,264.917C793.05,267.787 793.639,268.428 793.639,271.3L793.639,278.095C793.639,279.705 792.751,280.78 791.357,280.78C790.025,280.78 789.054,279.643 789.054,278.095L789.054,276.587C789.033,274.293 789.012,273.055 789.364,271.36L783.592,271.36C783.994,273.116 783.994,274.665 783.994,276.193L783.954,277.68C783.933,279.91 783.891,282.017 786.411,283.774C787.547,284.641 789.344,285.136 791.316,285.136C792.452,285.136 793.536,284.949 794.322,284.702C795.798,284.144 799.165,282.616 799.165,279.229L799.165,270.286C799.166,266.2 798.763,265.725 796.181,262.626" style="fill:white;fill-rule:nonzero;"/>
        <path d="M595.133,80.939C595.133,75.797 595.432,73.649 597.189,69.022L604.912,69.022L604.912,66.895L585.912,22.304L544.885,22.304L518.323,0L491.783,22.677L451.427,22.677L431.806,67.102L431.806,69.125L432.457,69.022L439.52,69.022C441.254,73.648 440.986,75.796 440.986,80.939L440.986,169.087C440.986,174.003 441.214,177.142 439.716,180.24L488.251,180.24C489.749,175.593 490.306,174.086 490.306,169.211L490.306,80.878C490.306,75.88 489.706,73.442 488.075,69.271L487.105,67.475L509.988,67.475L509.265,69.271C507.582,73.422 507.262,75.86 507.262,80.899L507.262,115.349L528.855,115.349L528.855,80.899C528.855,75.88 528.834,73.443 527.203,69.271L526.82,67.475L548.062,67.475L547.567,69.271C545.925,73.443 545.791,75.88 545.791,80.899L545.791,169.233C545.791,174.087 545.926,175.593 547.381,180.241L596.846,180.241C595.391,175.594 595.132,173.9 595.132,169.088" style="fill:white;fill-rule:nonzero;"/>
        <path d="M507.264,127.72L507.264,180.241L528.856,180.241L528.856,127.72" style="fill:white;fill-rule:nonzero;"/>
    </g>
</svg>
