<?xml version="1.0" encoding="UTF-8" standalone="no"?>
<!DOCTYPE svg PUBLIC "-//W3C//DTD SVG 1.1//EN" "http://www.w3.org/Graphics/SVG/1.1/DTD/svg11.dtd">
<svg width="100%" height="100%" viewBox="0 0 1891 381" version="1.1" xmlns="http://www.w3.org/2000/svg" xmlns:xlink="http://www.w3.org/1999/xlink" xml:space="preserve" xmlns:serif="http://www.serif.com/" style="fill-rule:evenodd;clip-rule:evenodd;stroke-linejoin:round;stroke-miterlimit:2;">
    <g transform="matrix(3.779526,0,0,3.779526,0,0.000083)">
        <path d="M0,1.273L11.565,1.273L11.565,99.533L0,99.533L0,1.273ZM24.91,1.273L36.474,1.273L36.474,88.333L55.38,88.333L55.38,99.533L24.91,99.533L24.91,1.273ZM62.718,1.273L74.283,1.273L74.283,88.333L93.187,88.333L93.187,99.533L62.718,99.533L62.718,1.273ZM101.416,1.273L112.759,1.273L112.759,70.705C112.759,77.79 113.315,82.5 114.427,84.833C115.576,87.166 117.837,88.333 121.21,88.333C124.583,88.333 126.807,87.315 127.882,85.278C128.994,83.199 129.55,78.978 129.55,72.614L129.55,1.273L140.893,1.273L140.893,72.613C140.893,83.305 139.466,90.539 136.612,94.315C133.201,98.6 127.993,100.743 120.988,100.743C113.278,100.743 107.848,97.985 104.697,92.47C102.51,88.694 101.417,81.439 101.417,70.705L101.416,1.273ZM158.185,1.273L168.082,1.273L175.644,41.366C176.571,46.373 177.405,51.4 178.146,56.449C178.924,61.456 179.628,66.717 180.259,72.232C180.332,71.511 180.388,70.959 180.425,70.577C180.462,70.153 180.5,69.856 180.537,69.687L182.149,58.422L183.595,47.73L184.873,40.666L191.601,1.273L201.609,1.273L209.505,99.533L198.44,99.533L196.494,66.186C196.42,64.489 196.346,63.026 196.272,61.795C196.235,60.564 196.216,59.546 196.216,58.74L195.716,45.567L195.438,33.475C195.438,33.39 195.419,33.22 195.382,32.965C195.382,32.668 195.363,32.287 195.326,31.82L195.048,33.793C194.752,36.126 194.474,38.163 194.214,39.903C193.992,41.642 193.788,43.106 193.603,44.293L192.157,53.267L191.601,56.64L184.373,99.534L176.589,99.534L169.806,62.495C168.879,57.616 168.045,52.673 167.303,47.667C166.599,42.618 165.95,37.336 165.357,31.82L162.021,99.534L151.124,99.534L158.185,1.273ZM219.068,1.273L230.633,1.273L230.633,99.533L219.068,99.533L219.068,1.273ZM243.977,1.273L254.764,1.273L266.274,40.475C269.609,51.548 272.556,63.364 275.114,75.923C274.187,68.329 273.502,61.456 273.057,55.303C272.612,49.152 272.389,43.361 272.389,37.93L272.389,1.273L284.01,1.273L284.01,99.533L273.168,99.533L260.213,55.303C259.026,51.188 257.896,46.967 256.821,42.639C255.783,38.312 254.819,33.772 253.93,29.02C253.856,28.427 253.726,27.705 253.54,26.856C253.392,26.008 253.207,25.032 252.985,23.929C253.096,25.032 253.188,25.987 253.263,26.793C253.336,27.556 253.392,28.214 253.429,28.766L254.041,38.757L254.653,50.912C254.69,51.591 254.708,52.419 254.708,53.394C254.745,54.37 254.764,55.473 254.764,56.704L255.375,99.534L243.977,99.534L243.977,1.273ZM311.143,1.273L320.151,1.273L338.555,99.533L327.1,99.533L323.875,80.378L306.861,80.378L303.581,99.534L292.461,99.534L311.143,1.273ZM322.208,70.132L319.65,54.476C317.945,43.827 316.555,32.457 315.48,20.365C314.961,26.262 314.294,32.245 313.479,38.312C312.663,44.337 311.699,50.743 310.587,57.532L308.474,70.132L322.208,70.132ZM336.775,1.273L374.417,1.273L374.417,12.855L361.462,12.855L361.462,99.534L350.12,99.534L350.12,12.855L336.775,12.855L336.775,1.273ZM380.756,1.273L392.321,1.273L392.321,99.533L380.756,99.533L380.756,1.273ZM448.645,52.822C448.645,70.175 446.958,82.5 443.585,89.797C440.212,97.094 434.559,100.743 426.627,100.743C418.287,100.743 412.412,96.819 409.001,88.97C405.628,81.29 403.941,67.65 403.941,48.049C403.941,30.569 405.609,18.201 408.945,10.946C412.318,3.649 418.027,0 426.071,0C433.262,0 438.599,2.821 442.084,8.464C444.382,12.24 446.05,17.607 447.088,24.565C448.126,31.014 448.645,40.433 448.645,52.822ZM436.524,54.222C436.524,37.209 435.857,25.923 434.522,20.365C433.187,14.765 430.463,11.965 426.349,11.965C422.234,11.965 419.491,14.532 418.119,19.665C416.785,24.841 416.118,35.236 416.118,50.849C416.118,65.232 416.822,75.202 418.231,80.759C419.676,86.02 422.382,88.651 426.349,88.651C430.241,88.651 432.91,86.19 434.355,81.269C435.801,76.39 436.524,67.374 436.524,54.222ZM460.154,1.273L470.941,1.273L482.451,40.475C485.786,51.548 488.733,63.364 491.291,75.923C490.364,68.329 489.678,61.456 489.233,55.303C488.788,49.152 488.566,43.361 488.566,37.93L488.566,1.273L500.186,1.273L500.186,99.533L489.345,99.533L476.39,55.303C475.203,51.188 474.073,46.967 472.998,42.639C471.96,38.312 470.996,33.772 470.107,29.02C470.032,28.427 469.902,27.705 469.717,26.856C469.569,26.008 469.384,25.032 469.161,23.929C469.272,25.032 469.365,25.987 469.439,26.793C469.514,27.556 469.569,28.214 469.606,28.766L470.218,38.757L470.829,50.912C470.866,51.591 470.885,52.419 470.885,53.394C470.922,54.37 470.941,55.473 470.941,56.704L471.552,99.534L460.154,99.534L460.154,1.273Z" style="fill:white;fill-rule:nonzero;"/>
    </g>
</svg>
