<?xml version="1.0" encoding="UTF-8" standalone="no"?>
<!DOCTYPE svg PUBLIC "-//W3C//DTD SVG 1.1//EN" "http://www.w3.org/Graphics/SVG/1.1/DTD/svg11.dtd">
<svg width="100%" height="100%" viewBox="0 0 1000 540" version="1.1" xmlns="http://www.w3.org/2000/svg" xmlns:xlink="http://www.w3.org/1999/xlink" xml:space="preserve" xmlns:serif="http://www.serif.com/" style="fill-rule:evenodd;clip-rule:evenodd;stroke-linejoin:round;stroke-miterlimit:2;">
    <g>
        <path d="M397.644,143.633L397.644,102.961L497.509,102.961L497.509,77.405L400.198,77.405C405.91,62.905 419.837,51.399 428.933,45.081C435.907,40.24 442.921,36.385 449.412,33.369L449.412,66.617L474.968,66.617L474.968,0.041C450.499,0.041 383.061,30.519 373.278,78.595C325.202,88.378 295.021,155.57 295.021,180.039L475.009,179.998L475.009,113.709L449.412,113.709L449.412,154.4L328.206,154.4C331.19,148.002 335.005,141.089 339.773,134.26C346.06,125.133 357.586,111.206 372.057,105.525L372.057,143.633" style="fill:white;fill-rule:nonzero;"/>
        <path d="M545.78,102.591L586.452,102.591L586.452,202.476L612.007,202.476L612.007,105.155C626.509,110.878 638.015,124.804 644.312,133.91C649.152,140.863 653.029,147.898 656.044,154.399L622.774,154.399L622.774,179.935L689.35,179.935C689.35,155.467 658.914,88.029 610.817,78.266C601.034,30.19 533.842,0 509.354,0L509.415,179.977L575.704,179.977L575.704,154.4L535.02,154.4L535.02,33.185C541.391,36.138 548.323,39.995 555.172,44.732C564.238,51.049 578.186,62.576 583.865,77.036L545.78,77.036" style="fill:white;fill-rule:nonzero;"/>
        <path d="M587.866,251.907L587.866,292.436L487.991,292.436L487.991,318.074L585.282,318.074C579.6,332.553 565.675,344.102 556.567,350.419C549.616,355.239 542.559,359.013 536.088,362.171L536.088,328.78L510.533,328.78L510.533,395.356C535.019,395.356 602.428,364.899 612.232,316.802C660.308,307.142 690.478,239.929 690.478,215.358L510.48,215.583L510.48,281.729L536.087,281.729L536.087,240.996L657.292,240.996C654.317,247.498 650.503,254.431 645.745,261.158C639.429,270.388 627.901,284.253 613.421,289.913L613.421,251.908" style="fill:white;fill-rule:nonzero;"/>
        <path d="M438.634,292.866L397.951,292.866L397.951,192.96L372.416,192.96L372.416,290.342C357.925,284.661 346.409,270.591 340.092,261.566C335.282,254.634 331.396,247.497 328.37,240.994L361.638,240.994L361.638,215.582L295.062,215.582C295.062,239.928 325.54,307.345 373.616,317.231C383.358,365.328 450.591,395.354 475.05,395.354L475.008,215.582L408.709,215.582L408.709,240.994L449.412,240.994L449.412,362.17C443.003,359.237 436.111,355.442 429.271,350.828C420.134,344.326 406.228,332.984 400.536,318.483L438.635,318.483" style="fill:white;fill-rule:nonzero;"/>
        <path d="M19.218,453.523L0,453.523L0,539.441L80.944,539.441L80.944,524.099L19.218,524.099" style="fill:white;fill-rule:nonzero;"/>
        <path d="M107.577,453.523L107.115,453.523L107.115,539.441L188.059,539.441L188.059,524.099L126.354,524.099L126.354,502.256L167.784,502.256L167.784,488.186L126.354,488.186L126.354,468.865L188.059,468.865L188.059,453.523L126.354,453.523" style="fill:white;fill-rule:nonzero;"/>
        <path d="M518.131,513.803L462.456,454.364L462.456,453.523L444.899,453.523L444.899,539.646L462.456,539.646L462.456,480.002L518.131,539.646L535.688,539.646L535.688,453.523L518.131,453.523" style="fill:white;fill-rule:nonzero;"/>
        <path d="M335.057,453.523L334.585,453.523L334.585,539.441L415.529,539.441L415.529,524.099L353.824,524.099L353.824,502.256L395.018,502.256L395.018,488.186L353.824,488.186L353.824,468.865L415.529,468.865L415.529,453.523L353.824,453.523" style="fill:white;fill-rule:nonzero;"/>
        <path d="M258.604,508.348L287.646,508.348L287.769,520.941L287.769,521.372C284.292,522.623 280.59,523.689 275.637,524.736C270.674,525.782 265.362,526.192 259.167,526.192C255.158,526.192 251.106,525.782 247.138,524.53C243.19,523.464 239.99,522.009 236.883,519.485C233.817,517.167 231.489,514.029 229.591,510.235C227.684,506.462 226.761,501.846 226.761,496.595C226.761,491.118 227.56,486.935 229.469,483.141C231.335,479.367 233.94,476.208 237.057,473.911C240.144,471.594 243.292,469.912 247.281,468.866C251.23,467.614 255.096,467.389 259.126,467.389C262.356,467.389 265.618,467.183 269.248,467.614C272.878,468.025 276.437,468.866 279.503,469.912C290.353,473.48 292.958,475.799 294.178,476.433L301.87,461.297L292.794,457.933C290.568,457.319 287.749,456.477 284.395,455.841C281.032,455 277.145,454.159 272.797,453.524C268.469,452.909 263.896,452.478 259.086,452.478C251.507,452.478 244.595,453.524 238.329,455.636C232.094,457.523 226.741,460.455 222.269,464.25C217.839,468.024 214.394,472.639 211.932,477.889C209.481,483.366 208.261,489.438 208.261,496.369C208.261,503.097 209.481,509.188 211.932,514.644C214.373,519.894 217.839,524.529 222.269,528.304C226.72,531.871 232.073,534.805 238.329,536.692C244.575,538.599 251.507,539.441 259.086,539.441C263.013,539.441 267.003,539.441 271.074,539.214C275.156,539.009 279.227,538.374 283.299,537.532C287.349,536.486 291.39,535.235 295.359,533.758C298.149,532.508 300.856,531.441 303.461,529.985L303.461,496.369L258.605,496.369" style="fill:white;fill-rule:nonzero;"/>
        <path d="M727.911,506.461L711.585,506.461L725.286,477.48L739.11,506.461M718.149,454.59L677.538,539.442L695.956,539.442L705.761,518.849L745.017,518.849L754.904,539.442L775.599,539.442L732.69,454.59L718.149,454.59Z" style="fill:white;fill-rule:nonzero;"/>
        <path d="M977.459,454.364L951.924,488.821L928.01,454.364L905.489,454.364L940.602,505.415L940.602,539.646L962.918,539.646L962.918,506.461L1000,454.364" style="fill:white;fill-rule:nonzero;"/>
        <path d="M816.7,492.391L816.7,469.501L850.788,469.501L850.788,469.275L854.46,469.706C857.085,470.342 858.849,471.183 860.347,472.228L863.568,476.001L864.386,480.842L863.32,485.457L860.224,489.23C858.706,490.277 856.861,490.913 854.234,491.547C851.609,492.184 848.39,492.389 844.431,492.389L821.234,492.389M877.698,497.005C881.944,493.232 884.077,487.55 884.077,480.412C884.077,475.798 883.257,471.798 881.616,468.659C879.932,465.296 877.637,462.773 874.6,460.681C871.524,458.774 867.873,457.318 863.608,456.271C859.915,455.429 855.321,454.794 850.788,454.589L798.017,454.589L798.017,539.645L816.7,539.645L816.7,505.619L839.938,505.619L863.833,539.645L885.778,539.645L860.53,504.142C867.463,502.892 873.553,500.574 877.698,497.005" style="fill:white;fill-rule:nonzero;"/>
        <path d="M640.579,510.439C639.081,515.279 637.03,517.597 633.153,520.531C629.237,523.463 624.458,524.529 619.167,524.939C614.571,525.576 593.446,525.145 588.134,524.939L588.134,469.07L612.87,469.07C612.87,469.07 625.483,468.865 630.733,471.798C635.983,474.956 637.932,477.48 639.081,479.777C640.21,482.095 642.179,485.254 642.179,493.436C642.178,501.846 642.055,505.415 640.579,510.439M654.401,472.229C651.776,467.389 647.305,463.615 641.235,459.84C635.204,456.272 625.235,454.795 621.135,454.59C616.99,454.364 586.451,454.59 586.451,454.59L569.447,454.59L569.447,539.442L588.133,539.442L588.133,539.215L623.514,539.215C626.385,539.215 635.08,538.805 642.28,533.759C649.501,528.94 650.997,526.827 654.977,520.325C658.997,514.028 660.268,509.188 660.596,505.619C660.944,501.846 661.17,495.118 660.596,488.39C660.022,481.889 657.028,476.844 654.401,472.229" style="fill:white;fill-rule:nonzero;"/>
    </g>
</svg>
