<svg xmlns="http://www.w3.org/2000/svg" xmlns:xlink="http://www.w3.org/1999/xlink" xmlns:serif="http://www.serif.com/" version="1.1" xml:space="preserve" style="fill-rule:evenodd;clip-rule:evenodd;stroke-linejoin:round;stroke-miterlimit:2;" viewBox="0 0 300 38.03"><g><g><path d="M237.376,8.407l10.864,0l0,28.461l7.859,0l0,-28.461l10.864,0l0,-7.244l-29.586,0l0,7.244Zm-121.27,14.739l-16.728,-21.983l-7.244,-0l0,35.706l7.75,0l0,-22.701l17.293,22.701l6.685,0l0,-35.706l-7.755,-0l0,21.983Zm67.254,1.016l10.342,0c-0.484,2.712 -3.147,6.706 -9.799,6.706c-6.532,0 -11.782,-5.19 -11.782,-11.815c0,-6.761 5.114,-11.858 11.897,-11.858c6.848,0 10.011,5.408 10.141,5.636l6.092,-3.772c-3.576,-5.755 -9.489,-9.06 -16.233,-9.06c-10.663,0 -19.347,8.511 -19.347,18.972c0,10.679 8.391,19.054 19.097,19.054c9.935,0 17.712,-7.136 17.712,-16.782l0,-4.152l-18.119,0l0,7.071Zm-33.358,-7.782c-5.141,-1.924 -10.234,-2.592 -10.234,-6.032c0,-1.995 2.081,-3.495 6.478,-3.495c4.223,0 9.022,1.935 12.212,3.619l0,-7.609c-4.315,-1.804 -8.451,-2.864 -12.712,-2.864c-8.636,0 -14.467,4.364 -14.467,10.701c0,6.924 5.891,9.375 10.011,10.907c5.147,1.924 10.076,2.63 10.076,6.071c0,1.995 -2.375,3.484 -6.766,3.489c-4.098,0.005 -9.087,-1.929 -12.277,-3.619l0,7.641c4.467,1.918 8.56,2.837 12.777,2.837c8.717,0 14.75,-4.369 14.75,-10.706c0,-6.924 -5.734,-9.397 -9.848,-10.94m-83.982,14.168c-6.293,0 -11.223,-5.076 -11.223,-11.554c0,-6.456 5.005,-11.516 11.391,-11.516c6.321,0 11.266,5.022 11.266,11.429c0,6.636 -4.913,11.641 -11.435,11.641m0.087,-30.548c-10.38,-0 -18.826,8.445 -18.826,18.826c0,10.565 8.348,19.163 18.614,19.163c10.723,0 19.119,-8.397 19.119,-19.119c0,-10.407 -8.478,-18.869 -18.907,-18.869m-58.254,1.163l-7.853,0l0,35.706l25.592,0l0,-7.141l-17.739,0l0,-28.565Zm289.457,28.717l-16.684,0l0,-7.5l15.293,0c-0.114,-1.25 -0.179,-2.516 -0.179,-3.804c0,-1.071 0.06,-2.13 0.141,-3.179l-15.255,0l0,-7.244l16.511,0c0.658,-2.429 1.538,-4.766 2.62,-6.989l-26.929,0l0,35.706l27.173,0c-1.098,-2.217 -2,-4.56 -2.69,-6.989m-265.283,6.989l7.859,0l0,-35.706l-7.859,-0l0,35.706Zm184.556,-13.619l5.299,-12.902l5.337,12.902l-10.636,0Zm1.674,-22.092l-15.195,35.711l8.011,0l2.848,-7.027l15.929,0l2.848,7.027l8.217,0l-15.201,-35.7l-7.456,-0.011Z" style="fill:#006576;fill-rule:nonzero;"/></g></g></svg>