<?xml version="1.0" encoding="UTF-8" standalone="no"?>
<!DOCTYPE svg PUBLIC "-//W3C//DTD SVG 1.1//EN" "http://www.w3.org/Graphics/SVG/1.1/DTD/svg11.dtd">
<svg width="100%" height="100%" viewBox="0 0 1000 329" version="1.1" xmlns="http://www.w3.org/2000/svg" xmlns:xlink="http://www.w3.org/1999/xlink" xml:space="preserve" xmlns:serif="http://www.serif.com/" style="fill-rule:evenodd;clip-rule:evenodd;stroke-linejoin:round;stroke-miterlimit:2;">
    <g transform="matrix(1,0,0,1,0,7.255)">
        <path d="M127.57,256.855L127.207,256.589L127.618,251.245L128.827,252.309C129.553,252.936 136.034,258.524 145.417,261.498C150.036,262.924 154.752,263.674 159.395,263.674C167.98,263.674 176.638,261.158 185.126,256.201C200.168,247.496 206.626,231.365 209.382,219.369C212.381,206.359 211.8,195.185 211.8,195.09L211.8,195.065L211.56,28.078L211.56,28.03C211.56,27.74 212.019,20.582 216.542,17.027C219.686,14.511 223.289,13.181 224.813,12.698L224.813,7.328L185.708,7.328L185.708,12.697C187.28,13.18 191.053,14.51 194.221,17.026C198.138,20.121 199.01,25.925 199.179,27.618L199.179,27.691C199.348,81.282 199.566,202.443 199.518,207.57C199.445,217.968 196.543,226.408 190.86,232.625C183.605,240.58 175.649,242.25 170.28,242.25L170.111,242.25C163.799,242.225 156.447,239.008 150.909,233.906C145.033,228.439 143.122,217.025 143.098,214.316L142.494,27.691L142.494,27.618C142.808,24.934 143.655,21.185 145.71,18.307C148.757,14.123 153.763,12.914 155.577,12.576L155.577,7.086L100.75,7.086L100.75,12.261C102.37,12.551 106.215,13.591 109.674,16.977C113.205,20.363 113.93,25.635 114.051,28.828L114.075,28.828L114.075,29.408L114.099,216.688L109.988,216.688L109.988,29.432C109.94,27.473 109.577,22.684 106.917,20.097C103.749,17.026 100.049,16.493 99.638,16.445C97.897,16.276 96.615,14.777 96.615,12.987L96.615,6.215C96.615,4.305 98.09,2.757 99.928,2.757L156.397,2.757C158.235,2.757 159.734,4.305 159.734,6.215L159.734,13.325C159.734,15.138 158.428,16.614 156.711,16.783C156.179,16.832 151.487,17.509 149.021,20.894C147.57,22.925 146.917,25.755 146.651,27.787L147.232,214.292C147.256,217.169 149.264,226.554 153.689,230.688C158.405,235.042 164.862,237.895 170.134,237.918L170.303,237.918C176.929,237.918 182.83,235.137 187.836,229.648C192.697,224.326 195.309,216.66 195.381,207.519C195.429,202.513 195.212,81.546 195.018,27.833L195.018,27.809C194.873,26.6 194.196,22.416 191.705,20.457C188.44,17.846 184.087,16.709 184.038,16.709C182.587,16.298 181.547,14.919 181.547,13.347L181.547,6.481C181.547,4.595 183.047,3.023 184.884,3.023L225.658,3.023C227.471,3.023 228.971,4.595 228.971,6.481L228.971,13.349C228.971,14.921 227.931,16.3 226.48,16.711C226.407,16.711 222.344,17.848 219.031,20.459C216.395,22.539 215.79,27.109 215.694,28.102L215.694,32.043C215.815,94.171 216.008,198.453 216.008,199.056C215.96,203.99 215.5,211.704 213.517,220.363C209.333,238.742 200.216,252.429 187.157,260C178.112,265.271 168.729,267.957 159.273,267.957C154.122,267.957 149.019,267.158 144.11,265.611C135.502,262.854 129.674,258.574 127.57,256.855M125.224,225.078L118.114,310.375C117.945,312.164 116.494,313.543 114.777,313.543L10.545,313.834C9.674,313.834 7.232,313.906 7.232,310.375L7.256,301.936C7.256,300.17 8.538,298.694 10.231,298.5C11.029,298.379 15.092,297.557 18.236,292.793C19.711,290.568 19.953,285.297 19.929,284.328L19.419,27.932C19.395,27.521 19.153,23.773 16.565,20.726C14.34,18.114 11.462,17.316 9.552,16.784L8.681,16.542C7.254,16.131 6.287,14.825 6.287,13.229L6.287,11.778C6.287,9.77 6.263,6.409 6.263,6.409C6.263,5.466 6.601,4.62 7.23,3.967C7.859,3.314 8.73,2.951 9.6,2.951L68.778,2.951C70.616,2.951 72.115,4.499 72.115,6.409L72.115,13.423C72.115,15.14 70.954,16.567 69.334,16.833C68.875,16.953 64.691,17.824 62.417,20.073C59.684,22.733 58.886,26.385 58.862,26.796C58.862,27.11 58.838,114.632 58.838,189.118L58.814,291.729C58.814,291.729 74.63,291.754 77.436,291.754C78.113,291.754 84.184,291.584 90.713,286.047C93.736,283.531 95.864,280.75 97.049,277.799L97.194,277.461C97.629,276.445 98.887,273.398 99.419,270.473C99.806,268.586 105.417,224.764 105.465,224.328C105.682,222.588 107.11,221.307 108.778,221.307L121.91,221.33C122.853,221.33 123.748,221.742 124.377,222.443C125.006,223.144 125.32,224.111 125.224,225.078M157.993,273.76C165.998,273.76 172.455,272.092 176.494,270.641C193.761,264.571 206.264,253.809 213.592,238.743C218.138,229.288 220.63,218.526 221.113,205.757C222.008,182.347 222.032,30.497 222.032,28.248C222.032,28.248 222.298,25.758 223.072,24.887C224.813,22.904 232.673,19.615 232.673,19.615C234.221,19.18 235.14,17.246 235.14,15.552L235.14,0.121C235.14,-0.991 234.777,-2.031 234.148,-2.659C233.471,-3.385 232.552,-3.796 231.585,-3.796L178.96,-3.796C178.017,-3.796 177.098,-3.385 176.421,-2.659C175.792,-2.031 175.429,-0.991 175.429,0.121L175.429,18.042C175.429,19.687 176.517,21.186 178.089,21.621L178.162,21.645L178.21,21.668C185.973,22.878 187.835,26.239 188.343,29.383C188.343,29.383 191.124,205.006 188.343,215.453C188.343,215.453 188.343,215.502 188.343,215.478L188.343,215.453C187.424,219.082 185.683,222.902 182.95,225.805C179.637,229.336 175.356,231.125 170.205,231.125C168.174,231.125 163.022,230.666 158.839,226.191C155.187,222.345 153.422,216.638 153.543,209.261L153.543,209.238C153.543,207.859 153.543,176.59 153.616,35.622L153.616,27.956C153.664,26.19 153.737,25.586 154.656,24.885C155.914,23.942 158.622,22.998 164.039,21.645L164.063,21.621C165.635,21.185 166.723,19.686 166.723,18.042L166.723,0.121C166.723,-0.991 166.336,-2.031 165.756,-2.659C165.079,-3.385 164.136,-3.796 163.168,-3.796L94.776,-3.796C93.833,-3.796 92.89,-3.385 92.213,-2.659C91.609,-2.031 91.27,-0.991 91.27,0.121L91.27,18.042C91.27,19.687 92.358,21.186 93.906,21.621L93.906,21.645L93.93,21.645C99.323,22.999 102.055,23.942 103.289,24.885C104.232,25.586 104.281,26.191 104.353,27.956L104.377,214.703C104.377,214.703 100.048,214.849 99.879,217.945C97.364,231.947 96.324,243.24 95.525,252.334C94.316,265.031 93.567,273.422 89.721,278.332C86.045,283.023 79.346,284.91 65.972,285.006L65.972,26.602C66.069,25.876 66.31,25.321 66.746,24.836C68.052,23.627 72.719,22.854 75.234,22.442L75.403,22.393C77.144,22.103 78.378,20.531 78.402,18.717L78.402,0.194C78.402,-2.007 76.661,-3.821 74.557,-3.821L3.531,-3.821C2.588,-3.821 1.645,-3.385 0.968,-2.684C0.363,-2.055 0,-1.015 0,0.097L0,18.041C0,19.686 1.088,21.185 2.66,21.62L2.684,21.644C8.101,22.998 10.809,23.965 12.067,24.884C13.107,25.657 13.107,28.245 13.107,28.245C13.107,29.188 13.131,285.682 13.131,288.028C13.131,290.905 9.092,291.921 8.826,291.995C8.826,291.995 5.344,292.575 4.207,292.768C2.49,293.01 1.184,294.534 1.136,296.323L1.136,316.66C1.136,317.387 1.136,318.498 1.934,319.346C2.708,320.096 3.676,320.096 4.159,320.096L120.338,320.096C122.224,320.096 123.748,318.619 123.893,316.686L128.246,264.618C130.592,266.311 134.897,269.116 140.628,271.003C146.24,272.842 152.068,273.76 157.993,273.76" style="fill:white;fill-rule:nonzero;"/>
        <path d="M992.865,312.842C992.237,313.471 991.39,313.858 990.519,313.858L930.761,313.858C928.923,313.858 927.423,312.286 927.423,310.376L927.423,302.396C927.423,300.679 928.657,299.179 930.277,298.937C930.544,298.888 933.034,298.478 934.944,297.318C936.323,296.447 937.895,295.31 938.765,293.23C939.612,291.296 940.168,288.175 940.264,284.5C940.264,284.379 940.385,99.374 940.385,81.453C938.91,81.453 936.588,81.43 935.137,81.405C932.889,92.578 904.085,236.664 903.795,238.141C903.166,241.405 902.32,244.428 900.434,244.428C898.282,244.356 897.653,240.631 897.242,238.381C897.096,237.633 867.544,95.19 864.739,81.477L859.854,81.477L859.708,236.543C859.708,236.641 859.78,238.889 860.506,241.188C861.086,243.026 862.393,245.081 863.069,246.024C863.577,246.725 865.052,248.032 866.648,249.071C868.584,250.329 870.663,251.223 870.687,251.249C871.968,251.78 872.743,253.062 872.743,254.44L872.743,262.469C872.743,263.655 872.186,264.742 871.219,265.395C870.688,265.735 870.059,265.928 869.406,265.928C868.946,265.928 868.438,265.807 868.027,265.614L846.238,255.069L828.365,246.798C827.156,246.218 826.383,244.96 826.383,243.607L826.383,234.513C826.383,232.822 827.52,231.394 829.067,231.079C829.092,231.079 829.14,231.079 829.188,231.056C831.317,230.62 832.792,230.113 833.638,229.773C835.041,229.193 836.371,228.275 837.048,227.597C837.725,226.945 838.886,225.421 839.369,224.066C839.853,222.687 839.877,221.285 839.853,221.019L839.853,209.77C839.78,51.028 839.732,29.529 839.78,29.456C839.78,29.166 839.828,27.521 839.418,25.974C838.982,24.306 838.016,22.565 837.289,21.694C836.612,20.944 835.041,19.494 833.299,18.695C831.389,17.753 829.309,17.341 829.285,17.341C827.713,17.074 826.552,15.672 826.504,13.979L826.406,6.362C826.383,5.443 826.72,4.524 827.349,3.846C827.978,3.194 828.825,2.806 829.744,2.806L875.693,2.806C877.289,2.806 878.644,3.967 878.982,5.587C900.289,111.174 902.851,123.846 903.093,125.176C904.253,125.176 906.091,125.2 907.301,125.225C909.236,115.454 930.977,6.216 931.098,5.515C931.412,3.895 932.815,2.734 934.363,2.734L990.107,2.734C991.945,2.734 993.444,4.306 993.444,6.216L993.444,13.81C993.444,15.43 992.332,16.881 990.808,17.196C990.276,17.342 988.39,17.825 986.576,18.672C985.053,19.373 983.674,20.413 982.972,21.139C982.199,21.937 981.085,23.436 980.577,24.863C979.973,26.508 979.852,28.273 979.827,28.635C979.827,32.384 979.948,286.193 979.948,288.176C979.948,288.201 979.997,289.965 980.819,291.877C981.423,293.231 982.971,295.092 983.624,295.746C984.06,296.228 985.656,297.246 987.253,297.826C988.97,298.455 990.783,298.672 990.808,298.672C992.5,298.865 993.758,300.34 993.783,302.082L993.831,310.377C993.833,311.295 993.471,312.164 992.865,312.842M835.502,220.363C835.453,221.572 834.898,222.66 833.93,223.554C832.77,224.595 831.149,224.74 830.786,224.74C830.109,224.74 829.31,224.353 830.06,220.822C830.786,217.316 835.211,193.906 835.211,193.906C835.331,192.769 836.202,191.148 836.396,193.785C836.59,196.469 835.574,219.25 835.502,220.363M819.202,242.758C818.935,242.66 788.658,230.617 774.389,225.586C761.185,220.943 742.443,215.018 738.839,213.857L738.741,213.834C737.29,213.373 736.346,212.043 736.346,210.496L736.346,202.418C736.346,200.605 737.725,199.082 739.442,198.961L739.491,198.936C740.966,198.815 742.369,198.526 743.481,198.139C745.004,197.631 746.092,196.784 746.48,196.348C747.036,195.719 747.762,194.703 748.149,193.35C748.657,191.536 748.801,189.36 748.85,188.754L748.85,30.181C748.85,30.158 748.826,27.642 748.149,25.247C747.713,23.724 746.795,22.152 746.069,21.257C745.029,19.976 741.087,18.041 738.016,16.977C736.637,16.469 735.694,15.067 735.743,13.567L735.573,6.191C735.645,4.329 737.096,2.83 738.911,2.83L794.534,2.83C796.372,2.83 797.871,4.402 797.871,6.337L797.871,13.592C797.871,15.092 796.952,16.422 795.645,16.857C788.27,19.179 786.577,22.71 785.997,23.895C785.175,25.66 785.029,27.353 785.005,27.522C785.029,53.133 785.029,120.098 785.054,160.122L785.054,207.015C789.48,208.829 793.591,209.771 797.242,209.771C800.628,209.771 802.369,208.949 802.393,208.949L802.538,208.877C808.705,206.482 811.655,198.309 812.018,197.293C812.332,196.133 821.788,161.26 821.885,160.897L821.908,160.874L821.908,160.849C821.932,160.753 822.73,158.673 825.053,158.673C827.012,158.673 832.961,158.696 832.961,158.696C833.952,158.696 834.871,159.157 835.476,159.93C836.105,160.703 836.372,161.719 836.226,162.76L823.674,240.074C822.926,243.506 819.589,242.902 819.202,242.758M724.401,208.246C723.797,208.73 723.071,208.973 722.345,208.973C721.934,208.973 720.29,208.561 719.782,208.416C714.994,207.184 667.279,195.865 666.796,195.744C665.272,195.43 664.16,193.978 664.16,192.383L664.16,184.643C664.16,182.926 665.441,181.428 667.061,181.209C667.618,181.137 669.431,180.799 670.979,179.928C672.576,179.033 674.075,177.317 674.728,176.469C675.017,176.059 675.888,174.317 676.324,172.455C676.783,170.496 676.807,168.439 676.807,168.439L676.783,158.767C676.76,123.627 676.638,30.568 676.638,27.81L676.638,27.787C676.589,27.134 676.372,25.417 675.865,24.038C675.381,22.732 674.437,21.475 673.954,20.822L673.906,20.725C673.592,20.314 672.624,19.395 671.511,18.573L668.826,16.928C667.93,16.371 666.964,15.162 666.964,13.808L666.964,6.433C666.964,4.523 668.44,2.951 670.277,2.951L718.548,2.805C719.443,2.805 720.29,3.193 720.918,3.821C721.547,4.474 721.886,5.369 721.886,6.288L721.886,14.148C721.886,15.478 720.918,16.711 720.024,17.244L717.896,18.574C716.589,19.565 715.187,21.016 714.679,21.693C714.316,22.201 713.663,23.459 713.349,24.62C712.745,26.748 712.527,29.021 712.478,29.311C712.478,32.745 712.527,179.371 712.527,179.371C712.527,179.469 712.672,181.766 713.205,183.967C714.462,189.602 723.144,193.713 723.192,193.713C724.619,194.149 725.634,195.502 725.634,197.049L725.683,205.514C725.684,206.602 725.199,207.594 724.401,208.246M657.484,49.48C657.484,51.415 655.961,52.987 654.147,52.987L640.846,52.987C639.008,52.987 637.484,51.415 637.484,49.48L637.533,38.283C637.461,37.679 637.267,35.623 636.396,33.544C635.598,31.657 633.833,29.529 632.841,28.634C631.97,27.861 630.011,26.385 628.101,25.733C625.344,24.765 622.394,24.669 622.394,24.669L605.683,24.669C605.683,31.416 605.755,75.576 605.779,82.759L619.033,82.783C619.371,82.734 620.773,82.565 621.934,82.033C623.216,81.429 624.425,80.098 624.812,79.687C625.32,79.13 626.553,77.365 627.23,75.769C627.908,74.124 628.15,72.456 628.15,72.431C628.392,70.714 629.795,69.409 631.463,69.409L642.709,69.409C644.522,69.409 646.046,70.957 646.046,72.867L646.046,113.35C646.046,115.261 644.523,116.833 642.709,116.833L631.729,116.833C630.133,116.833 628.78,115.672 628.465,114.052L628.465,114.004L628.441,113.956C628.368,113.593 627.909,111.683 627.231,109.965C626.554,108.248 622.685,102.903 618.647,102.903L605.877,102.927C605.926,112.698 606.07,161.766 606.07,161.766C606.07,161.838 606.142,163.604 606.843,165.393C607.327,166.7 608.56,168.393 609.262,169.118C609.866,169.747 611.801,171.126 613.519,171.899C615.017,172.577 616.445,172.794 616.445,172.794C618.113,173.013 619.347,174.511 619.347,176.228L619.347,183.703C619.347,184.693 618.959,185.637 618.234,186.289C617.63,186.894 616.832,187.185 616.009,187.185C615.888,187.185 615.767,187.185 615.646,187.16L608.222,186.314C595.501,184.863 593.204,184.597 589.77,184.355C581.983,183.847 568.294,182.492 562.804,181.96L562.515,181.937C560.798,181.767 559.516,180.267 559.516,178.455L559.516,170.57C559.516,168.853 560.677,167.425 562.322,167.111C562.322,167.111 564.377,166.773 566.191,165.806C567.763,165.007 569.287,163.556 569.867,162.831C570.35,162.251 571.269,160.63 571.728,159.058C572.212,157.268 572.309,155.383 572.333,154.995C572.333,153.037 572.042,28.683 572.042,28.683C572.042,28.659 571.946,26.385 571.269,24.427C570.761,22.903 569.552,21.476 569.165,21.089C568.633,20.46 567.109,19.202 565.489,18.404C563.699,17.534 561.788,17.171 561.764,17.171C560.192,16.881 559.032,15.43 559.032,13.761L559.008,6.288C559.008,5.369 559.347,4.475 559.976,3.821C560.604,3.169 561.451,2.805 562.345,2.805L654.147,2.805C655.96,2.805 657.484,4.353 657.484,6.287L657.484,49.48ZM548.682,54.8C548.682,56.687 547.207,58.259 545.345,58.259L533.084,58.259C531.27,58.259 529.771,56.687 529.771,54.8L529.771,45.853C529.795,44.982 529.917,40.435 528.538,35.84C527.909,33.858 526.53,31.753 525.2,29.722C521.911,24.692 514.923,22.346 511.221,22.346C507.836,22.346 503.869,23.966 501.403,26.384C499.977,27.738 498.84,29.262 498.284,30.52C497.098,33.156 497.075,35.671 497.075,35.696L497.075,56.712C497.075,56.735 497.147,59.082 497.921,61.403C498.526,63.12 499.904,65.151 500.437,65.925C500.968,66.723 504.064,69.262 507.039,71.294L513.109,75.211C520.388,79.927 532.529,87.811 532.65,87.884C533.012,88.125 536.326,90.495 539.3,93.615C541.646,96.082 543.58,99.153 544.62,101.233C545.66,103.289 547.159,106.868 547.885,110.229C548.804,114.509 548.804,118.524 548.804,118.573L548.804,149.407C548.755,149.866 548.079,160.556 541.452,168.366C537.413,173.083 533.157,176.54 528.804,178.62C522.638,181.499 517.462,182.102 511.562,182.102C505.105,182.102 498.308,180.918 493.327,178.885C489.82,177.483 484.887,174.533 482.226,172.889C482.275,175.258 482.324,178.452 482.324,178.498C482.324,179.418 481.985,180.264 481.381,180.941C480.776,181.57 479.905,181.98 479.011,181.98L467.11,181.98C466.214,181.98 465.392,181.593 464.74,180.941C464.111,180.289 463.773,179.418 463.773,178.474L463.773,122.27C463.773,120.36 465.271,118.812 467.11,118.812L478.718,118.812C480.507,118.812 482.031,120.335 482.031,122.247L482.152,142.609C482.152,142.633 482.201,145.051 483.023,147.833C483.7,150.131 485.03,152.598 486.36,154.097C488.343,156.298 491.052,158.16 493.398,158.91C494.607,159.346 495.961,159.514 497.582,159.514C497.63,159.514 502.637,159.442 505.32,158.258C507.256,157.411 509.335,155.694 511.318,153.3C512.019,152.429 512.938,150.954 513.349,149.31C514.316,145.755 514.316,141.644 514.316,141.16L514.316,124.812C514.316,124.788 514.244,121.789 513.591,119.346C513.277,118.113 512.454,116.879 512.042,116.226L511.897,116.033C511.607,115.574 510.76,114.51 509.527,113.47C507.786,111.995 505.61,110.569 504.981,110.157C503.892,109.455 478.959,92.962 478.862,92.889C478.403,92.575 476.105,90.882 473.856,88.56C471.583,86.239 469.286,83.167 468.028,80.773C466.915,78.669 465.512,75.259 464.836,72.043C463.917,67.738 463.917,63.676 463.917,63.506L463.917,27.11C463.94,26.651 464.763,16.227 472.163,9.432C475.38,6.481 478.379,3.894 482.515,2.201C488.609,-0.362 495.477,-0.895 497.629,-0.895C497.629,-0.895 500.435,-1.185 508.972,0.412C512.43,1.041 516.251,2.588 520.386,4.596C523.167,5.95 526.892,8.611 529.31,10.424L529.31,6.336C529.31,4.401 530.81,2.829 532.648,2.829L545.344,2.829C547.206,2.829 548.681,4.401 548.681,6.336L548.681,54.8L548.682,54.8ZM456.324,179.855C456.324,181.595 455.043,183.095 453.349,183.289C453.349,183.289 406.626,188.514 406.505,188.514C405.683,188.514 404.885,188.2 404.28,187.618C403.578,186.989 403.167,186.048 403.167,185.055L403.167,177.92C403.167,176.397 404.11,175.092 405.489,174.631C405.513,174.608 407.085,174.074 408.536,172.963C409.648,172.117 410.785,170.592 411.027,170.133C411.317,169.553 411.801,168.223 411.898,166.965C411.898,166.651 411.922,166.336 411.922,166.022C411.922,164.571 411.414,161.209 411.414,161.209L410.882,158.066L409.214,148.174C408.029,141.112 406.747,133.373 406.191,130.157L376.131,130.157L374.172,143.095L373.954,144.667C372.164,156.396 369.746,172.503 369.722,172.697C369.722,172.697 369.117,175.816 371.028,177.412C371.415,177.752 372.721,178.742 374.003,179.082C375.115,179.371 377.002,179.396 377.002,179.396C377.873,179.396 378.719,179.734 379.323,180.363C379.976,181.015 380.339,181.935 380.339,182.879L380.339,190.061C380.339,191.682 379.226,193.133 377.678,193.448L344.353,200.364C344.136,200.413 343.942,200.436 343.725,200.436C342.951,200.436 342.177,200.145 341.597,199.637C340.823,198.985 340.388,197.992 340.388,196.953L340.388,190.568C340.388,189.504 340.847,188.513 341.645,187.859C341.669,187.81 343.652,186.191 345.272,184.209C346.505,182.709 347.618,180.727 348.247,179.516C348.9,178.332 349.964,173.616 350.472,170.666C351.609,162.951 370.98,31.584 371.004,31.463C371.004,31.439 371.487,28.972 371.173,26.384C370.956,24.619 370.133,22.66 369.432,21.499C368.852,20.58 367.691,19.322 366.385,18.549C364.353,17.388 362.08,16.929 361.814,16.88C360.242,16.541 359.081,15.114 359.106,13.422L359.154,6.191C359.178,4.329 360.653,2.757 362.467,2.757L437.026,2.757C438.864,2.757 440.363,4.328 440.363,6.215L440.363,13.833C440.363,14.776 439.976,15.719 439.299,16.348C438.695,16.977 437.872,17.291 437.026,17.291C436.954,17.291 434.124,17.315 432.939,17.654C431.198,18.089 429.505,19.225 428.973,19.709C427.74,20.798 426.942,21.741 426.627,22.467C425.805,24.449 425.78,25.538 425.78,26.602C425.78,26.602 446.046,157.752 446.191,158.791C446.215,158.814 446.215,158.84 446.215,158.863C446.602,160.508 447.037,161.621 447.303,162.273C447.835,163.433 448.754,164.523 449.093,164.91C449.431,165.346 450.471,166.215 451.705,166.892L454.027,167.859C455.358,168.439 456.324,169.818 456.324,171.148L456.324,179.855ZM331.657,186.602C329.408,193.495 324.571,200.243 320.774,203.846C314.462,209.867 308.053,214.028 301.669,216.227C298.452,217.34 293.035,218.67 285.49,218.67C285.49,218.67 283.241,218.693 282.54,218.693C278.791,218.693 274.995,218.332 271.343,217.582C264.112,216.131 256.905,213.107 253.423,210.061C250.642,207.594 245.588,202.565 243.194,196.495C240.292,189.046 240.461,181.114 240.461,181.065L240.461,32.866C240.509,31.803 240.92,26.24 244.016,20.17C247.039,14.245 254.681,7.11 261.065,4.281C261.452,4.063 270.884,-0.653 281.646,-0.653C282.783,-0.653 283.919,-0.604 285.032,-0.484C290.643,0.073 297.293,1.742 303.218,4.135C305.879,5.247 308.587,6.554 311.271,8.053L311.271,6.481C311.271,4.546 312.795,2.975 314.633,2.975L330.207,2.975C332.021,2.975 333.52,4.546 333.52,6.457L333.496,66.505C333.496,67.424 333.158,68.319 332.529,68.972C331.9,69.625 331.029,69.988 330.183,69.988L315.141,69.988C313.303,69.988 311.828,68.44 311.828,66.53L311.828,44.353C311.804,43.773 311.054,30.181 302.686,23.749C299.735,21.524 296.543,20.388 293.133,20.388C288.175,20.388 284.064,22.806 282.42,24.209C278.357,27.691 276.205,33.012 276.205,39.565L276.108,175.816C276.156,176.541 276.422,179.033 277.39,181.548C278.333,184.013 280.341,186.794 281.816,188.294C283.146,189.624 285.565,191.366 287.644,192.091C289.603,192.743 291.514,192.841 292.481,192.841C292.505,192.841 297.052,192.769 300.655,191.366C303.267,190.325 305.903,188.124 307.524,186.407C308.467,185.391 310.281,182.587 311.151,179.491C312.167,175.887 312.167,172.067 312.167,171.897L312.07,128.173C312.07,127.23 312.408,126.36 313.037,125.682C313.69,125.053 314.488,124.666 315.383,124.666L330.547,124.666C332.385,124.666 333.884,126.238 333.884,128.148L333.884,170.783C333.881,171.1 334.196,178.936 331.657,186.602M999.855,296.275C999.855,294.365 998.452,292.769 996.662,292.576L991.367,291.922C991.367,291.922 986.07,291.414 986.07,287.738L985.949,28.246C986.046,25.127 986.094,24.377 996.904,21.644L996.928,21.62C998.476,21.184 999.564,19.709 999.564,18.016L999.564,0.121C999.564,-0.967 999.226,-2.055 998.597,-2.684C997.944,-3.385 997.001,-3.773 996.058,-3.773L929.262,-3.796C927.57,-3.796 926.07,-2.539 925.731,-0.798C925.731,-0.798 910.375,76.276 904.982,103.29C899.564,76.518 884.16,0 883.967,-0.798C883.627,-2.539 882.153,-3.796 880.459,-3.796L823.676,-3.796C822.733,-3.796 821.789,-3.409 821.113,-2.684C820.509,-2.055 820.171,-1.015 820.171,0.121L820.171,18.017C820.171,19.709 821.259,21.185 822.806,21.621L822.831,21.621C828.224,22.999 830.956,23.942 832.189,24.886C833.132,25.563 833.18,26.168 833.229,27.957L833.253,28.223C833.253,30.206 833.301,139.494 833.301,151.923L820.315,151.9C818.695,151.9 817.268,153.012 816.833,154.608C816.712,155.019 805.685,195.405 805.346,196.663C805.177,197.196 803.605,201.501 800.365,202.759L800.316,202.759L800.267,202.782C800.267,202.782 799.349,203.218 797.583,203.218C795.647,203.218 793.495,202.734 791.174,201.767C791.15,189.167 791.077,30.836 791.077,28.248C791.101,28.079 791.101,27.934 791.101,27.765C791.149,26.048 791.198,25.492 792.092,24.838C793.35,23.919 795.986,23 801.281,21.647L801.281,21.623L801.306,21.623C802.877,21.187 803.966,19.712 803.966,18.019L803.966,0.121C803.966,-0.967 803.578,-2.055 802.998,-2.684C802.321,-3.385 801.378,-3.773 800.41,-3.773L734.1,-3.796C733.157,-3.796 732.213,-3.409 731.561,-2.684C730.932,-2.055 730.593,-1.015 730.593,0.121L730.593,18.235C730.593,19.927 731.681,21.403 733.229,21.862L733.253,21.862C740.726,23.313 742.274,26.409 742.322,28.199L742.345,188.367C742.322,188.779 741.886,191.826 738.814,192.189L733.205,192.625C732.769,192.648 732.334,192.77 731.923,192.938C731.923,192.938 732.164,189.432 729.311,188.682C729.311,188.682 718.453,187.256 718.84,179.371L718.815,28.246C718.913,25.514 720.025,24.595 723.58,22.587C723.847,22.442 727.474,20.726 727.474,18.017L727.474,0.121C727.474,-0.967 727.087,-2.055 726.483,-2.684C725.806,-3.385 724.886,-3.773 723.92,-3.773L665.153,-3.796C664.21,-3.796 663.34,-3.434 662.662,-2.756C661.985,-3.434 661.114,-3.796 660.172,-3.796L556.275,-3.773C555.357,-3.773 554.462,-3.41 553.785,-2.756C553.132,-3.409 552.262,-3.796 551.342,-3.796L526.529,-3.796C524.933,-3.796 523.579,-2.659 523.168,-1.088C523.119,-1.111 514.172,-4.908 510.278,-5.779C504.329,-7.085 498.5,-7.23 497.847,-7.255L497.629,-7.255C494.558,-7.255 486.941,-6.505 480.169,-3.676C475.114,-1.572 471.534,1.5 468.004,4.74C458.79,13.18 457.726,25.49 457.629,26.844L457.629,26.965L457.605,63.53C457.605,64.352 457.654,68.681 458.669,73.469C459.685,78.33 461.837,82.707 462.49,83.916C464.013,86.843 466.747,90.494 469.455,93.251C472.042,95.911 474.582,97.798 475.283,98.33L475.501,98.476L475.573,98.499L475.597,98.523C476.66,99.224 501.111,115.379 501.571,115.694C501.764,115.839 504.013,117.459 505.561,118.572L506.747,119.829L506.819,119.926C507.35,120.748 507.471,121.063 507.52,121.112C507.858,122.393 508.003,124.304 508.003,124.981C508.003,125.223 507.979,135.67 507.979,141.136L507.979,141.159C508.028,143.771 507.036,147.496 504.666,150.035C502.803,151.994 500.409,153.01 497.482,153.01C496.345,153.01 493.444,152.72 491.123,150.277C489.164,148.198 488.196,145.127 488.269,141.16L488.269,141.137C488.269,138.742 488.292,116.203 488.292,115.961C488.292,113.905 486.672,112.213 484.688,112.213L461.182,112.213C459.199,112.213 457.578,113.905 457.578,115.985L457.48,162.466C457.48,162.466 453.587,162.079 452.354,157.266C451.217,150.011 432.668,31.559 432.33,29.358C431.991,27.423 432.209,26.021 432.934,25.102C433.853,23.965 435.473,23.844 436.102,23.844C436.271,23.844 442.97,23.868 443.043,23.868C443.962,23.868 444.833,23.481 445.485,22.852C446.211,22.126 446.646,21.135 446.646,20.119L446.67,-0.05C446.67,-2.106 445.05,-3.775 443.066,-3.775L356.391,-3.775C355.424,-3.775 354.481,-3.387 353.828,-2.686C353.224,-2.057 352.861,-0.969 352.861,0.119L352.861,18.015C352.861,19.707 353.949,21.183 355.497,21.619C355.497,21.619 363.163,22.296 364.542,24.738C365.05,25.681 365.437,26.6 365.292,28.076L344.228,169.623C343.647,172.984 342.825,176.08 342.632,176.539C342.632,176.539 341.399,179.732 339.415,181.062C340.068,176.201 340.165,171.025 340.189,170.783L340.189,121.86C340.189,119.805 338.593,118.112 336.586,118.112L309.331,118.112C308.388,118.112 307.469,118.499 306.792,119.2C306.115,119.926 305.728,120.869 305.728,121.885L305.728,172.212C305.801,175.308 304.616,179.733 301.811,182.732C299.634,185.054 296.756,186.24 293.298,186.24C291.968,186.24 288.509,185.926 285.777,182.998C283.456,180.531 282.319,176.93 282.416,172.236L282.416,172.213C282.392,170.061 282.464,35.647 282.464,35.647C282.464,35.405 282.633,33.277 283.77,31.221C285.269,28.392 287.857,26.99 291.412,26.99C302.488,26.99 305.076,34.849 305.511,46.748L305.511,72.819C305.511,74.875 307.107,76.567 309.09,76.567L336.2,76.567C337.143,76.567 338.086,76.156 338.763,75.479C339.465,74.753 339.827,73.81 339.827,72.794L339.827,-0.048C339.803,-2.104 338.11,-3.796 336.079,-3.796L308.63,-3.796C306.574,-3.796 305.51,-1.958 305.51,-1.958L305.486,-1.958C299.005,-4.595 291.774,-6.433 285.607,-7.037C284.325,-7.158 283.019,-7.23 281.713,-7.23C270.056,-7.23 259.996,-2.49 258.521,-1.74C258.521,-1.74 245.316,4.983 238.448,17.099C234.313,24.378 234.942,32.287 234.966,32.94L234.99,181.235L234.966,181.38C235.014,193.882 239.077,204.571 246.695,212.263C255.087,220.751 267.711,225.273 283.188,225.273C283.478,225.273 284.808,225.25 284.905,225.25C297.65,225.105 308.871,221.551 318.206,214.73C326.308,208.83 331.313,201.669 334.046,196.736L334.046,204.718C334.312,207.812 336.924,209.216 338.738,209.216C338.907,209.216 384.639,199.179 384.639,199.179C385.896,198.575 386.646,197.292 386.646,195.841L386.646,176.349C386.646,175.333 386.259,174.343 385.558,173.665C384.881,172.964 384.01,172.601 383.067,172.601C383.043,172.601 376.344,172.771 376.102,172.746C376.634,169.168 381.519,136.713 381.519,136.713L400.891,136.713C401.834,142.275 405.196,162.347 405.389,163.484C405.389,163.484 405.921,168.127 402.1,168.83C399.754,169.24 396.683,170.547 396.901,173.375L396.852,177.873L396.852,192.723C396.852,193.762 397.312,194.78 398.037,195.504C398.714,196.133 399.561,196.447 400.432,196.471L400.601,196.448C417.046,193.739 458.666,189.071 458.666,189.071C459.198,189.024 459.658,188.805 459.996,188.516C460.625,188.854 461.108,189.071 461.568,189.071C461.568,189.071 479.391,188.128 486.888,187.813C486.888,187.813 488.701,187.524 488.726,184.719L488.726,183.992C489.597,184.428 490.346,184.765 491.023,185.033C493.442,186.023 496.199,186.797 499.173,187.426C503.163,188.248 507.419,188.684 511.556,188.684C516.49,188.684 520.552,188.225 524.349,187.209C526.695,186.58 529.016,185.709 531.411,184.572C536.61,182.131 541.568,178.14 546.187,172.722C554.119,163.388 555.086,151.222 555.086,149.82C555.086,149.143 555.11,118.575 555.11,118.575C555.11,118.091 555.086,113.689 554.046,108.829C553.2,104.814 551.483,100.679 550.2,98.14C549.596,96.931 547.323,92.723 543.792,88.998C540.406,85.467 535.933,82.251 535.933,82.251C535.933,82.251 535.884,82.227 510.346,65.685C504.156,61.767 503.333,58.987 503.357,56.543L503.357,36.687C503.406,35.816 503.986,29.166 511.144,29.166C520.89,29.166 523.164,36.204 523.478,46.748C523.478,47.885 523.455,60.557 523.455,61.064C523.455,63.144 525.074,64.813 527.033,64.813L551.387,64.813C553.369,64.813 555.014,63.144 555.014,61.088L554.942,21.475C555.088,21.524 562.754,22.951 564.737,24.885C565.559,25.658 565.704,26.118 565.776,27.932L566.018,154.8C565.341,160.871 556.877,161.549 556.877,161.549C555.159,161.838 553.877,163.41 553.877,165.225L553.854,184.184C553.854,186.12 555.256,187.715 557.119,187.932L560.916,188.368L561.98,188.44C582.149,189.577 601.713,191.561 622.198,194.463C622.198,194.463 623.456,194.582 624.471,193.52C625.196,192.77 625.656,191.778 625.656,190.713L625.656,170.811C625.656,168.924 624.374,167.377 622.585,167.086C622.585,167.086 612.669,165.779 612.355,161.451C612.355,160 612.21,109.504 612.21,109.504L618.595,109.504C621.739,109.358 622.634,117.146 623.286,120.387C623.624,122.128 625.1,123.386 626.793,123.386L648.728,123.386C650.71,123.386 652.355,121.693 652.355,119.637L652.355,66.579C652.355,64.523 650.71,62.83 648.728,62.83L626.238,62.83C624.447,62.83 622.9,64.232 622.658,66.047L621.908,71.415C621.908,71.415 621.135,75.89 618.571,76.18L612.066,76.18C612.066,63.58 612.017,37.099 611.993,31.271L622.368,31.271C622.997,31.295 624.641,31.464 626.117,31.972C626.769,32.19 627.978,32.963 628.704,33.617C629.187,34.053 630.324,35.504 630.615,36.228C631.025,37.171 631.146,38.164 631.195,38.575L631.195,55.794C631.195,57.873 632.815,59.542 634.799,59.542L660.168,59.542C662.15,59.542 663.795,57.873 663.795,55.794L663.795,21.475C663.94,21.548 670.203,23.265 670.324,26.892L670.324,27.086C670.348,28.609 670.47,168.343 670.47,168.439C670.47,168.439 670.397,174.002 666.239,174.703L661.014,175.43C659.273,175.696 657.918,177.268 657.895,179.129L657.846,197.438C657.846,198.67 658.45,199.831 659.467,200.557C659.467,200.557 729.381,217.147 729.43,217.147C729.721,217.147 729.987,217.075 730.229,216.93C730.446,217.219 730.688,217.461 731.002,217.606L731.195,217.704C735.5,218.936 739.418,220.073 743.166,221.21C797.217,237.439 844.594,259.808 874.822,275.745C874.822,275.745 875.67,276.204 877.193,275.286C878.256,274.632 878.838,273.399 878.838,272.116L878.886,250.061C878.886,248.538 878.016,247.184 876.66,246.579C876.66,246.579 865.826,243.194 865.826,236.181C865.826,229.144 865.898,158.357 865.947,119.058C873.759,156.567 892.791,247.474 893.009,248.489C893.082,248.876 893.541,250.835 894.315,251.755C895.016,252.626 896.298,252.819 897.242,252.819C897.363,252.819 903.772,252.794 903.772,252.794C903.917,252.771 905.174,252.601 906.19,251.608C907.133,250.69 907.762,248.633 907.762,248.633C907.762,248.633 926.286,156.397 933.879,118.694C933.856,166.094 933.759,282.49 933.759,284.281C933.686,286.529 933.323,288.779 933.106,289.625C932.549,291.342 929.672,292.164 929.14,292.262C928.826,292.311 927.762,292.455 924.013,293.059C922.247,293.35 920.965,294.897 920.942,296.76L920.918,316.469C920.918,318.549 922.538,320.242 924.522,320.242L996.396,320.242C997.364,320.242 998.283,319.806 998.959,319.129C999.612,318.404 999.999,317.461 999.999,316.469C1000,316.469 1000,316.469 999.855,296.275" style="fill:white;fill-rule:nonzero;"/>
        <path d="M398.283,246.506C387.642,246.506 377.606,251.414 370.786,260L314.97,260.242C313.833,260.193 311.826,259.056 311.826,256.904C311.874,254.558 313.639,253.64 315.187,253.566C316.299,253.64 317.339,254.558 317.92,255.38C318.573,256.3 319.637,256.855 320.798,256.855C321.62,256.855 322.418,256.589 323.023,256.058C324.595,254.8 324.401,252.14 323.314,250.326C321.766,247.81 318.647,246.287 314.97,246.215L314.825,246.215C312.407,246.215 309.722,247.449 307.836,249.432C306.482,250.834 304.91,253.252 304.934,256.856C304.958,264.499 311.439,267.667 314.898,267.667L315.067,267.667C315.309,267.667 372.455,267.474 375.309,267.45L375.599,267.45L375.744,267.231C380.944,259.59 389.384,255.018 398.284,255.018C413.544,255.018 425.974,268.053 425.974,284.014C425.974,300 413.543,313.012 398.284,313.012C389.07,313.012 380.509,308.223 375.333,300.194L375.188,299.928L374.898,299.928L183.991,299.709C179.904,299.879 175.019,304.668 175.092,310.375C175.189,317.389 180.388,321.088 185.467,321.113L185.515,321.113C188.49,321.113 191.633,319.129 192.818,317.799C194.729,315.623 194.995,313.301 193.52,311.656L193.496,311.656L193.472,311.633C192.891,311.1 192.214,310.834 191.416,310.834C189.82,310.834 188.369,311.875 187.812,312.455C187.231,313.035 186.409,313.736 185.466,313.736C183.725,313.687 182.225,312.115 182.249,310.398C182.249,308.681 183.676,307.183 185.272,307.183C185.345,307.183 363.845,307.351 370.278,307.351C377.146,316.372 387.327,321.548 398.283,321.548C418.041,321.548 434.099,304.691 434.099,284.013C434.099,263.338 418.041,246.506 398.283,246.506" style="fill:white;fill-rule:nonzero;"/>
        <path d="M853.979,299.709L663.047,299.928L662.757,299.928L662.588,300.17C657.437,308.199 648.852,313.012 639.637,313.012C624.377,313.012 611.971,300 611.971,284.014C611.971,268.03 624.377,255.043 639.637,255.043C648.561,255.043 656.977,259.59 662.177,267.231L662.346,267.473L662.612,267.473C665.491,267.473 726.047,267.666 726.289,267.666L726.409,267.666C729.868,267.666 736.374,264.498 736.397,256.855C736.421,253.251 734.825,250.834 733.495,249.408C731.585,247.424 728.901,246.191 726.482,246.191L726.361,246.191C722.661,246.263 719.542,247.81 718.018,250.302C716.929,252.14 716.736,254.777 718.284,256.081C718.913,256.565 719.711,256.831 720.509,256.831C721.67,256.831 722.758,256.3 723.387,255.403C723.991,254.557 725.032,253.614 726.144,253.542C727.667,253.64 729.457,254.558 729.482,256.903C729.505,259.081 727.474,260.217 726.337,260.241L667.183,260C660.315,251.414 650.303,246.48 639.637,246.48C619.904,246.48 603.822,263.337 603.822,284.013C603.822,304.716 619.904,321.523 639.637,321.523C650.617,321.523 660.799,316.373 667.666,307.328C674.1,307.328 852.455,307.158 852.455,307.158L852.672,307.158C854.269,307.158 855.672,308.681 855.695,310.398C855.719,312.14 854.22,313.687 852.455,313.736C851.512,313.736 850.665,313.011 850.133,312.429C849.553,311.898 848.102,310.833 846.529,310.833C845.756,310.833 845.03,311.099 844.449,311.655L844.426,311.655L844.426,311.68C842.951,313.276 843.193,315.621 845.104,317.823C846.313,319.153 849.432,321.136 852.407,321.136L852.479,321.113C857.558,321.088 862.757,317.388 862.831,310.375C862.902,304.668 858.065,299.879 853.979,299.709" style="fill:white;fill-rule:nonzero;"/>
        <path d="M639.637,275.646C635.453,275.646 632.043,279.226 632.043,283.603C632.043,287.98 635.453,291.56 639.637,291.56C642.444,291.56 644.957,289.988 646.288,287.4L813.687,287.183C815.646,287.183 817.243,285.538 817.243,283.482C817.243,281.451 815.646,279.783 813.687,279.783L646.408,280C645.127,277.34 642.491,275.646 639.637,275.646" style="fill:white;fill-rule:nonzero;"/>
        <path d="M391.584,287.424C392.914,289.988 395.405,291.561 398.21,291.561C402.394,291.561 405.804,287.981 405.804,283.604C405.804,279.227 402.394,275.647 398.21,275.647C395.356,275.647 392.745,277.34 391.463,280.001L224.353,279.784C222.394,279.784 220.798,281.452 220.798,283.483C220.798,285.54 222.394,287.184 224.353,287.184L391.584,287.424Z" style="fill:white;fill-rule:nonzero;"/>
        <path d="M910.424,305.32C909.674,304.836 836.18,258.404 742.66,230.351C667.472,207.763 592.672,196.324 520.339,196.324C468.029,196.324 402.564,199.758 313.568,224.933C218.042,251.996 138.719,300.337 135.406,302.394C133.084,303.796 132.335,306.869 133.665,309.261C133.665,309.261 134.681,311.197 136.615,311.56C138.042,311.898 140.219,311.003 140.219,311.003C143.556,308.972 221.815,261.28 316.084,234.581C403.992,209.696 468.683,206.335 520.34,206.335C591.778,206.335 665.685,217.653 740.026,239.976C832.336,267.665 904.67,313.398 905.42,313.833C907.668,315.259 910.619,314.534 911.997,312.163C913.373,309.818 912.672,306.748 910.424,305.32" style="fill:white;fill-rule:nonzero;"/>
        <path d="M493.471,282.758L485.248,282.565C484.837,282.54 484.475,282.879 484.401,283.313L483.047,291.126C482.346,294.343 481.307,297.413 481.016,298.284C479.952,301.354 478.888,303.581 477.825,304.862C475.889,307.208 473.447,307.981 472.649,307.981C472.044,307.981 470.859,307.303 470.182,305.756C469.577,304.354 469.36,302.225 469.239,300.943C469.239,300.943 469.021,262.394 469.021,244.449C469.021,239.25 469.021,235.744 469.069,235.26L469.069,235.139C469.069,235.09 469.046,235.067 469.046,235.018L469.046,234.922C469.046,234.365 469.095,233.35 469.384,232.383C469.651,231.608 470.158,230.906 470.57,230.375C470.594,230.352 470.86,229.988 470.86,229.988C471.296,229.336 472.601,228.56 474.343,227.957C474.681,227.859 474.923,227.498 474.923,227.135L474.825,220.412C474.802,220.144 474.704,219.928 474.511,219.758C474.343,219.613 474.124,219.541 473.907,219.541L443.241,222.152C442.805,222.175 442.467,222.588 442.467,223.023L442.419,229.214C442.419,229.528 442.685,229.89 442.975,230.036L445.732,231.413C446.941,232.235 447.546,233.276 447.715,233.565C448.053,234.147 448.61,235.792 448.924,237.483C448.924,237.508 449.335,241.62 449.335,241.643C449.335,242.635 449.553,301.086 449.553,301.086C449.553,301.086 449.48,302.635 449.045,304.158C448.658,305.512 447.908,306.625 447.667,306.914C447.28,307.471 446.313,308.391 445.539,308.922L443,310.373C442.734,310.518 442.492,310.857 442.492,311.195L442.685,317C442.709,317.459 443.072,317.822 443.507,317.822L490.11,317.894C490.52,317.894 490.883,317.554 490.907,317.095L494.294,283.722C494.317,283.48 494.245,283.238 494.076,283.044C493.906,282.879 493.688,282.758 493.471,282.758" style="fill:white;fill-rule:nonzero;"/>
        <path d="M532.842,306.264C532.624,306.119 532.285,306.094 532.043,306.168L529.602,307.063C528.223,307.352 526.627,307.45 525.635,307.45C525.006,307.45 521.815,307.352 520.145,305.659C518.38,303.846 518.114,300.436 518.09,299.083C518.041,297.171 518.041,283.628 518.066,260.944L518.09,259.952C518.066,259.686 518.066,259.009 518.428,258.743C518.695,258.526 519.492,258.356 519.856,258.38C519.952,258.429 520.049,258.454 520.049,258.454C520.194,258.501 520.339,258.429 520.459,258.405C521.402,258.405 529.795,258.38 529.795,258.38C530.133,258.38 530.447,258.14 530.593,257.8C530.859,257.003 531.342,255.31 531.633,252.939L531.875,248.804L531.875,248.417C531.85,247.909 531.463,247.45 531.027,247.45L520.265,247.45C519.008,247.546 518.404,247.378 518.283,247.28C518.017,247.038 517.896,246.434 517.896,245.973L517.896,229.989C517.896,229.723 517.798,229.481 517.582,229.288C517.389,229.118 517.098,229.069 516.855,229.143L499.347,233.93C498.984,234.028 498.718,234.366 498.718,234.778L498.718,246.12C498.718,246.749 498.62,247.208 498.427,247.352C498.258,247.522 497.702,247.618 497.097,247.571L488.56,247.571C488.078,247.571 487.714,247.958 487.714,248.44L487.665,257.317C487.665,257.557 487.763,257.753 487.907,257.921C488.052,258.091 488.294,258.187 488.511,258.187L496.686,258.187C497.194,258.14 498.088,258.236 498.378,258.623C498.571,258.816 498.74,259.324 498.74,260.221L498.717,260.68L498.717,302.76C498.74,303.121 498.862,306 499.805,308.756C500.603,311.151 502.223,313.279 502.997,314.102C503.723,314.852 505.705,316.569 508.124,317.536C510.301,318.407 512.549,318.6 512.791,318.624L521.739,318.624C521.86,318.601 524.689,318.263 524.689,318.263C524.81,318.238 525.511,318.044 525.511,318.044C525.56,318.021 528.993,316.98 528.993,316.98C530.565,316.376 531.266,315.82 532.089,315.021C533.081,314.078 533.298,313.402 533.298,312.99L533.226,306.969C533.229,306.676 533.06,306.434 532.842,306.264" style="fill:white;fill-rule:nonzero;"/>
        <path d="M569.916,298.09C569.891,300.531 567.449,304.789 562.975,304.789C558.405,304.789 555.696,301.16 555.72,298.041C555.744,296.082 555.647,264.861 555.647,263.869C555.647,262.346 556.639,256.639 562.492,256.639C568.901,256.639 569.844,262.129 569.917,263.289C569.988,264.16 569.964,296.227 569.916,298.09M596.566,309.891C595.525,309.868 592.89,309.651 591.22,308.295C588.972,306.481 588.826,302.297 588.826,302.25C588.778,299.879 588.705,222.83 588.705,222.057C588.705,221.645 588.415,221.282 588.028,221.186C585.803,220.823 578.136,219.565 570.785,219.397L560.579,219.348C560.362,219.348 560.143,219.444 559.975,219.59C559.805,219.758 559.733,219.977 559.733,220.194L559.733,226.893C559.733,227.329 560.047,227.739 560.506,227.764C561.498,227.836 562.416,228.03 563.191,228.344C564.618,228.924 565.948,230.133 566.456,230.641C566.747,230.955 568.294,232.551 568.972,234.149C569.31,234.971 569.601,236.253 569.601,237.026L569.601,237.245C569.552,237.364 569.503,237.462 569.503,237.462C569.527,237.413 569.575,237.439 569.601,237.39L569.601,247.474C569.576,247.91 569.455,248.587 569.214,248.925C569.02,249.216 568.633,249.361 568.294,249.361C568.077,249.263 567.109,248.781 567.109,248.781C566.262,248.322 564.908,247.523 563.312,246.967C560.797,246.121 557.725,245.807 556.613,245.807C555.307,245.807 547.085,246.702 542.683,250.62C537.145,255.554 537.168,264.38 537.168,264.477C537.168,264.452 537.217,305.008 537.217,305.008C537.217,305.057 537.41,309.99 540.845,313.545C543.989,316.785 548.366,318.576 551.123,318.649C551.123,318.649 558.523,319.471 563.117,317.051C565.101,316.012 567.64,314.03 568.172,313.569L568.971,313.569C569.14,313.909 569.987,315.674 571.219,316.835C572.211,317.778 573.59,318.021 574.219,318.021L596.54,318.021C597,318.021 597.387,317.634 597.387,317.126L597.387,310.765C597.389,310.303 597.002,309.891 596.566,309.891" style="fill:white;fill-rule:nonzero;"/>
        <path d="M395.816,106.022C394.921,106.046 387.448,105.998 386.699,105.998C385.925,105.998 385.32,105.346 385.441,104.402C385.659,102.926 390.568,60.435 390.592,60.242C390.64,60.049 390.761,59.952 390.906,59.952C391.052,59.952 391.197,60.073 391.245,60.242C391.293,60.412 396.807,103.773 396.928,104.426C397.05,105.103 396.711,105.998 395.816,106.022M389.045,39.275L378.477,111.221L403.918,111.221L392.382,39.226L389.045,39.275Z" style="fill:white;fill-rule:nonzero;"/>
        <path d="M407.424,114.317C406.796,115.115 405.852,115.575 404.885,115.575L377.533,115.575C376.542,115.575 375.623,115.115 374.97,114.342C374.366,113.568 374.075,112.552 374.244,111.561L385.055,37.897C385.297,36.205 386.675,34.947 388.32,34.947L393.06,34.898C394.704,34.898 396.107,36.131 396.373,37.8L408.175,111.512C408.343,112.528 408.053,113.567 407.424,114.317M445.998,167.811C445.587,167.329 444.305,165.829 443.556,164.063C442.637,162.008 442.153,159.758 442.129,159.663L442.129,159.638L422.879,36.519C422.879,36.47 422.178,32.625 421.96,30.835C421.67,28.562 421.67,27.256 421.67,26.603C421.67,25.394 421.67,23.532 422.855,20.75C423.677,18.743 425.491,17.099 426.289,16.397C427.232,15.575 429.481,14.099 431.899,13.47C433.544,13.011 435.236,12.939 436.083,12.939L436.228,12.939L436.228,7.086L363.29,7.086L363.242,12.769C364.282,13.011 366.386,13.64 368.369,14.777C370.449,15.986 372.069,17.824 372.915,19.154C373.81,20.63 374.971,23.241 375.31,25.877C375.673,29.166 375.092,32.19 375.068,32.286L354.56,171.342C354.512,171.656 353.182,179.201 351.876,181.668C351.876,181.668 349.965,185.15 348.394,187.037C346.918,188.851 345.226,190.351 344.524,190.98L344.524,195.912L376.205,189.359L376.205,183.724C375.334,183.701 374.149,183.554 372.964,183.24C370.884,182.709 368.925,181.306 368.2,180.58C367.45,179.855 366.217,178.041 365.733,176.082C365.274,174.002 365.612,172.019 365.636,171.947L372.287,127.787C372.335,127.424 372.504,126.698 373.061,126.264C373.569,125.901 374.222,125.804 374.56,125.804L407.281,125.804C407.644,125.804 408.345,125.901 408.974,126.312C409.869,126.916 410.014,127.788 410.038,127.981L415.697,161.645C415.721,161.743 416.205,164.571 416.036,167.256C415.89,169.238 415.214,171.125 414.682,172.19C414.15,173.18 412.675,175.165 410.982,176.469C409.579,177.533 408.128,178.186 407.33,178.526L407.33,184.112L452.167,179.083L452.167,171.778C451.611,171.561 450.692,171.198 449.821,170.739C448.126,169.818 446.675,168.586 445.998,167.811" style="fill:white;fill-rule:nonzero;"/>
        <path d="M533.446,14.8C533.47,15.067 533.349,16.518 532.624,16.904C531.463,17.533 530.545,16.686 530.326,16.565L530.278,16.565L530.182,16.469C528.949,15.478 522.516,10.399 518.621,8.513C514.776,6.626 511.246,5.321 508.126,4.619C503.071,3.506 497.92,3.409 497.727,3.409L497.606,3.409C495.696,3.409 489.529,3.917 484.04,6.19C480.509,7.666 477.825,9.987 474.923,12.671C468.925,18.185 468.103,26.915 468.054,27.351L468.079,63.505C468.079,63.554 468.079,67.302 468.901,71.123C469.457,73.904 470.714,76.854 471.657,78.692C472.746,80.724 474.777,83.457 476.761,85.488C478.889,87.665 481.114,89.237 481.187,89.309L507.184,106.479C507.208,106.503 509.941,108.245 512.165,110.107C513.616,111.365 514.753,112.719 515.31,113.565L515.431,113.735C515.987,114.63 517.076,116.225 517.607,118.184C518.406,121.207 518.478,124.714 518.478,124.762L518.478,141.158C518.478,141.351 518.527,146.14 517.366,150.47C516.834,152.428 515.746,154.557 514.464,156.105C512.795,158.137 510.159,160.844 506.943,162.248C503.556,163.723 497.705,163.867 497.656,163.867C495.6,163.867 493.787,163.578 492.142,163.045C489.095,162.055 485.806,159.805 483.339,157.072C481.573,155.09 479.929,152.042 479.058,149.092C478.067,145.706 478.019,142.78 478.019,142.659L477.873,123.118L468.03,123.118L467.932,177.653L478.162,177.653L478.041,169.696C478.018,168.923 478.283,167.497 479.42,167.085C479.613,167.013 479.83,166.964 480.072,166.964C481.088,166.964 482.129,167.737 482.345,167.907C483.699,168.778 490.616,173.178 494.8,174.872C499.321,176.71 505.585,177.798 511.56,177.798C516.904,177.798 521.595,177.267 527.085,174.679C530.905,172.865 534.702,169.769 538.355,165.49C543.941,158.912 544.619,149.625 544.643,149.19L544.643,118.574C544.643,118.55 544.619,114.97 543.821,111.197C543.217,108.271 541.91,105.079 540.967,103.241C540.072,101.451 538.356,98.767 536.348,96.663C533.664,93.834 530.448,91.536 530.351,91.464L504.837,74.922C504.57,74.753 498.5,70.593 497.025,68.417C496.396,67.521 494.8,65.128 494.027,62.83C493.01,59.831 492.914,56.953 492.914,56.833L492.914,35.696C492.914,35.55 492.914,32.261 494.51,28.731C495.284,26.941 496.736,24.982 498.573,23.193C501.765,20.097 506.844,18.017 511.22,18.017C515.598,18.017 524.207,20.556 528.633,27.28L528.705,27.377C530.181,29.674 531.704,31.996 532.454,34.535C534.171,40.17 533.929,45.659 533.905,46.07L533.905,53.93L544.546,53.93L544.546,7.183L533.445,7.183L533.445,14.8L533.446,14.8Z" style="fill:white;fill-rule:nonzero;"/>
        <path d="M106.143,253.301C106.119,253.447 104.16,267.885 103.507,271.295C102.878,274.729 101.451,278.09 100.992,279.201L100.895,279.469C99.444,283.096 96.905,286.434 93.325,289.432C85.804,295.768 77.606,296.059 77.509,296.059C77.509,296.059 57.05,296.034 57.001,296.034C56.614,296.034 54.631,295.889 54.631,293.013L54.679,26.773L54.679,26.725C54.703,26.507 55.235,21.162 59.564,16.954C62.248,14.27 66.263,13.134 67.98,12.746L67.98,7.255L10.423,7.255L10.447,12.551C12.527,13.059 16.88,14.462 19.685,17.896C23.434,22.467 23.555,27.788 23.555,27.835C23.579,38.307 24.087,283.941 24.087,284.304C24.087,284.57 24.353,291.173 21.645,295.236C18.018,300.75 13.132,302.273 11.416,302.683L11.368,309.503L114.028,309.237L121.017,225.633L109.506,225.61L106.143,253.301Z" style="fill:white;fill-rule:nonzero;"/>
        <path d="M563.168,13.059C564.063,13.301 565.635,13.712 567.207,14.486C569.383,15.55 571.367,17.219 572.164,18.114C572.697,18.671 574.39,20.63 575.187,22.975C576.106,25.611 576.179,28.44 576.179,28.561L576.493,155.018C576.493,155.115 576.42,157.654 575.719,160.266C575.09,162.467 573.88,164.62 573.034,165.635C572.284,166.53 570.325,168.514 568.052,169.674C566.335,170.569 564.618,171.028 563.652,171.27L563.652,177.704C566.965,178.018 581.862,179.517 590.036,180.05C593.592,180.292 595.937,180.581 609.045,182.058L615.212,182.783L615.212,176.955C614.462,176.785 613.205,176.496 611.875,175.867C609.649,174.875 607.256,173.158 606.312,172.142C605.441,171.247 603.796,169.046 602.999,167.038C602.008,164.475 601.935,162.13 601.91,161.862L601.741,101.718C601.717,101.379 601.669,100.073 602.322,99.251C602.732,98.791 603.482,98.574 604.691,98.574C605.078,98.574 605.392,98.597 605.49,98.622L618.719,98.598C621.959,98.647 624.885,100.074 627.473,102.806C629.819,105.322 630.932,107.982 631.053,108.296C631.729,109.941 632.141,111.585 632.358,112.504L641.887,112.504L641.887,73.737L632.141,73.737C631.995,74.583 631.657,76.01 631.028,77.509C630.158,79.589 628.61,81.789 627.837,82.636C626.894,83.676 625.442,85.127 623.653,85.973C621.622,86.916 619.372,87.062 619.275,87.086L604.088,87.086C603.484,87.086 602.734,86.989 602.226,86.602C601.574,85.998 601.622,84.91 601.646,84.62L601.549,22.999C601.501,22.758 601.403,21.597 602.105,20.943C602.589,20.435 603.363,20.339 603.968,20.339L604.088,20.339L622.396,20.363C622.445,20.363 625.951,20.412 629.433,21.645C631.779,22.443 634.197,24.16 635.527,25.369C636.785,26.481 639.058,29.142 640.195,31.778C641.549,34.994 641.646,37.968 641.646,38.138L641.646,48.658L653.327,48.658L653.327,7.134L563.146,7.134L563.168,13.059Z" style="fill:white;fill-rule:nonzero;"/>
        <path d="M329.746,128.997L316.203,128.997L316.348,171.899C316.348,171.948 316.348,176.422 315.139,180.702C314.147,184.21 312.043,187.739 310.496,189.432C309.553,190.424 306.191,193.809 302.128,195.381C297.654,197.147 292.454,197.17 292.406,197.17C291.221,197.17 288.875,197.049 286.36,196.18C283.579,195.211 280.556,193.035 278.911,191.414C277.218,189.65 274.776,186.361 273.542,183.193C272.115,179.541 271.994,176.107 271.97,175.961C271.97,175.961 272.212,46.433 272.115,40.048C271.994,31.825 274.364,26.046 279.829,21.354C282.562,18.985 287.81,16.251 293.638,16.251C297.774,16.251 301.619,17.605 305.125,20.29C315.307,28.053 315.959,44.038 315.959,44.231L315.959,65.682L329.333,65.682L329.212,7.302L315.427,7.302L315.427,11.027C315.427,11.173 315.669,12.672 314.387,13.252C312.863,13.93 311.05,12.865 310.783,12.696C309.477,11.946 306.019,9.939 301.69,8.174C296.2,5.949 289.816,4.305 284.641,3.82C283.673,3.723 282.658,3.675 281.642,3.675C271.848,3.675 262.948,8.124 262.851,8.173C257.192,10.664 250.251,17.121 247.687,22.199C244.809,27.809 244.592,32.985 244.592,33.01L244.592,181.063C244.592,181.135 244.471,188.293 247.034,194.848C249.065,200.047 253.612,204.522 256.103,206.746C259.513,209.767 266.816,212.283 272.113,213.348C275.547,214.026 279.054,214.387 282.585,214.387C282.972,214.387 285.511,214.364 285.632,214.364C288.728,214.364 294.774,214.073 300.36,212.139C306.116,210.157 312.162,206.19 317.966,200.676C321.352,197.387 325.729,191.389 327.736,185.223C329.985,178.33 329.743,171.026 329.743,170.93L329.743,128.997L329.746,128.997Z" style="fill:white;fill-rule:nonzero;"/>
        <path d="M816.01,198.598L815.986,198.694C815.333,200.532 811.85,209.868 804.088,212.915C803.605,213.157 801.282,214.124 797.244,214.124C792.625,214.124 787.571,212.892 782.13,210.474L780.872,209.892L780.872,207.038C780.872,205.298 780.751,29.53 780.872,27.45C780.968,25.298 781.38,24.064 782.25,22.057C783.193,19.928 785.2,17.703 786.047,17.002C789.095,14.439 792.311,13.302 793.714,12.915L793.714,7.159L740.122,7.159L739.904,13.084C741.984,13.834 747.208,15.986 749.239,18.478C750.182,19.638 751.512,21.791 752.117,24.016C752.987,27.063 752.987,30.037 752.987,30.159L752.987,188.781C752.987,188.902 752.891,191.9 752.117,194.584C751.536,196.762 750.376,198.334 749.529,199.277C748.513,200.437 746.651,201.597 744.79,202.252C743.12,202.832 741.452,203.074 740.509,203.195L740.509,209.869C744.016,210.982 762.517,216.834 775.721,221.502C788.781,226.096 814.609,236.303 819.759,238.334L831.996,163.025L825.757,163C821.088,179.977 816.082,198.307 816.01,198.598" style="fill:white;fill-rule:nonzero;"/>
        <path d="M718.041,196.059C715.646,194.559 713.06,192.213 712.213,191.028C711.729,190.327 710.012,187.885 709.214,185.225C708.344,182.323 708.367,179.444 708.367,179.323L708.344,29.118L708.344,29.094C708.344,29.045 708.61,26.119 709.36,23.41C709.843,21.742 710.69,20.049 711.319,19.13C712.141,18.018 713.93,16.252 715.503,15.067C716.398,14.366 717.244,13.881 717.752,13.616L717.752,7.11L671.102,7.28L671.102,13.277C671.755,13.616 672.843,14.245 673.931,15.067C675.31,16.107 676.591,17.267 677.171,18.066L677.196,18.114C677.8,18.912 679.009,20.532 679.735,22.468C680.557,24.74 680.774,27.232 680.799,27.522L680.799,27.546L680.944,168.417C680.944,168.515 680.944,170.933 680.34,173.472C679.857,175.673 678.768,178.068 678.019,179.083C677.8,179.397 675.697,182.177 672.964,183.726C671.222,184.718 669.384,185.177 668.345,185.371L668.345,191.684C673.374,192.868 715.189,202.856 721.525,204.428L721.502,197.705C720.726,197.438 719.396,196.904 718.041,196.059" style="fill:white;fill-rule:nonzero;"/>
        <path d="M985.9,301.91C983.675,301.088 981.595,299.758 980.701,298.84C979.83,297.92 977.92,295.672 977.05,293.664C975.84,290.834 975.817,288.32 975.817,288.199L975.696,28.585C975.696,28.488 975.793,25.925 976.712,23.337C977.462,21.185 979.01,19.129 980.073,18.066C981.234,16.856 983.145,15.526 984.862,14.728C986.602,13.93 988.344,13.398 989.311,13.156L989.311,7.062L935.043,7.062L911.125,127.303L911.125,127.352L911.101,127.376C911.101,127.424 910.762,128.416 910.327,128.899C909.868,129.455 908.973,129.528 908.731,129.552L908.707,129.552L902.009,129.479L901.961,129.479C901.864,129.479 900.801,129.358 900.074,128.536C899.47,127.81 899.131,126.529 899.083,126.264L875.043,7.134L830.568,7.134L830.64,13.229C831.608,13.447 833.349,13.906 835.066,14.777C837.218,15.816 839.274,17.557 840.363,18.84C841.426,20.073 842.804,22.395 843.41,24.837C844.014,27.207 843.918,29.456 843.893,29.698L844.014,220.967C844.014,221.088 844.062,223.266 843.24,225.539C842.515,227.594 841.015,229.674 839.903,230.738C838.984,231.656 837.243,232.937 835.115,233.808C833.398,234.509 831.487,234.97 830.519,235.187L830.519,243.046C832.502,243.917 839.419,247.062 847.98,251.124C856.13,255.017 865.465,259.563 868.633,261.112L868.633,254.993C867.811,254.63 866.118,253.784 864.474,252.72C862.563,251.511 860.628,249.818 859.757,248.632C858.718,247.206 857.267,244.763 856.566,242.538C855.598,239.563 855.55,236.759 855.55,236.614L855.695,79.467C855.695,79.418 855.672,78.234 856.324,77.654C856.76,77.218 857.388,77.145 857.824,77.145C857.944,77.145 858.09,77.145 858.137,77.169C858.669,77.145 866.335,77.145 866.529,77.145C867.013,77.145 867.449,77.266 867.738,77.508C868.246,77.944 868.44,78.862 868.512,79.225L900.507,232.962L931.318,79.297C931.415,78.91 931.656,77.967 932.14,77.508C932.478,77.218 932.986,77.097 933.639,77.097L933.906,77.097L941.886,77.169C941.958,77.145 942.031,77.145 942.152,77.145C942.588,77.145 943.24,77.243 943.773,77.702C944.57,78.476 944.546,79.733 944.546,79.854L944.4,284.522L944.4,284.618C944.376,286.915 944.11,292.575 942.344,295.38C940.457,298.403 937.073,302.175 931.582,303.118L931.582,309.528L989.672,309.528L989.623,302.852C988.779,302.732 987.352,302.418 985.9,301.91" style="fill:white;fill-rule:nonzero;"/>
    </g>
</svg>
