<?xml version="1.0" encoding="UTF-8" standalone="no"?>
<!DOCTYPE svg PUBLIC "-//W3C//DTD SVG 1.1//EN" "http://www.w3.org/Graphics/SVG/1.1/DTD/svg11.dtd">
<svg width="100%" height="100%" viewBox="0 0 240 54" version="1.1" xmlns="http://www.w3.org/2000/svg" xmlns:xlink="http://www.w3.org/1999/xlink" xml:space="preserve" xmlns:serif="http://www.serif.com/" style="fill-rule:evenodd;clip-rule:evenodd;stroke-linejoin:round;stroke-miterlimit:2;">
    <g id="layer1" transform="matrix(0.8,0,0,0.8,709.714303,227.282479)">
        <g id="g7995" transform="matrix(1.714702,0,0,1.714702,-1454.2609,-379.792)">
            <rect id="path4936" x="422.674" y="55.811" width="83.022" height="1.458" style="fill:white;fill-rule:nonzero;"/>
            <rect id="path4938" x="422.674" y="93.532" width="83.022" height="1.457" style="fill:white;fill-rule:nonzero;"/>
            <g id="g4948" transform="matrix(1.25,0,0,-1.25,434.20201,80.494595)">
                <path id="path4950" d="M0,0L0,-3.344C0,-6.196 -1.41,-7.606 -4.262,-7.606L-4.983,-7.606C-7.803,-7.606 -9.18,-6.196 -9.18,-3.409L-9.18,-0.213L-6.623,-0.213L-6.623,-3.508C-6.623,-4.688 -6.065,-5.245 -4.885,-5.245L-4.361,-5.245C-3.18,-5.245 -2.623,-4.688 -2.623,-3.508L-2.623,-0.065C-2.623,1.082 -3.016,1.574 -3.771,2.131L-6.983,4.459C-8.688,5.672 -9.18,6.852 -9.18,8.721L-9.18,11.474C-9.18,14.326 -7.77,15.736 -4.918,15.736L-4.262,15.736C-1.443,15.736 -0.066,14.326 -0.066,11.54L-0.066,9.573L-2.623,9.573L-2.623,11.638C-2.623,12.819 -3.18,13.376 -4.361,13.376L-4.82,13.376C-6,13.376 -6.557,12.819 -6.557,11.638L-6.557,8.753C-6.557,7.606 -6.131,7.114 -5.377,6.557L-2.196,4.262C-0.525,3.049 0,1.967 0,0" style="fill:white;fill-rule:nonzero;"/>
            </g>
            <g id="g4952" transform="matrix(1.25,0,0,-1.25,439.23338,89.75597)">
                <path id="path4954" d="M0,0L0,20.523L-3.442,20.523L-3.442,22.949L6.065,22.949L6.065,20.523L2.623,20.523L2.623,0L0,0Z" style="fill:white;fill-rule:nonzero;"/>
            </g>
            <g id="g4956" transform="matrix(1.25,0,0,-1.25,459.74488,84.674345)">
                <path id="path4958" d="M0,0C0,-2.852 -1.41,-4.262 -4.262,-4.262L-5.082,-4.262C-7.934,-4.262 -9.344,-2.852 -9.344,0L-9.344,18.884L-6.721,18.884L-6.721,-0.131C-6.721,-1.312 -6.164,-1.869 -4.983,-1.869L-4.36,-1.869C-3.18,-1.869 -2.623,-1.312 -2.623,-0.131L-2.623,18.884L0,18.884L0,0Z" style="fill:white;fill-rule:nonzero;"/>
            </g>
            <g id="g4960" transform="matrix(1.25,0,0,-1.25,465.11401,86.76422)">
                <path id="path4962" d="M0,0L1.574,0C3.344,0 4.164,0.885 4.164,2.655L4.164,15.507C4.164,17.277 3.344,18.162 1.574,18.162L0,18.162L0,0ZM-2.623,20.555L1.705,20.555C5.147,20.555 6.786,18.916 6.786,15.474L6.786,2.688C6.786,-0.754 5.147,-2.393 1.705,-2.393L-2.623,-2.393L-2.623,20.555Z" style="fill:white;fill-rule:nonzero;"/>
            </g>
            <rect id="path4964" x="475.57" y="61.07" width="3.279" height="28.686" style="fill:white;fill-rule:nonzero;"/>
            <g id="g4966" transform="matrix(1.25,0,0,-1.25,487.25476,63.81547)">
                <path id="path4968" d="M0,0L-0.787,0C-1.967,0 -2.524,-0.558 -2.524,-1.738L-2.524,-16.818C-2.524,-17.999 -1.967,-18.556 -0.787,-18.556L0,-18.556C1.18,-18.556 1.737,-17.999 1.737,-16.818L1.737,-1.738C1.737,-0.558 1.18,0 0,0M0.098,-20.949L-0.885,-20.949C-3.737,-20.949 -5.147,-19.54 -5.147,-16.687L-5.147,-1.869C-5.147,0.983 -3.737,2.393 -0.885,2.393L0.098,2.393C2.951,2.393 4.36,0.983 4.36,-1.869L4.36,-16.687C4.36,-19.54 2.951,-20.949 0.098,-20.949" style="fill:white;fill-rule:nonzero;"/>
            </g>
            <g id="g4970" transform="matrix(1.25,0,0,-1.25,505.62513,80.494595)">
                <path id="path4972" d="M0,0L0,-3.344C0,-6.196 -1.41,-7.606 -4.262,-7.606L-4.983,-7.606C-7.803,-7.606 -9.18,-6.196 -9.18,-3.409L-9.18,-0.213L-6.623,-0.213L-6.623,-3.508C-6.623,-4.688 -6.065,-5.245 -4.885,-5.245L-4.361,-5.245C-3.18,-5.245 -2.623,-4.688 -2.623,-3.508L-2.623,-0.065C-2.623,1.082 -3.016,1.574 -3.771,2.131L-6.983,4.459C-8.688,5.672 -9.18,6.852 -9.18,8.721L-9.18,11.474C-9.18,14.326 -7.77,15.736 -4.918,15.736L-4.262,15.736C-1.443,15.736 -0.065,14.326 -0.065,11.54L-0.065,9.573L-2.623,9.573L-2.623,11.638C-2.623,12.819 -3.18,13.376 -4.361,13.376L-4.82,13.376C-6,13.376 -6.557,12.819 -6.557,11.638L-6.557,8.753C-6.557,7.606 -6.131,7.114 -5.377,6.557L-2.196,4.262C-0.525,3.049 0,1.967 0,0" style="fill:white;fill-rule:nonzero;"/>
            </g>
            <rect id="path4974" x="330.739" y="55.805" width="87.028" height="39.2" style="fill:rgb(229,11,20);fill-rule:nonzero;"/>
            <g id="g4976" transform="matrix(1.25,0,0,-1.25,404.49326,66.292595)">
                <path id="path4978" d="M0,0L-3.716,0L-3.716,-5.184L0,-5.184L0,-9.374L-3.716,-9.374L-3.716,-14.636L0,-14.636L0,-18.764L-7.825,-18.764L-7.825,2.036L-11.124,-18.764L-15.951,-18.777C-15.951,-18.777 -18.413,-4.047 -18.417,-4.016L-18.417,-4.017C-18.019,-6.397 -19.515,-8.883 -20.838,-9.864L-18.226,-18.764L-18.237,-18.764L-18.235,-18.769L-22.293,-18.769L-24.285,-11.174L-25.245,-11.315L-25.245,-18.764L-25.257,-18.764L-25.257,-18.769L-25.261,-18.769L-33.108,-18.764L-33.59,-15.234L-36.808,-15.234L-37.292,-18.764L-45.283,-18.764L-45.283,-7.703L-47.142,-18.764L-49.345,-18.764L-51.231,-7.703L-51.231,-18.764L-55.377,-18.764L-55.377,4.184L-50.113,4.184L-48.265,-7.672L-46.368,4.184L-41.107,4.184L-41.107,-16.92L-37.942,4.187L-32.444,4.184L-29.383,-16.188L-29.367,4.184C-29.367,4.184 -25.19,4.186 -25.165,4.184C-21.382,4.184 -19.664,1.409 -19.179,0.453L-19.649,4.184L-15.452,4.184L-13.558,-9.792L-11.642,4.184L0,4.184L0,0Z" style="fill:white;fill-rule:nonzero;"/>
            </g>
            <g id="g4980" transform="matrix(1.25,0,0,-1.25,372.96213,66.16747)">
                <path id="path4982" d="M0,0L-0.02,0L-0.02,-7.38C0.304,-7.38 0.635,-7.303 0.954,-7.15C1.921,-6.679 2.744,-5.507 2.744,-3.65C2.744,-0.096 0.324,0.003 0,0" style="fill:rgb(229,11,20);fill-rule:nonzero;"/>
            </g>
            <g id="g4984" transform="matrix(1.25,0,0,-1.25,359.09314,80.76747)">
                <path id="path4986" d="M0,0L2.319,0L1.138,9.812L0,0Z" style="fill:rgb(229,11,20);fill-rule:nonzero;"/>
            </g>
            <g id="g4988" transform="matrix(1.25,0,0,-1.25,414.93101,89.741345)">
                <path id="path4990" d="M0,0L-7.634,0L-7.634,22.947L-3.523,22.947L-3.523,4.127L0,4.127L0,0Z" style="fill:white;fill-rule:nonzero;"/>
            </g>
        </g>
    </g>
</svg>
