<?xml version="1.0" encoding="UTF-8" standalone="no"?>
<!DOCTYPE svg PUBLIC "-//W3C//DTD SVG 1.1//EN" "http://www.w3.org/Graphics/SVG/1.1/DTD/svg11.dtd">
<svg width="100%" height="100%" viewBox="0 0 1001 455" version="1.1" xmlns="http://www.w3.org/2000/svg" xmlns:xlink="http://www.w3.org/1999/xlink" xml:space="preserve" xmlns:serif="http://www.serif.com/" style="fill-rule:evenodd;clip-rule:evenodd;stroke-linejoin:round;stroke-miterlimit:2;">
    <g>
        <path d="M644.585,160.433L631.944,171.965C630.333,173.445 627.705,173.445 626.092,171.965L611.638,158.773C610.009,157.293 610.009,154.897 611.638,153.417L624.28,141.871C625.891,140.404 628.51,140.404 630.122,141.871L644.585,155.077C646.205,156.557 646.205,158.952 644.585,160.433M594.854,114.907L582.222,126.444C580.602,127.924 577.974,127.924 576.353,126.444L561.9,113.247C560.289,111.767 560.289,109.371 561.9,107.895L574.532,96.349C576.161,94.877 578.78,94.877 580.401,96.349L594.854,109.55C596.467,111.031 596.467,113.427 594.854,114.907ZM545.012,69.373L532.371,80.91C530.75,82.39 528.123,82.39 526.511,80.91L512.061,67.714C510.436,66.246 510.436,63.842 512.061,62.361L524.689,50.824C526.318,49.344 528.946,49.344 530.558,50.824L545.012,64.021C546.623,65.502 546.623,67.897 545.012,69.373ZM391.726,131.862C391.726,133.952 389.869,135.646 387.582,135.646L369.712,135.646C367.426,135.646 365.568,133.952 365.568,131.862L365.568,113.195C365.568,111.105 367.425,109.411 369.712,109.411L387.582,109.411C389.868,109.411 391.726,111.105 391.726,113.195L391.726,131.862ZM391.726,196.248C391.726,198.341 389.869,200.031 387.582,200.031L369.712,200.031C367.426,200.031 365.568,198.341 365.568,196.248L365.568,177.58C365.568,175.491 367.425,173.796 369.712,173.796L387.582,173.796C389.868,173.796 391.726,175.491 391.726,177.58L391.726,196.248ZM391.726,260.632C391.726,262.726 389.869,264.418 387.582,264.418L369.712,264.418C367.426,264.418 365.568,262.726 365.568,260.632L365.568,241.974C365.568,239.881 367.425,238.195 369.712,238.195L387.582,238.195C389.868,238.195 391.726,239.882 391.726,241.974L391.726,260.632ZM643.175,139.12L643.324,51.525L547.385,51.587L490.757,0L482.838,7.336L494.992,18.435C496.612,19.915 496.612,22.312 494.992,23.791L482.36,35.323C480.739,36.803 478.12,36.803 476.495,35.323L464.464,24.12C464.034,24.505 460.044,28.158 456.203,31.658C461.722,36.694 478.028,51.587 478.028,51.587C453.351,51.631 416.051,51.517 391.94,51.587L391.725,63.964C391.725,66.058 389.868,67.753 387.581,67.753L369.711,67.753C367.425,67.753 365.567,66.058 365.567,63.964L365.567,51.587L354.035,51.605L354.14,322.496L365.567,322.514L365.567,309.864C365.567,307.781 367.424,306.081 369.711,306.081L387.581,306.081C389.867,306.081 391.725,307.781 391.725,309.864L391.725,322.514L643.279,322.427L643.226,202.538L665.38,222.703L673.431,215.411L661.517,204.325C659.888,202.845 659.888,200.449 661.517,198.977L674.141,187.431C675.76,185.951 678.389,185.736 679.773,187.207L689.401,196.23L691.923,198.376L700.078,191.062C683.032,175.329 660.502,154.958 643.175,139.12Z" style="fill:white;fill-rule:nonzero;"/>
        <path d="M0,451.704L1.713,451.704C4.665,451.704 7.429,450.731 7.429,445.308L7.429,397.558L3.238,392.311L0.289,392.311L0.289,390.7L19.898,390.7L55.796,433.833L55.984,433.833L55.984,397.376C55.984,393.993 53.693,392.312 49.505,392.312L47.701,392.312L47.701,390.7L65.689,390.7L65.689,392.311L64.357,392.311C60.073,392.311 58.269,394.886 58.269,397.112L58.269,454.376L54.266,454.376L9.903,400.31L9.715,400.31L9.715,445.748C9.715,450.82 11.805,451.705 17.144,451.705L17.994,451.705L17.994,453.316L0,453.316L0,451.704" style="fill:white;fill-rule:nonzero;"/>
        <path d="M77.897,451.704L85.61,451.704L85.61,392.311L77.897,392.311L77.897,390.7L131.118,390.7L131.118,408.403L129.406,408.403L129.406,407.15C129.406,399.065 123.024,392.311 111.698,392.311L100.468,392.311L100.468,419.52L107.033,419.52C113.222,419.52 116.459,416.235 116.459,407.781L116.459,406.801L118.172,406.801L118.172,434.903L116.459,434.903L116.459,432.862C116.459,426.547 113.223,421.124 107.033,421.124L100.468,421.124L100.468,451.705L114.173,451.705C129.792,451.705 132.069,439.616 132.069,434.553L132.069,433.309L133.781,433.309L133.781,453.317L77.897,453.317L77.897,451.704" style="fill:white;fill-rule:nonzero;"/>
        <path d="M149.712,392.312L149.712,390.7L177.222,390.7L177.222,392.311L171.511,392.311L186.364,434.095L186.552,434.095L194.742,410.182L188.553,392.311L181.699,392.311L181.699,390.7L211.212,390.7L211.212,392.311L203.787,392.311L218.263,434.368L218.451,434.368L229.296,402.446C230.348,399.425 230.921,397.287 230.921,396.044C230.921,394.52 230.059,392.312 224.443,392.312L223.782,392.312L223.782,390.7L241.298,390.7L241.298,392.311L240.439,392.311C237.873,392.311 234.723,394.081 232.25,401.019L213.025,454.735L210.739,454.735L195.983,413.108L195.786,413.108L181.03,454.735L178.652,454.735L155.994,392.311L149.712,392.311" style="fill:white;fill-rule:nonzero;"/>
        <path d="M285.976,451.704L293.695,451.704L293.695,392.311L285.976,392.311L285.976,390.7L317.114,390.7L317.114,392.311L308.538,392.311L308.538,451.704L319.493,451.704C336.347,451.704 340.148,444.057 340.148,433.746L340.148,431.968L341.861,431.968L341.861,453.316L285.976,453.316L285.976,451.704" style="fill:white;fill-rule:nonzero;"/>
        <path d="M353.694,451.704L361.407,451.704L361.407,392.312L353.694,392.312L353.694,390.7L383.969,390.7L383.969,392.312L376.251,392.312L376.251,451.704L383.969,451.704L383.969,453.315L353.694,453.315L353.694,451.704" style="fill:white;fill-rule:nonzero;"/>
        <path d="M397.494,451.704L399.207,451.704C402.158,451.704 404.923,450.731 404.923,445.308L404.923,397.558L400.732,392.311L397.784,392.311L397.784,390.7L417.393,390.7L453.29,433.833L453.478,433.833L453.478,397.376C453.478,393.993 451.187,392.312 447,392.312L445.187,392.312L445.187,390.7L463.184,390.7L463.184,392.311L461.853,392.311C457.569,392.311 455.765,394.886 455.765,397.112L455.765,454.376L451.752,454.376L407.397,400.31L407.209,400.31L407.209,445.748C407.209,450.82 409.298,451.705 414.629,451.705L415.487,451.705L415.487,453.316L397.494,453.316L397.494,451.704" style="fill:white;fill-rule:nonzero;"/>
        <path d="M475.392,451.704L483.105,451.704L483.105,392.311L475.392,392.311L475.392,390.7L528.614,390.7L528.614,408.403L526.896,408.403L526.896,407.15C526.896,399.065 520.519,392.311 509.193,392.311L497.963,392.311L497.963,419.52L504.529,419.52C510.717,419.52 513.945,416.235 513.945,407.781L513.945,406.801L515.658,406.801L515.658,434.903L513.945,434.903L513.945,432.862C513.945,426.547 510.717,421.124 504.529,421.124L497.963,421.124L497.963,451.705L511.668,451.705C527.282,451.705 529.577,439.616 529.577,434.553L529.577,433.309L531.276,433.309L531.276,453.317L475.392,453.317L475.392,451.704" style="fill:white;fill-rule:nonzero;"/>
        <path d="M634.695,412.144L632.978,412.144C631.454,403.069 623.359,390.884 612.514,390.884C602.896,390.884 597.184,399.337 597.184,422.008C597.184,443.618 601.372,453.123 612.217,453.123C624.497,453.123 631.646,441.744 632.978,434.552L633.538,431.522L634.976,431.522L634.976,453.316L633.538,453.316C633.171,451.967 632.015,449.664 630.017,449.664C626.977,449.664 622.694,454.736 611.271,454.736C592.419,454.736 581.189,439.002 581.189,423.077C581.189,407.239 592.98,389.281 612.514,389.281C619.365,389.281 625.829,393.819 629.841,393.819C631.83,393.819 632.881,393.013 632.978,391.156L634.695,391.156L634.695,412.144" style="fill:white;fill-rule:nonzero;"/>
        <path d="M652.618,451.704L660.327,451.704L660.327,392.312L652.618,392.312L652.618,390.7L682.892,390.7L682.892,392.312L675.175,392.312L675.175,451.704L682.892,451.704L682.892,453.315L652.618,453.315L652.618,451.704" style="fill:white;fill-rule:nonzero;"/>
        <path d="M696.409,451.704L698.135,451.704C701.078,451.704 703.846,450.731 703.846,445.308L703.846,397.558L699.658,392.311L696.698,392.311L696.698,390.7L716.311,390.7L752.209,433.833L752.393,433.833L752.393,397.376C752.393,393.993 750.097,392.312 745.928,392.312L744.106,392.312L744.106,390.7L762.098,390.7L762.098,392.311L760.776,392.311C756.475,392.311 754.671,394.886 754.671,397.112L754.671,454.376L750.676,454.376L706.317,400.31L706.124,400.31L706.124,445.748C706.124,450.82 708.227,451.705 713.553,451.705L714.411,451.705L714.411,453.316L696.41,453.316L696.41,451.704" style="fill:white;fill-rule:nonzero;"/>
        <path d="M774.311,451.704L782.029,451.704L782.029,392.311L774.311,392.311L774.311,390.7L827.536,390.7L827.536,408.403L825.81,408.403L825.81,407.15C825.81,399.065 819.433,392.311 808.107,392.311L796.877,392.311L796.877,419.52L803.438,419.52C809.632,419.52 812.874,416.235 812.874,407.781L812.874,406.801L814.581,406.801L814.581,434.903L812.874,434.903L812.874,432.862C812.874,426.547 809.633,421.124 803.438,421.124L796.877,421.124L796.877,451.705L810.595,451.705C826.197,451.705 828.483,439.616 828.483,434.553L828.483,433.309L830.201,433.309L830.201,453.317L774.312,453.317L774.312,451.704" style="fill:white;fill-rule:nonzero;"/>
        <path d="M846.404,451.704L846.79,451.704C853.167,451.704 854.122,447.885 854.122,444.057L854.122,392.312L846.878,392.312L846.878,390.7L871.247,390.7L887.06,433.658L887.261,433.658L903.344,390.7L926.286,390.7L926.286,392.311L919.146,392.311L919.146,451.704L926.286,451.704L926.286,453.315L896.1,453.315L896.1,451.704L904.29,451.704L904.29,393.905L904.098,393.905L881.917,453.315L879.342,453.315L856.601,392.836L856.4,392.836L856.4,443.258C856.4,450.458 858.397,451.703 863.54,451.703L864.871,451.703L864.871,453.314L846.405,453.314L846.405,451.704" style="fill:white;fill-rule:nonzero;"/>
        <path d="M971.522,431.608L963.252,409.113L963.051,409.113L954.589,431.608L971.522,431.608M938.594,451.704L939.829,451.704C943.447,451.441 945.164,449.304 946.303,446.378L968.378,389.28L969.815,389.28L995.341,451.704L1000.001,451.704L1000.001,453.315L971.618,453.315L971.618,451.704L979.24,451.704L972.293,433.212L953.819,433.212L949.246,445.747C948.966,446.465 948.58,447.438 948.58,448.419C948.58,451.353 951.261,451.704 953.152,451.704L955.824,451.704L955.824,453.315L938.594,453.315L938.594,451.704Z" style="fill:white;fill-rule:nonzero;"/>
    </g>
</svg>
