<?xml version="1.0" encoding="UTF-8" standalone="no"?>
<!DOCTYPE svg PUBLIC "-//W3C//DTD SVG 1.1//EN" "http://www.w3.org/Graphics/SVG/1.1/DTD/svg11.dtd">
<svg width="100%" height="100%" viewBox="0 0 2500 2500" version="1.1" xmlns="http://www.w3.org/2000/svg" xmlns:xlink="http://www.w3.org/1999/xlink" xml:space="preserve" xmlns:serif="http://www.serif.com/" style="fill-rule:evenodd;clip-rule:evenodd;stroke-linejoin:round;stroke-miterlimit:2;">
    <g transform="matrix(12.969765,0,0,12.969765,0,0)">
        <rect x="0" y="0" width="192.756" height="192.756" style="fill:white;fill-opacity:0;"/>
        <path d="M14.437,95.237C14.437,97.578 14.437,104.176 14.65,105.028C15.289,105.028 17.204,105.241 18.055,105.454L18.268,106.093C17.416,105.88 14.224,105.88 12.947,105.88C11.457,105.88 8.478,105.88 7.839,106.093L7.839,105.454C8.265,105.241 10.18,105.241 10.818,105.028C11.031,103.751 11.031,97.792 11.031,95.237L11.031,93.96C11.031,93.108 11.031,88.001 10.818,86.936C10.392,86.936 8.477,86.724 7.839,86.724L7.839,86.085L14.224,86.085C17.416,86.085 19.971,86.298 21.247,86.936C23.801,87.788 24.014,89.703 24.014,90.341C24.014,92.257 23.376,93.747 22.098,94.811C20.395,96.727 16.99,97.365 15.926,97.578L16.139,96.939C16.991,96.513 20.396,95.662 20.396,91.405C20.396,89.702 19.545,88.213 18.268,87.574C17.204,86.935 15.714,86.935 14.65,86.935C14.437,87.787 14.437,91.618 14.437,94.171L14.437,95.237ZM53.598,96.088C53.598,99.707 53.598,104.389 53.811,105.027C54.45,105.24 56.152,105.24 56.791,105.453L56.791,106.092C56.152,105.879 52.96,105.879 51.257,105.879C50.405,105.879 47.639,105.879 46.787,106.092L47,105.453C47.426,105.453 49.341,105.027 49.979,105.027C50.192,103.75 50.192,98.642 50.192,95.875L50.192,94.172C50.192,93.321 50.192,88 49.979,86.936C49.341,86.936 47.638,86.724 47,86.724L46.787,86.085L56.79,86.085L56.79,86.724C56.151,86.724 54.662,86.936 53.81,86.936C53.597,87.575 53.597,90.767 53.597,94.385L53.597,96.088L53.598,96.088ZM98.506,107.154C94.463,104.175 89.993,98.004 88.716,96.726C87.865,97.578 84.673,102.685 83.608,105.027C84.247,105.24 85.311,105.24 85.949,105.453L85.949,106.092C85.523,106.092 83.182,105.879 81.48,105.879C79.99,105.879 79.139,105.879 78.5,106.092L78.713,105.453C79.138,105.24 79.776,105.24 80.415,105.027C81.479,104.388 87.013,96.939 88.077,95.875C85.949,93.321 82.331,88.426 81.054,86.936C80.628,86.936 79.777,86.724 79.351,86.724L79.139,86.085L88.291,86.085L88.078,86.724C87.014,86.724 86.163,86.936 85.737,86.936C85.95,87.788 89.355,92.683 89.993,93.534C90.845,92.47 93.611,88.426 94.463,86.936C93.824,86.936 92.76,86.724 92.335,86.724L92.335,86.085L99.145,86.085L99.145,86.724C98.506,86.724 97.655,86.936 97.229,86.936C96.804,87.149 91.483,93.321 90.632,94.385C92.335,96.513 97.868,104.176 99.784,106.943L98.506,107.154ZM132.348,105.453C133.41,105.24 134.475,105.24 135.327,105.027C134.688,103.537 132.774,97.578 132.348,96.726C131.284,96.726 126.813,96.939 125.748,97.152C125.537,97.578 124.047,102.898 123.834,105.027C124.473,105.24 125.537,105.24 126.174,105.453L126.387,106.092C125.537,105.879 122.77,105.879 121.918,105.879C121.066,105.879 119.15,105.879 118.514,106.092L118.725,105.453C119.577,105.24 120.428,105.24 121.067,105.027C122.131,103.324 127.665,88 128.09,86.936C127.451,86.936 126.6,86.724 125.961,86.724L125.748,86.085L134.9,86.085L134.687,86.724C134.048,86.724 133.199,86.936 132.56,86.936C132.984,88.213 134.474,92.683 135.539,95.663C136.391,97.791 138.094,102.473 139.371,105.028C140.221,105.241 141.074,105.241 141.924,105.454L141.924,106.093C141.711,105.88 138.52,105.88 137.029,105.88C136.177,105.88 132.984,105.88 132.347,106.093L132.347,105.453L132.348,105.453ZM129.154,87.575C128.302,89.916 126.386,94.811 126.174,95.876L132.135,95.876C131.496,93.96 129.793,89.065 129.154,87.575ZM165.762,105.028L165.762,86.936C165.336,86.936 163.42,86.724 162.783,86.724L162.568,86.085L168.955,86.085C171.721,86.085 175.34,86.085 177.254,86.936C178.744,87.362 179.596,88.426 179.596,90.129C179.596,91.832 177.467,94.172 175.34,95.45C175.766,96.088 180.447,103.537 183.428,106.518L181.938,106.731C179.809,105.879 172.36,97.153 171.934,96.727L169.166,96.727L169.166,97.579C169.166,99.282 169.379,103.751 169.379,105.028C169.805,105.241 171.721,105.241 172.359,105.454L172.572,106.093C171.72,105.88 168.955,105.88 167.677,105.88C166.399,105.88 163.206,105.88 162.568,106.093L162.783,105.454C163.207,105.454 164.91,105.241 165.762,105.028ZM169.166,95.875C170.23,95.875 171.508,95.875 172.785,95.449C173.849,95.023 175.978,93.746 175.978,90.766C175.978,89.064 174.275,86.935 169.378,86.935C169.378,87.999 169.165,93.107 169.165,95.023L169.165,95.875L169.166,95.875ZM89.354,116.945C89.354,117.158 89.141,117.371 89.141,117.584C89.141,117.797 89.566,117.797 89.78,117.797L89.78,118.01L88.29,118.01L88.29,117.797C88.503,117.797 88.715,117.797 88.715,117.584C89.141,117.158 90.418,113.967 90.418,113.754C90.631,113.541 90.631,113.328 90.631,113.328L90.844,113.328C90.844,113.328 90.844,113.541 91.057,113.754C91.27,114.18 91.908,116.094 92.121,116.52C92.546,117.797 92.546,117.797 92.972,117.797L92.972,118.01L91.269,118.01L91.269,117.797C91.482,117.797 91.695,117.797 91.695,117.584C91.695,117.371 91.269,116.52 91.269,116.307L90.63,116.307C90.417,116.307 89.991,116.307 89.566,116.52L89.354,116.945ZM89.78,116.094L91.057,116.094C90.844,115.455 90.631,115.03 90.418,114.393L89.78,116.094ZM99.357,116.945L99.357,115.881C99.357,114.606 99.357,114.606 98.931,114.606L98.931,114.393L99.357,114.393L99.57,114.606L99.996,114.393L99.996,114.606C99.996,114.606 99.783,114.606 99.783,114.819L99.783,116.307C99.57,116.307 99.57,117.159 99.57,117.371C99.57,117.371 99.57,117.797 99.783,117.797L99.783,118.01L99.57,118.01L98.718,117.158L97.017,115.455L96.803,115.244L96.803,117.158C96.803,117.584 96.803,117.797 97.441,117.797L97.441,118.01L95.951,118.01L95.951,117.797C96.377,117.797 96.377,117.584 96.377,117.158L96.377,115.455C96.377,115.029 96.377,114.605 95.951,114.605L95.951,114.392L96.803,114.392C97.228,114.818 97.228,114.818 98.079,115.88C98.292,116.093 98.718,116.306 98.931,116.519L99.357,116.945ZM102.338,117.797C102.551,117.797 102.764,117.797 102.977,117.584L102.977,114.819C102.977,114.819 102.764,114.606 102.338,114.606L102.338,114.393L104.042,114.393L104.042,114.606C103.829,114.606 103.829,114.606 103.616,114.819L103.616,117.584C103.616,117.797 103.616,117.797 104.042,117.797L104.042,118.01L102.338,118.01L102.338,117.797ZM107.02,116.945L107.02,115.244C107.02,114.818 107.02,114.605 106.381,114.605L106.594,114.392L106.807,114.392C107.233,114.605 107.446,114.605 107.659,114.605C108.085,115.455 108.085,115.667 108.511,116.306C108.511,116.519 108.937,117.158 108.937,117.158L109.576,115.88L110.215,114.605L111.279,114.605C110.853,114.818 110.64,114.818 110.64,115.244C110.64,115.455 110.64,117.371 110.853,117.584C110.853,117.797 110.853,117.797 111.279,117.797L111.279,118.01L109.788,118.01L109.788,117.797C110.001,117.797 110.214,117.797 110.214,117.158L110.214,115.244C109.362,116.519 109.15,117.158 108.724,118.01C108.511,117.584 108.511,117.371 107.872,116.307L107.446,115.455L107.446,115.881C107.233,116.307 107.233,116.945 107.233,117.371C107.233,117.797 107.233,117.797 107.872,117.797L107.872,118.01L106.381,118.01L106.381,117.797C107.02,117.797 107.02,117.584 107.02,116.945ZM114.469,117.158C114.256,117.371 114.256,117.584 114.256,117.584C114.256,117.797 114.469,117.797 114.682,117.797L114.682,118.01L113.617,118.01L113.617,117.797C113.617,117.797 113.83,117.797 113.83,117.584C114.043,117.371 115.107,115.029 115.107,114.818C115.107,114.605 115.32,114.605 115.32,114.392C115.533,114.605 115.533,114.605 115.533,114.818C115.746,115.244 116.172,116.732 116.385,116.945C116.598,117.797 116.811,117.797 117.024,117.797L117.024,118.01L115.746,118.01L115.746,117.797C115.959,117.797 115.959,117.797 115.959,117.584C115.959,117.584 115.746,116.945 115.746,116.732L114.468,116.732L114.468,117.158L114.469,117.158ZM114.682,116.52L115.534,116.52C115.534,116.094 115.321,115.668 115.108,115.456L114.682,116.52ZM122.77,114.818L121.492,114.818L121.492,117.158C121.492,117.797 121.492,117.797 121.705,117.797L122.131,117.797L122.131,118.01L120.215,118.01C120.428,118.01 120.854,117.797 120.854,117.797L120.854,114.819L120.428,114.819C119.576,114.819 119.576,114.819 119.576,115.03L119.363,115.03C119.576,114.606 119.576,114.606 119.576,114.393L119.789,114.393C120.002,114.606 120.853,114.606 121.279,114.606C121.705,114.606 122.556,114.393 122.769,114.393L122.982,114.393L122.982,115.03L122.769,115.03L122.769,114.818L122.77,114.818ZM125.324,117.797C125.537,117.797 125.748,117.797 125.961,117.584L125.961,114.819C125.961,114.819 125.961,114.606 125.537,114.606L125.537,114.393L127.239,114.393L127.239,114.606C126.813,114.606 126.813,114.606 126.813,114.819C126.6,114.819 126.6,115.881 126.6,116.094L126.6,117.584C126.6,117.797 126.813,117.797 127.239,117.797L127.026,118.01L125.324,118.01L125.324,117.797ZM131.496,114.393C132.56,114.393 133.41,115.245 133.41,116.307C133.41,117.159 132.56,118.01 131.496,118.01C130.219,118.01 129.58,117.158 129.58,116.307C129.58,115.029 130.645,114.393 131.496,114.393ZM131.709,117.797C131.922,117.797 132.773,117.584 132.773,116.733C132.773,115.882 132.347,114.606 131.283,114.606C131.07,114.606 130.219,114.819 130.219,115.881C130.219,116.945 130.645,117.797 131.709,117.797ZM139.371,116.945L139.371,115.881C139.371,114.606 139.158,114.606 138.732,114.606L138.732,114.393L139.158,114.393C139.371,114.393 139.371,114.606 139.584,114.606L140.01,114.393L140.01,114.606C139.797,114.606 139.797,114.606 139.584,114.819L139.584,118.01L139.371,118.01C139.158,117.797 138.945,117.371 138.519,117.158L136.816,115.455C136.816,115.455 136.816,115.244 136.603,115.244L136.603,117.158C136.603,117.584 136.603,117.797 137.242,117.797L137.242,118.01L135.964,118.01L135.964,117.797C136.177,117.797 136.39,117.584 136.39,117.158L136.39,115.455C136.39,115.029 136.39,114.605 135.964,114.605L135.964,114.392L136.603,114.392L138.093,115.88L138.732,116.519L139.371,116.945ZM146.82,116.732C147.033,117.158 147.033,117.371 147.672,117.584C147.883,117.797 148.311,117.797 148.734,117.797C148.947,117.797 149.373,117.797 149.373,116.945C149.373,116.519 148.947,116.306 148.311,115.881C147.459,115.668 147.034,115.455 147.034,114.606C147.034,113.754 147.673,113.329 148.522,113.329L150.012,113.329L149.799,113.755L150.012,114.181L150.012,114.394L149.799,114.394C149.586,113.542 148.522,113.542 148.522,113.542C147.883,113.542 147.672,113.968 147.672,114.394C147.672,114.607 147.672,115.031 148.734,115.246C149.373,115.457 150.011,115.883 150.011,116.734C150.011,117.16 149.798,118.011 148.31,118.011L147.033,118.011C147.033,117.584 146.82,117.371 146.82,116.732ZM156.609,114.818L155.546,114.818L155.546,117.158C155.546,117.797 155.546,117.797 155.757,117.797L155.97,117.797L155.97,118.01L154.269,118.01L154.695,117.797C154.908,117.584 154.908,116.52 154.908,116.307L154.908,114.819L154.269,114.819C153.63,114.819 153.63,114.819 153.417,115.03L153.204,115.03C153.417,114.606 153.417,114.606 153.63,114.393L153.843,114.393C154.056,114.606 154.907,114.606 155.12,114.606C155.546,114.606 156.395,114.393 156.821,114.393L157.034,114.393C157.034,114.606 156.821,114.819 156.821,115.03L156.608,115.03L156.608,114.818L156.609,114.818ZM159.803,115.244C159.803,114.605 159.803,114.605 159.377,114.605L161.08,114.605L160.867,114.605C160.441,114.818 160.441,114.818 160.441,116.093C160.441,117.157 160.441,117.37 160.654,117.583C160.867,117.796 161.293,117.796 161.506,117.796C161.506,117.796 162.145,117.796 162.358,117.157C162.569,116.944 162.569,116.305 162.569,115.667C162.569,114.605 162.569,114.605 162.145,114.605L162.358,114.392C162.569,114.392 162.569,114.605 162.784,114.605L163.208,114.605C163.208,114.605 162.995,114.605 162.995,114.818C162.784,114.818 162.784,115.455 162.784,115.668C162.784,116.094 162.784,117.158 162.569,117.371C162.358,118.01 161.719,118.01 161.294,118.01C160.655,118.01 159.804,118.01 159.804,116.946L159.804,115.244L159.803,115.244ZM165.975,116.945L165.975,115.245C165.975,114.819 165.975,114.606 165.762,114.606L166.614,114.606C166.827,114.606 167.253,114.393 167.466,114.393C168.53,114.393 169.38,115.245 169.38,116.307C169.38,116.946 168.956,118.01 167.253,118.01L165.549,118.01L165.549,117.797C165.975,117.797 165.975,117.797 165.975,116.945ZM167.252,114.605C167.252,114.605 167.039,114.605 166.613,114.818L166.613,117.583C166.826,117.796 167.039,117.796 167.465,117.796C168.104,117.796 168.742,117.157 168.742,116.306C168.742,115.029 167.891,114.605 167.252,114.605ZM171.934,117.797C172.147,117.797 172.36,117.797 172.36,117.584C172.573,117.584 172.573,116.52 172.573,116.307C172.573,116.094 172.573,115.03 172.36,114.819C172.36,114.819 172.36,114.606 171.934,114.606L171.934,114.393L173.638,114.393L173.638,114.606C173.425,114.606 173.212,114.606 173.212,114.819L173.212,117.584C173.212,117.797 173.212,117.797 173.638,117.797L173.638,118.01L171.934,118.01L171.934,117.797ZM178.105,114.393C179.169,114.393 179.808,115.245 179.808,116.307C179.808,117.159 179.169,118.01 178.105,118.01C176.83,118.01 176.191,117.158 176.191,116.307C176.191,115.029 177.041,114.393 178.105,114.393ZM178.105,117.797C178.531,117.797 179.169,117.584 179.169,116.733C179.169,115.882 178.956,114.606 177.892,114.606C177.679,114.606 176.83,114.819 176.83,115.881C176.83,116.945 177.254,117.797 178.105,117.797ZM182.576,116.945C182.576,117.371 182.789,117.584 183.002,117.584C183.428,117.797 183.641,117.797 183.854,117.797C184.067,117.797 184.491,117.797 184.491,117.371C184.491,116.732 184.067,116.732 183.429,116.519C183.003,116.306 182.577,116.093 182.577,115.455C182.577,114.818 183.003,114.393 183.854,114.393L184.491,114.606C184.704,114.606 184.704,114.606 184.704,114.393L184.704,115.245C184.491,114.606 183.854,114.606 183.642,114.606C183.216,114.606 183.003,115.03 183.003,115.245C183.003,115.456 183.216,115.669 183.855,115.882C184.279,116.095 184.917,116.308 184.917,117.159C184.917,117.372 184.704,118.011 183.642,118.011L182.577,118.011C182.577,117.798 182.577,117.585 182.364,117.159L182.576,116.945Z" style="fill:white;"/>
    </g>
</svg>
