<?xml version="1.0" encoding="UTF-8" standalone="no"?>
<!DOCTYPE svg PUBLIC "-//W3C//DTD SVG 1.1//EN" "http://www.w3.org/Graphics/SVG/1.1/DTD/svg11.dtd">
<svg width="100%" height="100%" viewBox="0 0 1280 226" version="1.1" xmlns="http://www.w3.org/2000/svg" xmlns:xlink="http://www.w3.org/1999/xlink" xml:space="preserve" xmlns:serif="http://www.serif.com/" style="fill-rule:evenodd;clip-rule:evenodd;stroke-linejoin:round;stroke-miterlimit:2;">
    <g id="Layer_2">
        <g id="logo">
            <path id="path1" d="M456.013,225.28C409.6,225.28 366.592,211.456 337.92,185.677C317.189,167.049 305.471,140.355 305.792,112.486C305.728,84.744 317.407,58.23 337.92,39.552C364.544,15.36 411.648,0 456.013,0C505.088,0 544.384,12.365 574.413,39.603C594.848,58.278 606.383,84.805 606.106,112.486C605.968,140.173 594.51,166.633 574.413,185.677C546.432,211.61 502.502,225.28 456.013,225.28L456.013,195.635C480.615,195.635 503.45,187.136 519.398,171.264C535.347,155.392 542.592,136.141 542.592,112.384C542.592,89.702 534.63,68.506 519.398,53.504C503.654,38.016 480.282,29.286 456.013,29.286C431.744,29.286 408.269,37.939 392.525,53.504C377.344,68.531 369.485,89.805 369.485,112.384C369.025,134.286 377.323,155.491 392.525,171.264C408.269,186.957 431.591,195.635 456.013,195.635L456.013,225.28ZM117.12,0C92.314,0 64.128,4.659 40.32,15.36C18.099,25.293 0,41.242 0,67.686C-0.033,81.53 5.237,94.875 14.72,104.96C21.146,110.899 31.514,120.986 58.599,126.925C70.707,129.485 96.589,133.606 122.368,136.32C148.147,139.034 173.133,141.44 183.373,144.179C191.514,146.253 205.21,149.069 205.21,164.429C205.21,179.789 190.797,184.397 188.288,185.395C185.779,186.394 168.474,194.33 137.395,194.33C116.804,193.758 96.4,190.249 76.8,183.91C65.203,179.763 53.043,174.31 41.703,160.461C37.126,153.94 34.587,146.205 34.407,138.24L6.247,138.24L6.247,217.088L37.53,217.088L37.53,206.413C37.53,206.404 37.53,206.394 37.53,206.385C37.53,203.941 39.54,201.931 41.984,201.931C42.796,201.931 43.593,202.153 44.288,202.573C59.027,208.986 74.357,213.942 90.061,217.37C106.496,220.8 117.12,223.283 137.549,223.283C159.106,223.693 180.59,220.66 201.191,214.298C214.87,210.548 227.705,204.213 239.002,195.635C251.873,185.748 259.379,170.367 259.251,154.138C259.358,138.923 253.48,124.259 242.893,113.331C237.004,107.616 230.181,102.949 222.72,99.533C214.699,95.909 206.372,93.005 197.837,90.854C181.607,86.886 145.152,81.92 127.719,80.179C109.44,78.285 77.722,75.648 65.05,71.731C61.21,70.528 53.376,66.816 53.376,57.728C53.376,51.251 56.96,45.773 64.026,41.344C75.264,34.304 97.946,29.926 121.6,29.926C144.496,29.65 167.205,34.086 188.314,42.957C193.985,45.427 199.319,48.61 204.186,52.429C212.118,59.204 217.614,68.397 219.827,78.592L245.095,78.592L245.095,9.958L216.935,9.958L216.935,17.92C216.935,20.48 214.375,23.859 209.255,21.069C196.557,14.464 160.871,0.179 117.12,0ZM735.334,12.595L872.96,136.781L871.552,53.171C871.398,42.189 869.402,37.606 857.523,37.606L831.667,37.606L831.667,12.595L949.427,12.595L949.427,37.606L924.16,37.606C912.077,37.606 911.36,41.498 911.155,53.171L913.28,212.941L872.96,212.941L714.419,71.475L714.419,171.853C714.547,182.784 715.059,187.93 726.298,187.93L754.458,187.93L754.458,212.941L639.027,212.941L639.027,187.93L666.061,187.93C676.147,187.93 675.738,178.304 675.738,171.29L675.738,54.118C675.738,46.438 674.662,37.632 658.842,37.632L636.928,37.632L636.928,12.595L735.334,12.595ZM1083.776,187.878C1086.104,187.879 1088.429,187.733 1090.739,187.443C1093.166,186.715 1095.153,184.953 1096.166,182.63C1096.52,180.852 1096.7,179.042 1096.704,177.229L1096.704,137.677C1096.704,136.346 1096.704,136.32 1095.014,134.221C1093.325,132.122 1022.925,52.301 1019.725,48.717C1015.731,44.365 1008.717,37.632 998.042,37.632L973.594,37.632L973.594,12.595L1111.578,12.595L1111.578,37.581L1094.938,37.581C1091.098,37.581 1088.538,41.242 1091.814,45.261C1091.814,45.261 1138.253,100.813 1138.688,101.402C1139.123,101.99 1139.507,102.118 1140.096,101.581C1140.685,101.043 1187.686,45.773 1188.045,45.261C1188.68,44.427 1189.024,43.407 1189.024,42.359C1189.024,39.733 1186.863,37.572 1184.237,37.572C1184.141,37.572 1184.045,37.575 1183.949,37.581L1166.874,37.581L1166.874,12.595L1280,12.595L1280,37.632L1254.733,37.632C1245.568,37.632 1241.933,39.322 1234.944,47.104L1158.784,133.99C1158.038,135.066 1157.711,136.377 1157.862,137.677L1157.862,177.203C1157.876,179.018 1158.064,180.827 1158.426,182.605C1159.422,184.93 1161.403,186.695 1163.827,187.418C1166.119,187.72 1168.428,187.866 1170.739,187.853L1196.57,187.853L1196.57,212.89L1059.302,212.89L1059.302,187.853L1083.776,187.878Z" style="fill:white;fill-rule:nonzero;"/>
        </g>
    </g>
</svg>
