<?xml version="1.0" encoding="UTF-8" standalone="no"?>
<!DOCTYPE svg PUBLIC "-//W3C//DTD SVG 1.1//EN" "http://www.w3.org/Graphics/SVG/1.1/DTD/svg11.dtd">
<svg width="100%" height="100%" viewBox="0 0 800 800" version="1.1" xmlns="http://www.w3.org/2000/svg" xmlns:xlink="http://www.w3.org/1999/xlink" xml:space="preserve" xmlns:serif="http://www.serif.com/" style="fill-rule:evenodd;clip-rule:evenodd;stroke-linejoin:round;stroke-miterlimit:2;">
    <g transform="matrix(4.150325,0,0,4.150325,0,0)">
        <path d="M59.043,93.725L56.236,87.518L53.867,87.531L50.494,93.727L59.043,93.725ZM54.186,86.155L55.821,86.172L55.136,84.345L54.186,86.155ZM64.59,87.408L63.347,93.88L144.74,93.901L142.434,87.416L140.035,87.416L138.523,89.18L136.834,87.416L64.59,87.408ZM76.554,79.69L72.444,71.736L69.474,71.728L64.707,79.661L76.554,79.69ZM142.197,86.447L141.252,83.917L140.275,86.447L142.197,86.447ZM115.256,70.819L115.256,63.214L113.314,63.214L113.314,60.802L102.977,60.792L102.977,63.227L101.26,63.227L100.68,65.005L99.137,62.474L96.328,68.721L94.798,68.721L95.235,67.066L92.55,60.761L91.061,60.773L88.109,67.098L88.461,68.721L87.306,68.721L88.055,70.812L115.256,70.819ZM91.789,58.439L91.271,59.699L92.332,59.699L91.789,58.439ZM113.314,59.949L113.314,56.154L114.697,53.183L113.314,51.741L113.314,48.358L103.078,48.358L103.068,51.737L101.75,53.194L102.977,56.141L102.977,59.949L113.314,59.949ZM69.854,71.119L72.249,71.119L71.108,68.801L69.854,71.119ZM54.982,81.812L54.981,79.723L50.41,80.942L54.982,81.812ZM71.137,66.117L71.135,64.029L66.564,65.249L71.137,66.117ZM91.676,55.732L91.674,53.644L87.103,54.863L91.676,55.732ZM121.678,65.079L121.676,62.991L117.104,64.21L121.678,65.079ZM132.639,71.887L132.637,69.799L128.066,71.019L132.639,71.887ZM56.679,151.393L56.679,149.779L51.824,149.779L51.824,151.393L53.307,151.393L53.307,160.933L51.824,160.933L51.824,162.547L56.679,162.547L56.679,160.933L55.195,160.933L55.2,151.393L56.679,151.393ZM90.45,151.502L90.45,153.534L91.983,153.534L91.983,149.779L82.511,149.779L82.511,153.534L84.05,153.534L84.05,151.502L86.306,151.502L86.306,160.933L84.821,160.933L84.821,162.547L89.678,162.547L89.678,160.933L88.194,160.933L88.194,151.502L90.45,151.502ZM75.867,158.782L73.793,158.782C73.583,159.11 73.33,159.408 73.041,159.668C71.82,160.73 70.474,161.036 69.121,160.826C68.084,160.651 67.135,160.132 66.429,159.353C65.457,158.267 65.101,156.904 65.227,155.605C65.269,155.208 65.355,154.816 65.484,154.438C65.604,154.089 65.748,153.797 65.921,153.525C66.267,152.976 66.726,152.507 67.266,152.148C68.733,151.192 70.612,151.114 72.153,151.947C72.803,152.292 73.349,152.804 73.737,153.429L75.56,153.429L75.56,149.779L73.973,149.779L73.973,151.185C73.908,151.12 73.842,151.055 73.775,150.992C73.287,150.519 72.712,150.144 72.082,149.887C71.056,149.475 69.797,149.342 68.561,149.594C68.142,149.68 67.731,149.808 67.338,149.976C65.995,150.547 64.877,151.546 64.159,152.816C63.181,154.559 63.026,156.573 63.724,158.542C63.924,159.088 64.197,159.607 64.533,160.081C65.202,161.048 66.211,161.804 67.135,162.238C68.063,162.679 68.892,162.832 69.78,162.858C70.657,162.882 71.662,162.684 72.663,162.208C73.158,161.97 73.623,161.668 74.043,161.313C74.893,160.604 75.543,159.652 75.867,158.782ZM142.418,160.857L138.533,160.857L138.533,156.858L142.766,156.858L142.766,155.338L138.533,155.338L138.533,151.51L142.418,151.51L142.418,153.376L144.312,153.376L144.312,149.779L135.162,149.779L135.162,151.393L136.646,151.393L136.646,160.933L135.162,160.933L135.162,162.547L144.312,162.547L144.312,158.95L142.418,158.95L142.418,160.857ZM110.566,151.393L110.56,149.78L105.874,149.78L105.874,151.393L107.194,151.393C107.192,153.721 107.198,156.049 107.19,158.377C107.178,158.694 107.124,159.173 106.954,159.599C106.866,159.815 106.745,160.019 106.597,160.2C106.147,160.754 105.465,161.069 104.751,161.054C104.244,161.059 103.749,160.903 103.337,160.609C103.133,160.462 102.954,160.284 102.806,160.081C102.382,159.513 102.304,158.814 102.306,158.168L102.306,151.395L103.628,151.395L103.628,149.782L98.94,149.782L98.934,151.395L100.418,151.395C100.42,153.829 100.414,156.26 100.422,158.694C100.442,159.457 100.615,160.265 101.094,161.01C101.231,161.224 101.403,161.443 101.594,161.641C102.125,162.188 102.806,162.567 103.551,162.731C104.452,162.942 105.393,162.911 106.278,162.64C107.173,162.356 107.938,161.763 108.437,160.968C108.914,160.225 109.082,159.326 109.082,158.479L109.082,151.395L110.566,151.395L110.566,151.393ZM126.648,160.933L124.373,157.952C125.215,157.876 126.105,157.695 127.012,156.502C127.807,155.392 127.944,154.196 127.682,152.983C127.598,152.614 127.465,152.258 127.287,151.924C127.099,151.573 126.861,151.251 126.58,150.969C126.295,150.683 125.968,150.444 125.609,150.26C124.894,149.881 124.07,149.781 123.287,149.78L117.519,149.78L117.519,151.393L119.011,151.393L119.011,160.933L117.519,160.933L117.519,162.547L122.15,162.547L122.15,160.933L120.882,160.933L120.882,151.518C121.78,151.523 122.675,151.499 123.575,151.535C124.124,151.589 124.739,151.656 125.384,152.463C125.88,153.118 126.053,153.963 125.855,154.76C125.706,155.407 125.313,155.972 124.759,156.337C124.169,156.735 123.437,156.803 122.759,156.806L121.421,156.797L125.462,162.549L128.192,162.549L128.192,160.935L126.648,160.935L126.648,160.933ZM153.846,162.547L153.846,161.604C153.998,161.813 154.176,162.004 154.375,162.169C155.156,162.809 156.033,162.939 156.902,162.867C157.843,162.787 158.722,162.366 159.373,161.682C159.921,161.108 160.276,160.375 160.387,159.589C160.476,158.965 160.415,158.328 160.208,157.732C160.129,157.498 160.021,157.275 159.884,157.069C159.054,155.907 158.023,155.599 157.068,155.325C156.533,155.183 155.998,155.074 155.506,154.896C155.182,154.775 154.695,154.558 154.44,154.167C154.053,153.545 153.975,152.901 154.331,152.189C154.638,151.629 155.079,151.406 155.485,151.273C156.174,151.12 156.874,151.044 157.645,151.811C158.016,152.215 158.137,152.646 158.151,153.083L159.858,153.083L159.858,149.778L158.387,149.778L158.387,150.725C158.17,150.364 157.719,149.985 157.354,149.837C156.951,149.666 156.519,149.572 156.081,149.561C155.306,149.549 154.544,149.757 153.882,150.159C153.681,150.283 153.493,150.426 153.32,150.586C152.361,151.533 152.115,152.591 152.261,153.672C152.345,154.194 152.529,154.697 152.919,155.201C153.394,155.809 153.931,156.119 154.476,156.374C155.519,156.86 156.576,156.866 157.685,157.491C157.966,157.663 158.331,158.078 158.433,158.448C158.603,158.948 158.581,159.535 158.306,160.085C158.186,160.317 158.023,160.524 157.826,160.695C156.994,161.355 155.974,161.425 154.965,160.807C154.227,160.245 154.092,159.576 154.061,158.928L152.325,158.928L152.325,162.545L153.846,162.545L153.846,162.547ZM65.005,84.508C64.977,85.169 64.895,85.828 64.761,86.476L127.065,86.447C125.722,84.729 124.793,82.725 124.348,80.59L119.616,80.59L119.083,81.322L118.21,80.59L81.21,80.583L79.775,84.12L76.842,84.129L78.405,80.584L64.53,80.584C64.901,81.857 65.061,83.183 65.005,84.508ZM132.668,74.51L130.613,79.618L134.363,79.618L132.668,74.51ZM134.605,80.594L130.248,80.594L128.266,86.447L136.588,86.447L134.605,80.594ZM148.443,115.593L146.98,110.19L132.513,110.195C131.739,111.727 130.658,113.084 129.337,114.18C128.678,114.726 127.964,115.202 127.208,115.602L148.443,115.593Z" style="fill:white;"/>
        <path d="M115.211,47.891C115.161,47.957 115.099,48.014 115.029,48.059C122.641,49.622 129.916,52.519 136.519,56.616C143.115,60.726 148.926,65.978 153.679,72.126C158.428,78.277 162.044,85.226 164.357,92.645C166.656,100.068 167.624,107.839 167.216,115.599L168.22,115.599C168.771,107.708 167.892,99.712 165.609,92.139C163.326,84.566 159.638,77.415 154.8,71.155C149.96,64.895 143.968,59.527 137.214,55.41C130.46,51.293 122.944,48.429 115.169,46.975C115.391,47.242 115.443,47.546 115.211,47.891ZM108.291,34.075L101.818,47.07C101.728,47.25 101.687,47.457 101.933,47.692C102.027,47.767 102.142,47.802 102.253,47.798L114.155,47.798C114.296,47.788 114.421,47.801 114.596,47.554C114.689,47.399 114.687,47.204 114.592,47.05L108.291,34.075ZM108.291,29.872L103.719,31.092L108.293,31.96L108.291,29.872ZM101.906,45.057C95.634,44.682 89.307,45.181 83.173,46.542C77.039,47.903 71.094,50.128 65.627,53.18C60.159,56.233 55.167,60.112 51.651,63.259C48.135,66.405 46.095,68.82 44.205,71.34C42.316,73.861 40.577,76.487 39.063,79.236C37.549,81.984 36.26,84.854 35.339,86.851C34.418,88.848 33.865,89.976 33.4,91.125C32.934,92.274 32.556,93.447 32.082,94.652C31.587,95.896 31.032,97.116 30.42,98.307L32.657,99.362C33.146,96.853 33.802,94.38 34.619,91.958C35.026,90.746 35.468,89.546 36.339,87.552C37.211,85.557 38.512,82.769 40.016,80.092C41.52,77.416 43.226,74.851 45.078,72.388C46.929,69.926 48.924,67.565 52.353,64.477C55.782,61.389 60.646,57.574 65.972,54.547C71.298,51.52 77.084,49.281 83.065,47.866C89.056,46.452 95.212,45.859 101.363,46.103L101.906,45.057ZM121.721,67.343L120.461,70.819L123.137,70.819L121.721,67.343ZM86.064,79.675L83.841,72.64L81.485,79.672L86.064,79.675ZM119.615,79.628L124.47,79.628L124.47,77.188L125.456,76.004L123.435,71.789L120.132,71.789L118.582,76L119.609,77.184C119.611,77.999 119.619,78.814 119.615,79.628ZM88.442,79.697L117.815,79.697C116.491,77.237 115.623,74.559 115.252,71.79L88.524,71.78C89.248,74.373 89.219,77.119 88.442,79.697ZM47.991,114.869C48.152,115.01 48.284,115.181 48.382,115.371L85.057,115.395L85.038,110.018L48.085,110.038L46.814,114.452C47.245,114.435 47.667,114.584 47.991,114.869ZM67.053,102.588L47.987,102.588L48,107.89L85.047,107.89C85.221,106.965 85.493,106.037 85.884,105.113C81.672,103.784 77.227,103.355 72.839,103.856C72.746,104.59 72.383,105.264 71.82,105.745C70.938,106.477 69.828,106.669 68.729,106.224C67.325,105.627 66.594,104.043 67.053,102.588ZM122.67,102.565L108.223,102.552C109.577,104.137 110.64,105.949 111.362,107.905L114.354,107.891C115.063,107.03 115.862,106.243 116.733,105.546C118.481,104.147 120.504,103.132 122.67,102.565ZM75.925,99.258C80.479,98.517 85.144,98.86 89.54,100.26C91.078,99.263 92.671,98.433 94.246,98.091C94.793,97.958 95.347,97.856 95.905,97.783C96.464,97.71 97.026,97.664 97.87,97.695C98.714,97.726 99.839,97.834 100.932,98.083C102.025,98.332 103.088,98.723 104.092,99.231C105.095,99.742 106.034,100.369 106.891,101.099L150.434,101.099L145.219,95.251L49.583,95.118L45.229,101.124L69.315,101.143C71.437,100.259 73.656,99.627 75.925,99.258ZM117.715,132.792C117.754,133.283 117.955,133.748 118.286,134.113C118.786,134.669 119.535,134.935 120.274,134.818C120.704,134.735 121.111,134.561 121.467,134.306C121.932,133.96 122.096,133.546 122.137,133.127C122.203,131.993 122.241,130.858 122.246,129.723C122.251,128.588 122.226,127.452 122.197,126.498C122.168,125.545 122.133,124.773 122.093,124.003C122.053,123.233 122.007,122.461 121.974,121.966C121.956,121.654 121.926,121.343 121.882,121.034C121.818,120.608 121.719,120.189 121.587,119.779C121.444,119.317 121.186,118.899 120.837,118.564C120.363,118.054 119.554,118.021 119.04,118.492C118.749,118.746 118.661,119.113 118.552,119.44C118.429,119.847 118.348,120.266 118.311,120.689C118.278,120.991 118.243,121.401 118.215,121.812C118.186,122.222 118.166,122.633 118.141,123.114C118.092,124.087 118.008,125.254 117.862,126.334C117.54,128.472 117.491,130.642 117.715,132.792ZM152.354,123.033C151.902,121.4 151.459,119.764 151.028,118.126L152.354,123.033ZM146.986,102.553L128.922,102.566C129.549,102.684 130.158,102.906 130.713,103.22C132.413,104.184 133.519,105.942 133.651,107.892L146.987,107.906L146.987,102.553L146.986,102.553Z" style="fill:white;"/>
        <path d="M152.354,123.033L152.776,124.823C152.969,125.652 153.165,126.481 153.063,126.619C152.961,126.757 152.563,126.203 152.167,125.648C151.765,125.168 151.371,124.68 150.987,124.186C150.372,123.406 149.421,122.188 148.854,121.468C148.286,120.75 148.1,120.53 147.907,120.317C147.519,119.892 147.1,119.495 146.655,119.13C146.165,118.76 145.507,118.692 144.952,118.955C144.772,119.04 144.606,119.157 144.466,119.3C144.327,119.444 144.214,119.611 144.132,119.794C143.388,121.376 142.895,123.064 142.673,124.798L142.109,127.997C141.74,129.629 141.769,131.339 142.355,133.041C142.437,133.213 142.55,133.386 142.722,133.549C143.386,134.151 144.395,134.192 145.106,133.646C145.657,133.225 145.797,132.674 145.887,132.138C146.186,129.845 146.446,127.546 146.725,125.251C147.775,127.496 149.089,129.607 150.639,131.54C151.237,132.209 151.83,132.826 152.426,133.064C153.317,133.42 154.231,133.268 155.233,132.6C155.442,132.452 155.635,132.282 155.809,132.094C156.155,131.717 156.459,131.301 156.713,130.856C157.529,129.456 157.656,127.915 157.598,126.407C157.559,125.387 157.421,124.373 157.186,123.38C156.97,122.478 156.683,121.595 156.327,120.738C155.971,119.882 155.546,119.056 155.057,118.268C154.57,117.479 154.02,116.731 153.412,116.031C152.883,115.456 152.314,115.183 151.715,115.231C151.567,115.251 151.424,115.3 151.295,115.376C150.811,115.68 150.69,116.097 150.725,116.509C150.789,117.051 150.891,117.589 151.028,118.125L152.354,123.033ZM158.727,121.105C159.227,121.679 159.914,122.06 160.666,122.181L159.719,124.264C159.561,124.306 159.412,124.375 159.276,124.466C158.624,124.956 158.51,125.558 158.706,126.194C158.761,126.347 158.841,126.492 158.94,126.62C158.305,127.728 157.739,128.859 157.565,129.965C157.424,130.854 157.77,131.809 158.149,132.713C158.309,133.08 158.497,133.436 158.684,133.791C158.994,134.343 159.467,134.786 160.039,135.058C161.264,135.579 162.68,135.47 164.076,134.997C165.092,134.605 166.092,134.171 167.072,133.696C168.052,133.221 169.013,132.705 169.552,132.399C170.093,132.094 170.212,131.999 170.314,131.886C170.798,131.297 170.773,130.6 170.378,129.868C170.27,129.689 170.135,129.529 169.978,129.392C169.185,128.708 168.236,128.892 167.339,128.998C166.374,129.2 165.444,129.456 164.497,129.685C163.513,130.039 162.528,130.394 162.335,130.006C162.14,129.617 162.733,128.485 163.327,127.354C163.651,127.405 163.977,127.436 164.304,127.435C165.382,127.434 166.46,127.451 167.54,127.431C167.56,127.427 167.581,127.423 167.726,127.383C168.046,127.297 168.716,127.11 169.23,126.951C169.501,126.886 169.865,126.595 169.988,126.332C170.246,125.782 170.177,125.132 169.808,124.649C169.437,124.162 168.937,124.047 168.458,123.968C167.304,123.875 166.146,123.845 164.987,123.784L165.096,122.606C166.022,122.659 166.953,122.642 167.881,122.547C169.217,122.409 170.465,122.137 171.717,121.895C171.987,121.839 172.266,121.721 172.528,121.494C173.022,121.04 173.135,120.594 172.866,120.056C172.625,119.641 172.35,119.247 172.044,118.878C171.083,117.813 169.684,117.247 168.253,117.343C165.733,117.474 163.29,117.492 160.726,118.259C160.111,118.442 159.505,118.66 158.915,118.91C158.675,119.018 158.484,119.211 158.378,119.451C158.197,119.927 158.238,120.507 158.727,121.105ZM128.832,122.49C132.641,122.042 136.443,121.622 140.256,121.145C140.633,121.067 141.104,120.96 141.586,120.521C142.102,120.03 142.209,119.615 142.057,119.134C141.995,118.931 141.78,118.654 141.45,118.373C141.285,118.235 141.104,118.117 140.911,118.021C140.696,117.917 140.47,117.838 140.237,117.784C139.104,117.518 137.943,117.391 136.78,117.406C135.87,117.403 134.96,117.437 134.053,117.507C132.019,117.683 130.014,118.102 128.08,118.755C127.406,118.995 126.764,119.316 126.168,119.711C125.881,119.899 125.608,120.106 125.348,120.33C124.549,121.031 124.243,121.688 124.045,122.415C123.896,123.144 124.034,123.903 124.431,124.532C124.628,124.842 124.884,125.116 125.183,125.33C125.763,125.756 126.484,125.88 127.16,126.003C128.492,126.244 129.848,125.96 131.187,125.965C132.416,125.976 133.667,125.955 134.91,126.212C136.027,126.44 137.098,126.852 138.08,127.431C138.428,127.68 138.484,127.992 138.351,128.331C138.247,128.58 137.671,129.037 137.236,129.309C137.061,129.418 136.881,129.518 136.695,129.607C133.818,130.878 130.757,130.943 127.732,129.934C127.642,129.885 127.556,129.843 127.464,129.665C127.39,129.465 127.341,129.238 127.652,128.977C127.949,128.825 128.277,128.761 128.597,128.739C129.181,128.712 129.97,128.857 130.706,129.202C131.901,129.726 133.219,129.905 134.511,129.718C135.154,129.624 135.78,129.44 136.372,129.173C136.533,129.097 136.664,128.969 136.743,128.81C136.822,128.651 136.848,128.47 136.817,128.295C136.768,128.045 136.54,127.669 136.094,127.294C135.627,126.924 135.018,126.69 134.424,126.54C134.142,126.473 133.856,126.427 133.567,126.401C133.023,126.344 132.478,126.304 131.932,126.282C130.771,126.239 129.608,126.289 128.454,126.429C128.024,126.482 127.774,126.534 127.53,126.606C127.285,126.677 127.046,126.767 126.815,126.875C126.591,126.978 126.375,127.099 126.17,127.235C125.248,127.894 124.979,128.556 124.895,129.274C124.88,129.487 124.896,129.702 124.944,129.91C124.991,130.119 125.069,130.32 125.243,130.617C125.415,130.914 125.684,131.305 125.995,131.66C126.307,132.014 126.663,132.332 127.048,132.607C127.486,132.915 127.961,133.167 128.462,133.355C129.075,133.596 129.886,133.848 130.714,134.025C131.54,134.202 132.384,134.304 133.228,134.327C134.074,134.349 134.919,134.293 135.525,134.223C136.131,134.153 136.494,134.069 136.853,133.969C137.555,133.776 138.237,133.516 138.889,133.193C139.174,133.047 139.405,132.91 139.625,132.755C139.846,132.602 140.057,132.434 140.256,132.252C140.899,131.658 141.248,131.108 141.459,130.536C141.535,130.331 141.596,130.12 141.639,129.761C141.733,129.046 141.707,127.882 141.33,126.926C141.16,126.459 140.928,126.018 140.641,125.612C140.373,125.231 140.05,124.893 139.682,124.608C138.952,124.049 138.077,123.71 137.161,123.633C135.184,123.415 133.198,123.279 131.212,122.95C130.415,122.816 129.622,122.662 128.832,122.49ZM55.179,126.181C55.325,125.183 55.507,124.043 55.783,122.91C55.926,122.328 56.095,121.754 56.251,121.241C56.407,120.728 56.547,120.277 56.675,119.822C56.802,119.368 56.917,118.91 56.986,118.603C57.117,118.024 57.107,117.87 57.104,117.527C57.097,117.245 57.053,116.939 56.861,116.654C56.429,116.05 55.868,115.966 55.307,116.041C54.877,116.108 54.535,116.489 54.248,116.869C54.133,117.02 54.023,117.175 53.918,117.333C53.774,117.552 53.644,117.78 53.531,118.016C53.349,118.379 53.086,118.942 52.845,119.515C52.145,121.169 51.626,123.012 51.278,124.713C51.17,125.273 51.088,125.837 51.031,126.403C50.923,127.495 50.915,128.552 50.929,129.553C50.934,130.035 50.941,130.518 50.985,130.94C51.028,131.362 51.109,131.722 51.242,132.063C51.375,132.404 51.559,132.726 51.788,133.011C52.229,133.546 52.734,133.928 53.148,134.122C53.855,134.455 54.484,134.502 55.22,134.42C56.206,134.315 57.155,133.791 58.138,133.13C58.366,132.974 58.587,132.811 58.914,132.552C59.75,131.885 60.564,131.192 61.355,130.472C61.327,131.24 61.333,132.009 61.374,132.776C61.416,133.543 61.493,134.307 61.563,134.834C61.633,135.36 61.695,135.647 61.777,135.93C61.956,136.528 62.163,137.032 62.517,137.577C62.705,137.865 62.947,138.179 63.239,138.437C63.531,138.696 63.872,138.9 64.239,139.036C64.606,139.172 64.997,139.238 65.261,139.256C65.525,139.274 65.661,139.242 65.789,139.192C66.013,139.096 66.22,138.973 66.412,138.649C66.579,138.361 66.7,137.98 66.714,137.631C66.722,137.449 66.705,137.267 66.7,136.923C66.695,136.579 66.701,136.073 66.699,135.569C66.698,135.063 66.688,134.558 66.688,133.781C66.688,133.005 66.698,131.956 66.76,130.91C66.885,128.843 67.207,126.762 67.712,124.701C68.792,124.423 69.871,124.139 70.457,123.98C71.044,123.823 71.138,123.791 71.23,123.752C71.322,123.713 71.411,123.67 71.497,123.62C71.673,123.523 71.971,123.278 72.279,122.965C73.478,121.711 73.766,120.34 73.154,118.909C72.982,118.469 72.756,118.052 72.481,117.667C72.347,117.483 72.192,117.317 72.019,117.17C71.846,117.025 71.655,116.905 71.449,116.813C71.216,116.708 70.968,116.637 70.715,116.602C70.103,116.498 69.188,116.498 68.414,116.813C68.037,116.958 67.681,117.157 67.125,117.563C66.422,118.085 65.745,118.641 65.096,119.229C63.845,119.123 62.618,118.823 61.459,118.34C61.216,118.239 60.989,118.102 60.786,117.934C60.611,117.785 60.464,117.605 60.351,117.405C60.241,117.204 60.171,116.98 60.102,116.84C59.954,116.56 59.81,116.549 59.654,116.483C59.476,116.424 59.282,116.427 59.106,116.492C58.845,116.597 58.569,116.683 58.309,117.1C58.166,117.327 58.004,117.675 57.931,117.937C57.858,118.199 57.874,118.374 57.903,118.654C57.932,118.935 57.972,119.323 58.085,119.69C58.322,120.43 58.734,120.988 59.558,121.563C59.97,121.855 60.503,122.181 61.04,122.498C61.578,122.813 62.121,123.118 62.672,123.409C62.284,124.768 61.978,126.15 61.757,127.546L60.171,127.396L56.473,128.636C56.053,128.825 55.576,128.847 55.098,128.617C54.767,128.389 54.712,128.081 54.944,127.754L54.996,127.591C55.048,127.128 55.109,126.668 55.179,126.181ZM20.605,114.232L20.58,114.231L21.246,114.5C21.051,114.371 20.834,114.28 20.605,114.232Z" style="fill:white;"/>
        <path d="M50.727,130.055C50.719,129.531 50.706,129.007 50.688,128.483C50.682,128.234 50.667,127.985 50.641,127.737C50.621,127.557 50.594,127.379 50.339,126.025C50.002,124.234 49.656,122.445 49.302,120.658C49.005,119.171 48.893,118.726 48.763,118.286C48.503,117.406 48.168,116.549 47.763,115.726C47.683,115.601 47.58,115.492 47.46,115.405C47.339,115.319 47.204,115.256 47.06,115.219C46.765,115.145 46.329,115.196 45.891,115.359C45.658,115.451 45.443,115.582 45.255,115.747C44.817,116.116 44.569,116.724 44.157,117.211C43.935,117.497 43.7,117.773 43.433,118.085C43.142,118.421 42.86,118.765 42.587,119.116C42.307,119.481 42.046,119.862 41.657,120.472C41.268,121.082 40.752,121.922 40.264,122.78C39.777,123.637 39.318,124.51 38.889,125.397L37.722,125.299C38.366,123.385 38.799,121.406 39.012,119.398C39.228,117.359 39.233,115.198 38.94,113C38.787,111.882 38.547,110.775 38.221,109.695C37.895,108.615 37.482,107.561 37.154,106.809C36.913,106.243 36.634,105.694 36.319,105.165C35.776,104.252 35.144,103.394 34.434,102.603C34.023,102.133 33.523,101.59 33.02,101.05C32.517,100.51 32.011,99.973 31.62,99.593C31.229,99.213 30.953,98.989 30.654,98.802C30.355,98.615 30.034,98.463 29.698,98.353C29.4,98.257 29.095,98.188 28.785,98.146C28.382,98.095 28.272,98.154 28.045,98.28C27.717,98.503 27.613,98.791 27.713,99.093C27.736,99.158 27.771,99.22 27.985,99.48C28.199,99.741 28.594,100.199 28.982,100.664C29.726,101.554 30.369,102.396 30.807,103.175C31.023,103.549 31.223,103.931 31.467,104.439C31.71,104.945 31.996,105.576 32.277,106.209C32.82,107.438 33.322,108.603 33.637,109.711C33.792,110.251 33.914,110.799 34.004,111.353C34.094,111.907 34.152,112.465 34.185,113.082C34.28,114.982 34.182,117.095 33.866,119.096C33.55,121.134 32.919,123.111 31.996,124.955C30.576,127.705 28.361,129.965 25.641,131.441C24.711,131.958 23.666,132.234 22.602,132.246C22.104,132.258 21.609,132.167 21.148,131.98C20.927,131.892 20.715,131.783 20.515,131.654C19.864,131.235 19.469,130.512 19.469,129.738C20.51,128.869 21.482,127.92 22.375,126.9C23.24,125.908 23.974,124.94 24.532,124.04C24.806,123.601 25.062,123.149 25.304,122.691C25.547,122.232 25.777,121.765 26.005,121.109C26.233,120.451 26.458,119.604 26.56,118.74C26.662,117.876 26.639,116.996 26.494,116.138C26.357,115.366 26.143,114.609 25.854,113.88C25.627,113.317 25.443,113.025 25.223,112.765C25.002,112.504 24.745,112.277 24.459,112.089C23.53,111.497 22.435,111.367 21.375,111.463C21.012,111.498 20.652,111.567 20.035,111.79C19.418,112.015 18.545,112.394 17.754,112.906C16.961,113.42 16.256,114.059 15.667,114.798C15.129,115.489 14.672,116.238 14.304,117.033C13.993,117.7 13.836,118.203 13.692,118.708C13.275,120.162 12.94,121.738 12.905,123.222C12.893,123.704 12.91,124.188 12.961,124.667C13.012,125.147 13.096,125.623 13.23,126.521C13.364,127.417 13.547,128.734 13.725,130.052C13.401,130.414 12.971,130.664 12.496,130.767C12.261,130.82 12.016,130.837 11.622,130.778C11.227,130.717 10.684,130.58 10.181,130.348C9.678,130.116 9.217,129.791 8.823,129.399C8.429,129.005 8.104,128.547 7.863,128.045C7.342,127.007 7.344,125.824 7.315,124.697C7.312,124.112 7.336,123.527 7.389,122.944C7.441,122.362 7.522,121.782 7.668,121.018C7.813,120.254 8.023,119.307 8.26,118.366C8.497,117.425 8.76,116.49 9.124,115.434C9.487,114.378 9.952,113.202 10.508,112.069C11.064,110.936 11.712,109.847 12.446,108.821C13.101,107.92 13.801,107.053 14.543,106.223C15.086,105.613 15.35,105.356 15.615,105.099L16.337,104.407C16.594,104.172 16.831,103.916 17.047,103.643C17.491,103.087 17.671,102.727 17.357,102.215C17.154,101.928 16.876,101.873 16.612,101.853C16.516,101.849 16.419,101.857 16.196,101.92C15.537,102.118 14.904,102.392 14.309,102.736C13.559,103.185 12.87,103.728 12.171,104.257C11.783,104.558 11.403,104.869 11.031,105.189C10.41,105.721 9.832,106.302 9.305,106.927C9.047,107.232 8.8,107.546 8.408,108.114C7.907,108.84 7.433,109.585 6.987,110.346C6.494,111.192 6.047,112.064 5.645,112.956C4.915,114.583 4.319,116.266 3.863,117.99C3.667,118.715 3.49,119.445 3.33,120.179C3.106,121.191 2.958,122.217 2.887,123.251C2.747,125.154 2.865,127.025 3.554,128.978C3.721,129.428 3.926,129.862 4.18,130.266C4.434,130.67 4.737,131.044 5.08,131.375C5.781,132.048 6.566,132.504 7.306,132.843C7.683,133.018 8.069,133.173 8.462,133.309C9.575,133.693 10.596,133.895 11.628,133.694C12.533,133.515 13.284,133.124 14.05,132.963C14.3,132.902 14.551,132.85 14.805,132.807C15.097,133.146 15.394,133.479 15.694,133.811C15.994,134.143 16.296,134.473 16.718,134.87C17.14,135.267 17.683,135.73 18.28,136.109C18.877,136.487 19.53,136.782 20.209,136.993C20.889,137.204 21.594,137.331 22.554,137.341C23.514,137.351 24.728,137.242 25.911,136.985C27.094,136.729 28.239,136.319 29.317,135.768C30.391,135.217 31.389,134.522 32.078,133.99C32.767,133.458 33.149,133.088 33.522,132.71C34.243,131.99 34.919,131.226 35.544,130.422C36.039,129.783 36.267,129.401 36.547,128.893C36.683,128.643 36.808,128.387 36.923,128.126L37.992,128.44L36.95,131.798C36.67,132.676 36.76,133.63 37.199,134.44C37.337,134.689 37.503,134.9 37.703,135.071C38.115,135.423 38.66,135.59 39.169,135.546C39.431,135.524 39.687,135.447 39.874,135.365C40.061,135.283 40.178,135.196 40.287,135.099C40.797,134.653 40.922,134.149 41.137,133.651C41.533,132.613 41.957,131.568 42.326,130.537C42.371,130.397 42.411,130.256 42.45,130.115L46.779,130.034C46.828,130.553 46.879,131.071 46.911,131.368C46.942,131.666 46.953,131.742 46.968,131.817C47.004,132.001 47.063,132.179 47.143,132.348C47.214,132.509 47.329,132.757 47.453,133.002C47.578,133.246 47.711,133.486 47.828,133.669C48.084,134.072 48.284,134.226 48.537,134.384C49.075,134.674 49.617,134.832 50.196,134.057C50.368,133.808 50.442,133.635 50.516,133.395C50.605,133.101 50.683,132.719 50.715,132.373C50.732,132.195 50.74,132.017 50.742,131.631C50.744,131.241 50.738,130.648 50.727,130.055ZM18.426,125.784C18.284,125.24 18.178,124.686 18.109,124.128C17.968,122.986 17.979,121.83 18.141,120.69C18.224,120.061 18.346,119.365 18.493,118.673C18.64,117.983 18.811,117.297 18.932,116.848C19.117,116.114 19.398,115.408 19.768,114.748C19.821,114.655 19.887,114.569 19.964,114.495C20.156,114.34 20.293,114.201 20.58,114.23L20.531,114.209C20.805,114.16 21.083,114.273 21.246,114.498C21.444,114.771 21.575,115.045 21.652,115.342C21.798,116.153 21.803,116.875 21.764,117.662C21.747,117.974 21.72,118.286 21.657,118.751C21.578,119.32 21.483,119.886 21.372,120.449C21.258,121.042 21.115,121.63 20.944,122.209C20.8,122.699 20.605,123.173 20.363,123.623C20.128,124.05 19.844,124.449 19.518,124.812C19.192,125.177 18.826,125.503 18.426,125.784ZM45.948,125.377C45.471,125.733 45.029,125.649 44.687,125.214L45.687,123.221L46.125,125.153C46.079,125.237 46.019,125.313 45.948,125.377Z" style="fill:white;"/>
        <path d="M31.59,105.953C31.302,105.427 31.026,104.895 30.762,104.357C30.442,108.039 30.298,111.724 30.331,115.412L31.129,115.412C31.209,112.258 31.362,109.104 31.59,105.953ZM113.846,110.194L111.973,110.141L114.625,115.601C113.966,113.879 113.699,112.032 113.846,110.194ZM117.291,121.652C116.68,119.838 115.842,117.969 114.375,116.165C112.633,113.769 110.535,111.652 108.153,109.89C106.528,108.552 104.81,107.332 103.012,106.238C102.113,105.691 101.196,105.176 100.262,104.693C97.979,103.535 95.603,102.569 93.16,101.804C88.265,100.276 83.148,99.576 78.022,99.735C76.205,99.75 74.4,100.038 72.668,100.589C72.099,100.775 71.549,100.997 71.014,101.25C69.941,101.755 68.931,102.384 68.004,103.123C67.436,103.543 67.343,104.063 67.555,104.626C67.667,104.937 68.031,105.202 68.392,105.369C68.575,105.458 68.841,105.53 69.146,105.563C69.922,105.614 70.811,105.356 71.678,104.836C71.874,104.699 72.185,104.414 72.097,104.148C72.085,104.029 71.918,103.821 71.744,103.797C71.444,103.722 71.127,103.742 70.839,103.855C71.375,103.496 71.97,103.234 72.597,103.08C72.909,103.002 73.229,102.952 74.004,102.907C74.779,102.862 76.011,102.823 77.242,102.859C79.706,102.936 82.153,103.289 84.537,103.913C86.625,104.508 88.69,105.18 90.729,105.927C92.567,106.604 94.386,107.33 96.184,108.107C97.591,108.715 98.394,109.108 99.181,109.534C100.754,110.387 102.25,111.374 103.654,112.483C104.525,113.202 105.396,113.921 106.22,114.688C107.044,115.457 107.822,116.276 108.599,117.094C109.84,118.457 110.828,120.029 111.517,121.738C112.123,123.163 112.196,124.759 111.722,126.233C111.487,126.964 111.124,127.648 110.65,128.252C110.177,128.855 109.597,129.371 108.668,129.93C107.74,130.487 106.461,131.086 105.139,131.561C102.49,132.513 99.685,132.958 96.871,132.873C95.025,132.802 93.183,132.634 91.355,132.368L91.259,122.421C94.904,122.724 98.498,123.472 101.961,124.649C101.774,125.04 101.496,125.381 101.15,125.642C100.902,125.834 100.66,126.045 100.421,126.281C100.279,126.471 100.249,126.723 100.343,126.941C100.376,127.013 100.421,127.082 100.517,127.17C100.613,127.258 100.757,127.367 100.91,127.461C101.326,127.701 101.902,127.815 102.496,127.783C103.402,127.699 104.225,127.24 105.105,126.388C105.355,126.133 105.564,125.84 105.724,125.522C106.286,124.367 106.267,122.987 105.249,121.667C105.066,121.428 104.861,121.207 104.638,121.006C104.414,120.806 104.172,120.628 103.915,120.472C102.543,119.691 101.073,119.095 99.544,118.701C98.752,118.504 97.949,118.349 97.14,118.237C95.268,117.962 93.381,117.813 91.489,117.79C91.435,116.212 91.225,114.642 90.863,113.105C90.758,112.63 90.609,112.167 90.418,111.72C90.293,111.422 90.213,111.275 90.098,111.057C89.96,110.776 89.593,110.41 89.257,110.268C88.921,110.119 88.544,110.073 88.125,110.473C88.055,110.549 87.998,110.636 87.956,110.73C87.601,111.593 87.329,112.488 87.144,113.403C87.052,113.86 86.984,114.321 86.913,114.869C86.773,115.979 86.608,117.33 86.398,118.572C84.685,118.768 82.991,119.106 81.334,119.582C80.156,119.928 79.018,120.399 77.94,120.986C77.13,121.422 76.385,121.969 75.726,122.611C75.126,123.231 74.846,124.096 74.968,124.95C75.068,125.619 75.38,126.214 75.839,126.853C75.965,127.021 76.102,127.182 76.362,127.457C76.622,127.731 77.006,128.121 77.395,128.505C78.143,129.241 78.847,129.906 79.501,130.435C79.816,130.692 80.141,130.937 80.473,131.171C80.806,131.404 81.146,131.627 81.707,131.973C83.193,132.877 84.689,133.764 86.195,134.634L86.318,135.186L86.481,135.905C86.551,136.21 86.644,136.602 86.737,136.995C86.86,137.483 87.142,137.916 87.538,138.227C88.188,138.722 88.976,138.821 89.69,138.562C89.953,138.467 90.228,138.321 90.471,138.132C90.714,137.944 90.925,137.713 91.092,137.454C91.259,137.195 91.382,136.908 91.456,136.608C93.356,136.874 95.267,137.052 97.183,137.139C98.588,137.208 99.996,137.168 101.394,137.017C103.271,136.806 105.326,136.416 107.214,135.692C109.689,134.762 111.962,133.363 113.907,131.572C114.259,131.241 114.593,130.89 114.907,130.522C115.535,129.786 116.084,128.987 116.544,128.136C117.672,126.139 117.945,123.886 117.291,121.652ZM82.354,129.552C81.772,129.258 81.212,128.92 80.718,128.595C80.224,128.27 79.794,127.958 79.379,127.626C78.609,127.006 77.897,126.319 77.249,125.573C77.049,125.339 77.01,125.261 76.987,125.179C76.912,124.929 76.989,124.656 77.184,124.482C77.246,124.425 77.32,124.381 77.649,124.254C79.094,123.701 80.595,123.307 82.125,123.079C82.431,123.033 82.608,123.014 82.966,122.982C83.445,122.94 83.925,122.905 84.405,122.877C84.946,122.847 85.488,122.829 86.029,122.824L86.03,130.791C84.752,130.553 83.515,130.136 82.354,129.552ZM132.592,106.543C132.563,106.229 132.472,105.924 132.324,105.645C132.194,105.403 132.027,105.184 131.828,104.995C131.224,104.418 130.37,104.18 129.555,104.364C129.317,103.755 128.794,103.3 128.157,103.149C127.46,102.971 126.745,102.877 126.026,102.87C125.566,102.867 125.106,102.901 124.651,102.974C123.995,103.068 123.042,103.239 122.116,103.507C121.19,103.775 120.292,104.14 119.434,104.587C118.579,105.033 117.764,105.562 117.008,106.161C116.698,106.414 116.406,106.689 116.135,106.984C114.973,108.27 114.281,109.688 114.264,111.051C114.254,111.412 114.287,111.775 114.332,112.072C114.422,112.638 114.555,113.034 114.736,113.498C114.925,113.969 115.224,114.51 115.541,115.1L116,115.948C116.113,116.162 116.172,116.272 116.248,116.367C116.326,116.463 116.421,116.543 116.529,116.603C116.763,116.749 117.174,116.777 117.593,116.72C117.829,116.684 118.062,116.611 118.277,116.503C118.492,116.397 118.691,116.257 118.853,116.065C119.015,115.872 119.142,115.627 119.298,115.579C119.456,115.531 119.644,115.683 119.837,115.788C120.03,115.893 120.228,115.954 120.431,115.994C120.632,116.035 120.837,116.055 121.167,116.055C121.495,116.055 121.948,116.034 122.339,116.01C122.728,115.986 123.054,115.957 123.278,115.932C123.502,115.907 123.628,115.883 123.901,115.831C124.463,115.732 125.45,115.514 126.237,115.183C127.036,114.873 127.967,114.341 128.923,113.585C129.872,112.824 130.704,111.928 131.392,110.925C132.07,109.95 132.447,109 132.574,107.991C132.635,107.511 132.641,107.025 132.592,106.543ZM119.566,109.085C118.862,109.726 118.202,110.413 117.591,111.142C118.006,109.449 119.101,108 120.616,107.139C121.742,106.5 122.974,106.068 124.253,105.864C122.552,106.721 120.975,107.804 119.566,109.085ZM128.881,108.748C128.756,109.448 128.354,110.069 127.767,110.47C127.283,110.786 126.8,111.103 126.298,111.387C125.3,111.923 124.31,112.472 123.249,112.665C122.206,112.873 121.128,112.833 120.103,112.55C121.612,110.368 123.795,108.74 126.317,107.918C126.924,107.724 127.569,107.676 128.198,107.78C128.598,107.846 128.894,108.195 128.894,108.6C128.894,108.65 128.89,108.699 128.881,108.748ZM189.918,124.252C189.9,123.645 189.803,123.044 189.631,122.462C189.281,121.295 188.63,120.241 187.744,119.405C186.89,118.675 185.844,118.471 184.808,118.78C184.476,118.884 184.162,119.045 183.353,119.65C182.544,120.255 181.242,121.305 179.982,122.404C178.721,123.502 177.503,124.648 176.33,125.839C176.594,125.068 176.894,124.309 177.236,123.569C177.576,122.83 177.959,122.11 178.248,121.577C178.535,121.044 178.728,120.698 178.902,120.343C179.076,119.988 179.228,119.622 179.326,119.363C179.514,118.864 179.519,118.653 179.512,118.312C179.504,118.152 179.479,117.994 179.446,117.872C179.413,117.75 179.374,117.664 179.317,117.59C178.94,117.124 178.403,117.304 177.913,117.62C177.77,117.726 177.637,117.845 177.517,117.976C176.908,118.603 176.318,119.248 175.749,119.912C174.819,121.02 174.03,122.239 173.401,123.542C173.09,124.193 172.821,124.864 172.651,125.328C172.481,125.791 172.411,126.046 172.356,126.304C172.24,126.847 172.199,127.402 172.233,127.956C172.268,128.646 172.395,129.563 172.612,130.374C172.719,130.782 172.848,131.185 172.999,131.579C172.43,132.793 171.925,134.037 171.487,135.304C171.048,136.57 170.679,137.86 170.382,139.167C170.128,140.302 169.918,141.445 169.751,142.596C169.638,143.396 169.632,143.671 169.651,143.945C169.725,145.141 170.297,146.363 171.46,147.593C172.253,148.332 173.231,148.307 174.22,147.48C174.745,145.454 175.277,143.436 175.759,141.414L176.245,139.797C176.409,139.259 176.655,138.748 176.972,137.96C177.29,137.172 177.718,136.12 178.148,135.067C179.105,134.888 180.055,134.672 180.996,134.422C181.686,134.241 182.352,133.98 182.982,133.646C183.285,133.485 183.58,133.306 183.97,133.036C184.36,132.766 184.849,132.403 185.325,132.025C185.78,131.664 186.222,131.286 186.651,130.894C187.336,130.275 187.945,129.577 188.467,128.816C189.553,127.254 189.992,125.8 189.918,124.252ZM185.852,126.502C185.588,126.922 185.262,127.301 184.885,127.624C184.22,128.167 183.525,128.674 182.805,129.142C182.306,129.467 181.674,129.516 181.131,129.272C182.136,127.001 183.571,124.945 185.356,123.218C185.647,122.947 185.893,122.968 186.124,123.039C186.358,123.097 186.608,123.451 186.597,123.671C186.642,124.668 186.382,125.656 185.852,126.502ZM45.579,153.18C45.505,152.68 45.342,152.197 45.097,151.754C44.946,151.483 44.76,151.233 44.545,151.01C43.894,150.334 43.131,150.048 42.373,149.906C41.967,149.826 41.555,149.784 41.142,149.78L35.831,149.78L35.831,151.393L37.315,151.393L37.315,160.933L35.831,160.933L35.831,162.547L40.688,162.547L40.688,160.933L39.204,160.933L39.204,157.856L41.46,157.856C42.453,157.834 43.467,157.733 44.544,156.6C45.379,155.671 45.758,154.416 45.579,153.18ZM42.894,155.623C42.326,156.084 41.778,156.117 41.247,156.129L39.21,156.129L39.21,151.552L41.174,151.552C41.832,151.555 42.51,151.68 43.07,152.251C43.395,152.584 43.608,153.011 43.679,153.471C43.792,154.267 43.571,155.021 42.894,155.623Z" style="fill:white;"/>
    </g>
</svg>
