<?xml version="1.0" encoding="UTF-8" standalone="no"?>
<!DOCTYPE svg PUBLIC "-//W3C//DTD SVG 1.1//EN" "http://www.w3.org/Graphics/SVG/1.1/DTD/svg11.dtd">
<svg width="100%" height="100%" viewBox="0 0 8334 7463" version="1.1" xmlns="http://www.w3.org/2000/svg" xmlns:xlink="http://www.w3.org/1999/xlink" xml:space="preserve" xmlns:serif="http://www.serif.com/" style="fill-rule:evenodd;clip-rule:evenodd;stroke-linejoin:round;stroke-miterlimit:2;">
    <g id="g1367" transform="matrix(7.796789,0,0,7.796789,1968.182366,1745.88851)">
        <g id="g1332" transform="matrix(1,0,0,1,3.455678,0.003701)">
            <g id="g851">
                <g id="g196" transform="matrix(1.09273,0,0,1.09273,-1047.8392,87.523974)">
                    <g id="g1166" transform="matrix(1,0,0,1,0.711546,0)">
                        <g id="g1197">
                            <g id="g3097">
                                <g id="g3119" transform="matrix(1,0,0,1,130.61033,0)">
                                    <g id="g3580">
                                        <g id="g860" transform="matrix(0.716505,0,0,0.730737,729.40602,-284.93278)">
                                            <path id="path852" d="M935.895,315.032C929.259,360.457 907.892,508.882 799.333,654.554C688.915,804.56 543.725,877.341 499.923,899.731C456.118,877.334 310.928,804.562 200.512,654.554C91.951,508.874 70.591,360.44 63.948,315.032L129.904,279.657L129.904,230.584L195.266,195.177L195.266,146.138C285.691,103.014 385.313,74.661 499.913,59.438C614.515,74.661 714.135,103.021 804.56,146.138L804.56,195.177L869.922,230.584L869.922,279.657L935.895,315.032Z" style="fill:url(#_Linear1);fill-rule:nonzero;"/>
                                            <path id="path854" d="M928.984,244.409L928.984,195.503L863.622,160.096L863.622,108.952L830.091,92.986C734.809,47.554 629.453,17.217 507.94,1.077L500,0L492.06,1.077C370.54,17.217 265.191,47.562 169.919,92.989L136.388,108.955L136.388,160.099L71.018,195.503L71.018,244.409L0,282.503L5.615,323.097C24.43,459.304 74.094,582.572 153.146,689.548C233.043,797.649 340.9,886.087 473.713,952.463L500,965.615L526.286,952.463C659.099,886.089 766.953,797.648 846.853,689.548C925.905,582.572 975.569,459.302 994.384,323.097L999.999,282.503L928.984,244.409ZM935.895,315.032C929.259,360.457 907.892,508.882 799.333,654.554C688.915,804.56 543.725,877.341 499.923,899.731C456.118,877.334 310.928,804.562 200.512,654.554C91.951,508.874 70.591,360.44 63.948,315.032L129.904,279.657L129.904,230.584L195.266,195.177L195.266,146.138C285.691,103.014 385.313,74.661 499.913,59.438C614.515,74.661 714.135,103.021 804.56,146.138L804.56,195.177L869.922,230.584L869.922,279.657L935.895,315.032Z" style="fill:rgb(255,194,0);fill-rule:nonzero;"/>
                                            <path id="path856" d="M402.229,177.456L405.266,576.419L402.451,578.063C360.213,471.317 335.039,338.108 327.1,204.51C306.363,213.833 284.362,225.372 261.808,239.656C270.919,360.86 291.631,466.904 328.855,567.569L307.788,579.772C251.971,501.605 215.504,406.531 190.459,293.764C173.211,309.257 156.098,326.607 139.388,346.054C172.113,481.407 223.621,583.969 298.908,667.459L356.949,632.764C385.379,692.007 425.324,750.465 469.209,797.196L469.209,165.634C446.865,167.809 424.767,171.66 402.229,177.456Z" style="fill:rgb(255,194,0);fill-rule:nonzero;"/>
                                            <path id="path858" d="M775.821,383.122C799.476,356.937 804.505,337.885 804.505,314.834C804.505,282.211 777.552,253.18 738.351,228.238C714.674,213.165 678.43,194.919 625.57,180.187C595.153,172.018 563.442,167.052 530.812,165.635L530.812,797.215C663.562,728.871 821.375,541.607 822.172,446.328C822.416,417.184 807.044,398.147 775.821,383.122ZM596.086,241.157C628.772,241.157 734.514,274.594 734.514,316.818C734.514,332.034 721.077,353.854 679.249,375.815L596.085,420.419L596.085,241.157L596.086,241.157ZM678.484,591.405C659.804,612.948 629.206,645.791 596.086,671.382L596.086,490.17C596.086,490.17 716.071,422.64 720.476,419.762C756.397,428.865 754.569,455.28 754.569,458.015C754.538,491.293 720.525,542.808 678.484,591.405Z" style="fill:rgb(255,194,0);fill-rule:nonzero;"/>
                                        </g>
                                    </g>
                                </g>
                            </g>
                        </g>
                    </g>
                </g>
            </g>
        </g>
        <g id="g6855" transform="matrix(2.312058,0,0,2.3284,-585.71276,643.36885)">
            <g id="g3889">
                <g id="g3899">
                    <g id="g1235" transform="matrix(0.950369,0,0,1,7.502535,-53.754129)">
                        <g id="g1955">
                            <g id="g2167" transform="matrix(1.000951,0,0,1,-0.13674,0)">
                                <g id="g2196">
                                    <path id="path1087" d="M552.554,37.286C544.359,38.701 539.116,45.65 537.158,53.173C533.733,66.33 535.54,90.459 553.519,92.178C555.74,92.39 557.733,92.434 559.951,92.054C567.796,90.709 572.756,84.14 574.881,77.065C577.728,67.592 577.641,55.7 572.626,46.885C569.721,41.782 564.615,37.732 558.343,37.145C556.614,36.983 554.415,36.964 552.554,37.286M586.001,78.008L585.68,78.008C584.644,79.57 581.335,83.457 580.258,84.682C580.869,85.53 581.915,86.418 582.523,86.944C585.236,89.293 588.314,90.81 591.79,91.747C601.899,94.473 614.184,88.243 613.963,77.065C613.796,68.568 607.218,64.164 600.473,60.153C597.235,58.227 591.46,55.209 592.514,50.604C594.099,43.677 602.846,45.587 606.262,49.715L613.016,44.37C607.011,31.783 583.688,35.846 582.198,49.4C581.374,56.891 585.782,62.868 592.112,66.626C596,68.935 601.707,70.95 603.377,75.493C604.936,79.733 600.387,83.579 596.293,83.609C592.045,83.64 588.701,80.85 586.001,78.008M554.484,46.36C559.397,45.518 562.92,48.597 564.626,52.858C567.185,59.251 567.274,68.329 565.206,74.864C564.092,78.387 562.145,82.226 558.022,82.934C552.782,83.834 549.26,80.725 547.549,76.122C545.092,69.512 545.3,61.481 547.054,54.745C548.027,51.005 550.247,47.086 554.484,46.36Z" style="fill:rgb(0,34,175);fill-rule:nonzero;"/>
                                    <g id="text6128" transform="matrix(0.064012,0,0,0.063214,-97.890858,65.307213)">
                                        <path id="path6716" d="M11277.628,426.697C11250.551,426.697 11228.651,417.937 11211.927,400.417C11196,382.1 11188.036,360.996 11188.036,337.104C11188.036,313.213 11196,292.507 11211.927,274.987C11228.651,256.67 11250.551,247.512 11277.628,247.512C11304.705,247.512 11326.208,256.67 11342.135,274.987C11358.859,292.507 11367.221,313.213 11367.221,337.104C11367.221,360.996 11358.859,382.1 11342.135,400.417C11326.208,417.937 11304.705,426.697 11277.628,426.697Z" style="fill:rgb(0,34,175);fill-rule:nonzero;"/>
                                    </g>
                                    <path id="path30-4-9-4" d="M254.76,37.29L254.76,91.101L265.125,91.101L265.125,78.104L268.802,75.726C270.842,74.42 272.647,73.348 272.848,73.348C273.015,73.348 275.121,77.334 277.528,82.224L281.908,91.101L292.874,91.101L291.337,87.986C289.765,84.871 285.787,76.698 282.811,70.434C281.908,68.524 281.173,66.883 281.173,66.716C281.173,66.582 281.708,65.912 282.376,65.275C287.391,60.485 289.799,54.59 288.896,49.197C288.428,46.216 287.559,44.541 285.519,42.498C283.613,40.589 281.306,39.349 277.495,38.244C274.82,37.44 274.118,37.406 264.723,37.272L254.76,37.29ZM274.152,46.752C280.571,48.661 280.27,55.595 273.516,61.189C271.143,63.132 267.097,65.778 265.894,66.146L265.125,66.347L265.125,46.216L268.735,46.216C271.076,46.216 272.982,46.417 274.152,46.752Z" style="fill:rgb(0,34,175);fill-rule:nonzero;"/>
                                    <g id="g2171" transform="matrix(1,0,0,1,0.000002,0)">
                                        <path id="path8" d="M450.2,37.33L450.2,91.322L459.032,91.416C467.091,91.281 468.099,91.18 471.087,90.405C481.565,87.609 486.602,82.254 486.635,73.833C486.635,71.408 486.467,70.397 485.829,68.78C484.755,66.119 482.538,62.987 480.389,61.134L478.643,59.618L479.852,58.103C481.867,55.644 482.874,53.016 483.042,49.884C483.21,46.414 482.572,44.326 480.692,42.17C479.013,40.25 477.569,39.341 474.714,38.297C472.632,37.522 472.061,37.488 461.383,37.354L450.2,37.33ZM469.039,46.381C472.095,46.953 473.64,48.671 473.203,50.995C472.289,53.967 462.976,60.827 460.664,60.506C460.619,59.825 460.61,58.709 460.61,53.488C460.61,49.985 460.677,46.088 460.677,46.088C460.677,46.088 461.618,46.044 464.136,46.044C465.849,46.044 468.065,46.212 469.039,46.381L469.039,46.381ZM474.11,67.534C476.225,69.791 476.83,71.104 476.83,73.328C476.83,76.528 475.117,78.852 471.591,80.401C469.643,81.243 464.768,81.807 462.558,82.018L460.839,82.147L460.784,76.551C460.75,72.432 460.759,71.508 460.846,70.775C461.081,70.573 462.347,69.969 464.304,69.083C464.304,69.083 467.834,67.447 469.198,66.773C470.8,65.994 471.692,65.412 472.028,65.58C472.33,65.749 473.27,66.625 474.11,67.534L474.11,67.534Z" style="fill:rgb(0,34,175);fill-rule:nonzero;"/>
                                        <path id="path30-4-9-1" d="M494.711,37.412L494.711,91.223L505.076,91.223L505.076,78.226L508.753,75.848C510.793,74.542 512.598,73.47 512.799,73.47C512.966,73.47 515.072,77.456 517.479,82.346L521.859,91.223L532.825,91.223L531.288,88.108C529.716,84.993 525.738,76.819 522.762,70.556C521.859,68.646 521.124,67.005 521.124,66.838C521.124,66.704 521.659,66.034 522.327,65.397C527.342,60.607 529.75,54.712 528.847,49.319C528.379,46.338 527.51,44.663 525.47,42.62C523.564,40.71 521.257,39.471 517.446,38.366C514.771,37.562 514.069,37.528 504.674,37.394L494.711,37.412ZM514.103,46.874C520.522,48.783 520.221,55.717 513.467,61.311C511.094,63.253 507.048,65.9 505.845,66.268L505.076,66.469L505.076,46.338L508.686,46.338C511.027,46.338 512.932,46.539 514.103,46.874Z" style="fill:rgb(0,34,175);fill-rule:nonzero;"/>
                                    </g>
                                    <g id="path30-4-9" transform="matrix(1,0,0,1,0.000002,0)">
                                        <path d="M390.391,37.347L390.391,91.158L400.755,91.158L400.755,78.162L404.433,75.783C406.472,74.477 408.277,73.405 408.478,73.405C408.645,73.405 410.752,77.391 413.159,82.282L417.539,91.158L428.505,91.158L426.967,88.043C425.395,84.928 421.417,76.755 418.441,70.491C417.539,68.582 416.803,66.94 416.803,66.773C416.803,66.639 417.338,65.969 418.007,65.333C423.022,60.543 425.429,54.647 424.526,49.254C424.058,46.273 423.189,44.598 421.149,42.555C419.244,40.646 416.937,39.406 413.125,38.301C410.451,37.497 409.749,37.464 400.354,37.33L390.391,37.347ZM409.782,46.809C416.201,48.718 415.9,55.652 409.147,61.246C406.773,63.189 402.728,65.835 401.524,66.203L400.755,66.404L400.755,46.273L404.366,46.273C406.706,46.273 408.612,46.474 409.782,46.809Z" style="fill:rgb(0,34,175);fill-rule:nonzero;"/>
                                    </g>
                                    <path id="path3773" d="M298.841,37.322L307.672,37.322L328.146,69.96L328.537,69.96L328.537,37.322L339.086,37.322L339.086,91.079L330.256,91.079L309.782,58.441L309.391,58.441L309.391,91.079L298.841,91.079L298.841,37.322Z" style="fill:rgb(0,34,175);fill-rule:nonzero;"/>
                                    <path id="path3775" d="M350.027,37.322L381.676,37.322L381.676,46.921L360.577,46.921L360.577,59.209L376.708,59.34L376.708,68.04L360.577,68.04L360.577,81.479L382.457,81.479L382.457,91.079L350.027,91.079L350.027,37.322Z" style="fill:rgb(0,34,175);fill-rule:nonzero;"/>
                                    <g id="text1670" transform="matrix(1.007878,0,0,0.992184,0.003267,0.327396)">
                                        <path id="path2130" d="M142.663,37.22L153.428,37.22L161.404,74.393L161.714,74.393L170.388,37.22L179.061,37.22L187.658,74.393L187.968,74.393L196.099,37.22L206.631,37.22L193.001,91.431L183.166,91.431L174.802,55.807L174.57,55.807L166.206,91.431L156.293,91.431L142.663,37.22Z" style="fill:rgb(0,34,175);fill-rule:nonzero;"/>
                                        <path id="path2132" d="M219.797,37.22L231.259,37.22L247.29,91.431L236.37,91.431L233.04,79.04L217.861,79.04L214.531,91.431L203.534,91.431L219.797,37.22ZM231.104,70.908L225.528,49.611L225.296,49.611L219.797,70.908L231.104,70.908Z" style="fill:rgb(0,34,175);fill-rule:nonzero;"/>
                                    </g>
                                </g>
                            </g>
                        </g>
                    </g>
                </g>
            </g>
        </g>
    </g>
    <defs>
        <linearGradient id="_Linear1" x1="0" y1="0" x2="1" y2="0" gradientUnits="userSpaceOnUse" gradientTransform="matrix(871.94748,0,0,871.94748,63.94792,479.58458)"><stop offset="0" style="stop-color:rgb(64,71,255);stop-opacity:1"/><stop offset="1" style="stop-color:rgb(4,0,108);stop-opacity:1"/></linearGradient>
    </defs>
</svg>
